<svg width="32" height="33" viewBox="0 0 32 33" fill="none" xmlns="http://www.w3.org/2000/svg">
<g id="Group 3">
<g id="Group 2">
<path id="Vector" d="M16 2L16.0003 3.25L15.9997 3.25L16 2ZM25.8973 6.09857L26.7811 5.21466L25.8973 6.09857ZM30 15.9991L31.25 15.9986L31.25 15.9994L30 15.9991ZM28.9332 21.3581L27.7783 20.8797H27.7783L28.9332 21.3581ZM8.48148 27.4074L7.93665 26.2824L8.68366 25.9206L9.30695 26.4687L8.48148 27.4074ZM3.22453 29.9533L3.76937 31.0783L3.69407 31.1148L3.61458 31.1409L3.22453 29.9533ZM2.7155 29.9741L3.00756 28.7587L3.00758 28.7587L2.7155 29.9741ZM2.27141 29.7243L1.38447 30.6051L1.38446 30.6051L2.27141 29.7243ZM2.04853 28.7691L3.23416 29.1651L3.23377 29.1663L2.04853 28.7691ZM3.77707 23.5935L4.86185 22.9724L5.14007 23.4583L4.96269 23.9895L3.77707 23.5935ZM2 15.9991H0.75V15.9986L2 15.9991ZM8.49575 27.4199L9.32121 26.4813L9.3213 26.4814L8.49575 27.4199ZM24.4195 29.3327C25.0745 29.1144 25.7824 29.4683 26.0007 30.1232C26.219 30.7782 25.865 31.4861 25.2101 31.7044L24.4195 29.3327ZM15.9997 0.75C20.0431 0.748921 23.9213 2.35497 26.7811 5.21466L25.0134 6.98248C22.6224 4.59161 19.3803 3.2491 16.0003 3.25L15.9997 0.75ZM26.7811 5.21466C29.641 8.07432 31.2484 11.9534 31.25 15.9986L28.75 15.9996C28.7486 12.6169 27.4045 9.37338 25.0134 6.98248L26.7811 5.21466ZM31.25 15.9994C31.2495 18.0026 30.8546 19.986 30.088 21.8365L27.7783 20.8797C28.4194 19.3324 28.7496 17.6738 28.75 15.9987L31.25 15.9994ZM30.088 21.8365C29.2715 23.8074 27.4499 25.8232 25.3072 26.7415L24.3224 24.4437C25.8093 23.8064 27.1872 22.3067 27.7783 20.8797L30.088 21.8365ZM9.02632 28.5324L3.76937 31.0783L2.6797 28.8283L7.93665 26.2824L9.02632 28.5324ZM3.61458 31.1409C3.22973 31.2673 2.8173 31.2841 2.42342 31.1895L3.00758 28.7587C2.95034 28.7449 2.8904 28.7474 2.83449 28.7657L3.61458 31.1409ZM2.42344 31.1895C2.02955 31.0948 1.66984 30.8924 1.38447 30.6051L3.15834 28.8434C3.117 28.8018 3.06482 28.7724 3.00756 28.7587L2.42344 31.1895ZM1.38446 30.6051C1.0991 30.3177 0.899281 29.9567 0.807268 29.5624L3.24187 28.9943C3.22857 28.9373 3.19968 28.8851 3.15835 28.8434L1.38446 30.6051ZM0.807268 29.5624C0.71526 29.1681 0.734659 28.7559 0.863297 28.372L3.23377 29.1663C3.25236 29.1108 3.25516 29.0512 3.24187 28.9943L0.807268 29.5624ZM0.862909 28.3732L2.59144 23.1975L4.96269 23.9895L3.23416 29.1651L0.862909 28.3732ZM2.69229 24.2146C1.29538 21.7748 0.75 18.676 0.75 15.9991H3.25C3.25 18.4026 3.74995 21.0304 4.86185 22.9724L2.69229 24.2146ZM0.75 15.9986C0.751619 11.9534 2.35901 8.07432 5.21886 5.21466L6.98657 6.98248C4.59551 9.37338 3.25135 12.6169 3.25 15.9996L0.75 15.9986ZM5.21886 5.21466C8.07874 2.35497 11.9569 0.748921 16.0003 0.75L15.9997 3.25C12.6197 3.2491 9.3776 4.59161 6.98657 6.98248L5.21886 5.21466ZM9.30695 26.4687L9.32121 26.4813L7.67028 28.3586L7.65602 28.3461L9.30695 26.4687ZM9.3213 26.4814C10.1061 27.1716 15.8156 32.2006 24.4195 29.3327L25.2101 31.7044C15.2549 35.0228 8.58831 29.1661 7.67019 28.3585L9.3213 26.4814Z" fill="#2A9134"/>
<path id="Vector 1" d="M24.8148 25.5926C20.1482 27.4074 15.7407 25.7367 12.8889 23.5186C8.88889 20.4074 6.40741 11.9005 12.3704 10.0371C13.7531 9.60497 16.7778 10.2445 17.8148 13.1482C17.8148 12.1976 18.1717 9.51855 21.7037 9.51855C26.1111 9.51855 27.6667 19.8889 22.2222 21.963C17.7476 23.6676 13.4074 20.1482 13.1481 16.7778" stroke="#2A9134" stroke-width="2.5" stroke-linecap="round" stroke-linejoin="round"/>
</g>
</g>
</svg>
