<svg width="183" height="51" viewBox="0 0 183 51" fill="none" xmlns="http://www.w3.org/2000/svg">
<g id="Group 3">
<g id="Group 2">
<path id="Vector" d="M24.248 2L24.2486 4L24.2475 4L24.248 2ZM39.9763 8.51323L41.3904 7.09897L39.9763 8.51323ZM46.4961 24.2466L48.4961 24.2458L48.4961 24.2471L46.4961 24.2466ZM12.3 42.3761L11.4283 40.576L12.6236 39.9972L13.6208 40.8742L12.3 42.3761ZM3.94596 46.4219L4.8177 48.2219L4.69722 48.2802L4.57003 48.322L3.94596 46.4219ZM3.13704 46.4549L3.60434 44.5102L3.60438 44.5102L3.13704 46.4549ZM2.4313 46.0579L1.0122 47.4672L1.01218 47.4672L2.4313 46.0579ZM2.03904 45.3492L3.98672 44.8947L3.98672 44.8948L2.03904 45.3492ZM2.07713 44.54L3.97413 45.1736L3.97351 45.1755L2.07713 44.54ZM4.82402 36.3152L6.55967 35.3215L7.00483 36.099L6.72102 36.9487L4.82402 36.3152ZM2 24.2466H0V24.2458L2 24.2466ZM8.51981 8.51323L7.10564 7.09897L8.51981 8.51323ZM12.3227 42.396L13.6435 40.8942L13.6436 40.8943L12.3227 42.396ZM37.6236 45.4227C38.6715 45.0734 39.8041 45.6397 40.1534 46.6876C40.5027 47.7355 39.9364 48.8682 38.8885 49.2174L37.6236 45.4227ZM24.2475 1.19209e-07C30.6767 -0.00171542 36.8431 2.55196 41.3904 7.09897L38.5621 9.92749C34.765 6.13058 29.6163 3.99857 24.2486 4L24.2475 1.19209e-07ZM41.3904 7.09897C45.9377 11.6459 48.4935 17.8138 48.4961 24.2458L44.4961 24.2474C44.4939 18.8754 42.3593 13.7244 38.5621 9.92749L41.3904 7.09897ZM48.4961 24.2471C48.4952 27.4322 47.8674 30.586 46.6484 33.5284L42.953 31.9974C43.971 29.5401 44.4954 26.9062 44.4961 24.246L48.4961 24.2471ZM46.6484 33.5284C45.3497 36.6633 42.4526 39.8695 39.0439 41.3304L37.4682 37.6538C39.8276 36.6426 42.0148 34.2622 42.953 31.9974L46.6484 33.5284ZM13.1718 44.1761L4.8177 48.2219L3.07423 44.6219L11.4283 40.576L13.1718 44.1761ZM4.57003 48.322C3.95608 48.5237 3.2981 48.5505 2.66969 48.3995L3.60438 44.5102C3.51093 44.4878 3.41311 44.4918 3.3219 44.5217L4.57003 48.322ZM2.66973 48.3995C2.04136 48.2485 1.46749 47.9256 1.0122 47.4672L3.8504 44.6486C3.78292 44.5806 3.69775 44.5327 3.60434 44.5102L2.66973 48.3995ZM1.01218 47.4672C0.556934 47.0088 0.238155 46.4328 0.0913658 45.8037L3.98672 44.8948C3.96502 44.8018 3.91787 44.7165 3.85043 44.6486L1.01218 47.4672ZM0.0913696 45.8037C-0.0554314 45.1747 -0.0244789 44.5171 0.180744 43.9046L3.97351 45.1755C4.00384 45.0849 4.00842 44.9877 3.98672 44.8947L0.0913696 45.8037ZM0.180126 43.9065L2.92702 35.6817L6.72102 36.9487L3.97412 45.1736L0.180126 43.9065ZM3.08837 37.3089C0.86694 33.429 0 28.502 0 24.2466H4C4 28.0646 4.79425 32.238 6.55967 35.3215L3.08837 37.3089ZM0 24.2458C0.00257111 17.8138 2.55837 11.6459 7.10564 7.09897L9.93397 9.92749C6.13677 13.7244 4.00214 18.8754 4 24.2474L0 24.2458ZM7.10564 7.09897C11.6529 2.55197 17.8193 -0.00171542 24.2486 1.19209e-07L24.2475 4C18.8798 3.99857 13.7311 6.13058 9.93397 9.92749L7.10564 7.09897ZM13.6208 40.8742L13.6435 40.8942L11.0019 43.8978L10.9792 43.8779L13.6208 40.8742ZM13.6436 40.8943C14.8899 41.9905 23.9581 49.9779 37.6236 45.4227L38.8885 49.2174C23.0609 54.4933 12.4615 45.1817 11.0018 43.8977L13.6436 40.8943Z" fill="white"/>
<path id="Vector 1" d="M38.2561 39.4921C30.8401 42.3761 23.836 39.721 19.304 36.1961C12.9474 31.252 9.00401 17.7333 18.48 14.772C20.6774 14.0854 25.484 15.1016 27.132 19.716C27.132 18.2054 27.6992 13.948 33.3121 13.948C40.3161 13.948 42.7881 30.4281 34.1361 33.7241C27.0252 36.4329 20.128 30.8401 19.716 25.484" stroke="white" stroke-width="4" stroke-linecap="round" stroke-linejoin="round"/>
</g>
<g id="asa">
<path d="M98.97 46.1346H86.5649L85.8301 41.2019C84.2452 43.0481 82.3146 44.476 80.0381 45.4856C77.7617 46.4952 75.2547 47 72.5172 47C69.5204 47 66.855 46.4231 64.5209 45.2692C62.1868 44.1154 60.3426 42.5288 58.9883 40.5096C57.6628 38.4615 57 36.1394 57 33.5433C57 30.8029 57.7204 28.3942 59.1612 26.3173C60.6308 24.2404 62.6479 22.6106 65.2125 21.4279C67.7771 20.2452 70.7019 19.6538 73.9868 19.6538C75.8599 19.6538 77.7041 19.8558 79.5195 20.2596C81.3637 20.6635 83.1214 21.226 84.7927 21.9471V21.0385C84.7927 19.5096 84.3317 18.1827 83.4096 17.0577C82.4875 15.9327 81.234 15.0529 79.6491 14.4183C78.0643 13.7548 76.2633 13.4231 74.2462 13.4231C72.2579 13.4231 70.3272 13.7404 68.4542 14.375C66.5812 14.9808 64.8667 15.8606 63.3106 17.0144L59.5934 6.41346C62.6479 4.94231 65.6879 3.84615 68.7136 3.125C71.768 2.375 74.7072 2 77.5312 2C81.8823 2 85.6572 2.85096 88.8557 4.55288C92.0831 6.25481 94.5756 8.66346 96.3334 11.7788C98.0912 14.8654 98.97 18.5288 98.97 22.7692V46.1346ZM75.7158 36.399C77.1854 36.399 78.5973 36.0817 79.9517 35.4471C81.3348 34.7837 82.4586 33.9183 83.3231 32.851C84.2164 31.7837 84.6775 30.6442 84.7063 29.4327V29.2596C83.5536 28.5096 82.2713 27.9471 80.8594 27.5721C79.4474 27.1683 78.0354 26.9663 76.6235 26.9663C74.5199 26.9663 72.8342 27.399 71.5663 28.2644C70.2984 29.101 69.6645 30.226 69.6645 31.6394C69.6645 32.5337 69.9238 33.3558 70.4425 34.1058C70.9612 34.8269 71.6816 35.3894 72.6037 35.7933C73.5258 36.1971 74.5632 36.399 75.7158 36.399Z" fill="white"/>
<path d="M102.948 42.4567L105.931 30.601C106.766 31.524 107.933 32.4038 109.432 33.2404C110.93 34.0769 112.544 34.7548 114.273 35.274C116.031 35.7644 117.673 36.0096 119.2 36.0096C120.67 36.0096 121.808 35.75 122.615 35.2308C123.422 34.7115 123.825 34.0192 123.825 33.1538C123.825 32.3462 123.508 31.6683 122.874 31.1202C122.24 30.5433 121.405 30.024 120.367 29.5625C119.33 29.101 118.149 28.6394 116.823 28.1779C114.979 27.4856 113.048 26.6635 111.031 25.7115C109.014 24.7308 107.314 23.4183 105.931 21.774C104.576 20.101 103.899 17.8798 103.899 15.1106C103.899 12.4279 104.591 10.1058 105.974 8.14423C107.386 6.18269 109.374 4.66827 111.939 3.60096C114.503 2.53365 117.515 2 120.973 2C126.649 2 132.34 3.42788 138.046 6.28365L134.069 17.274C133.147 16.524 131.966 15.8173 130.525 15.1538C129.084 14.4615 127.6 13.9135 126.073 13.5096C124.574 13.0769 123.249 12.8606 122.096 12.8606C120.915 12.8606 120.007 13.0913 119.373 13.5529C118.739 14.0144 118.422 14.6346 118.422 15.4135C118.422 16.1058 118.696 16.726 119.244 17.274C119.791 17.7933 120.584 18.2837 121.621 18.7452C122.658 19.2067 123.854 19.6971 125.208 20.2163C127.168 20.9087 129.156 21.7452 131.173 22.726C133.19 23.7067 134.891 25.0337 136.274 26.7067C137.686 28.3798 138.392 30.6154 138.392 33.4135C138.392 36.1538 137.642 38.5481 136.144 40.5962C134.646 42.6154 132.528 44.1875 129.79 45.3125C127.081 46.4375 123.883 47 120.195 47C114.028 47 108.279 45.4856 102.948 42.4567Z" fill="white"/>
<path d="M183 46.1346H170.595L169.86 41.2019C168.275 43.0481 166.345 44.476 164.068 45.4856C161.792 46.4952 159.285 47 156.547 47C153.55 47 150.885 46.4231 148.551 45.2692C146.217 44.1154 144.373 42.5288 143.018 40.5096C141.693 38.4615 141.03 36.1394 141.03 33.5433C141.03 30.8029 141.75 28.3942 143.191 26.3173C144.661 24.2404 146.678 22.6106 149.242 21.4279C151.807 20.2452 154.732 19.6538 158.017 19.6538C159.89 19.6538 161.734 19.8558 163.549 20.2596C165.394 20.6635 167.151 21.226 168.823 21.9471V21.0385C168.823 19.5096 168.362 18.1827 167.44 17.0577C166.517 15.9327 165.264 15.0529 163.679 14.4183C162.094 13.7548 160.293 13.4231 158.276 13.4231C156.288 13.4231 154.357 13.7404 152.484 14.375C150.611 14.9808 148.897 15.8606 147.341 17.0144L143.623 6.41346C146.678 4.94231 149.718 3.84615 152.744 3.125C155.798 2.375 158.737 2 161.561 2C165.912 2 169.687 2.85096 172.886 4.55288C176.113 6.25481 178.606 8.66346 180.363 11.7788C182.121 14.8654 183 18.5288 183 22.7692V46.1346ZM159.746 36.399C161.215 36.399 162.627 36.0817 163.982 35.4471C165.365 34.7837 166.489 33.9183 167.353 32.851C168.246 31.7837 168.707 30.6442 168.736 29.4327V29.2596C167.584 28.5096 166.301 27.9471 164.889 27.5721C163.477 27.1683 162.065 26.9663 160.653 26.9663C158.55 26.9663 156.864 27.399 155.596 28.2644C154.328 29.101 153.694 30.226 153.694 31.6394C153.694 32.5337 153.954 33.3558 154.472 34.1058C154.991 34.8269 155.712 35.3894 156.634 35.7933C157.556 36.1971 158.593 36.399 159.746 36.399Z" fill="white"/>
</g>
</g>
</svg>
