<svg width="83" height="81" viewBox="0 0 83 81" fill="none" xmlns="http://www.w3.org/2000/svg">
<mask id="mask0_191_5812" style="mask-type:luminance" maskUnits="userSpaceOnUse" x="0" y="0" width="82" height="81">
<path d="M41.7821 81C64.1514 81 82.06 62.8675 81.7821 40.5C81.5042 18.1325 63.1451 0 40.7758 0C18.4066 0 0.497963 18.1325 0.775834 40.5C1.0537 62.8675 19.4128 81 41.7821 81Z" fill="white"/>
</mask>
<g mask="url(#mask0_191_5812)">
<path d="M79.5372 83.3501H1.75562C5.34203 67.2504 14.9676 64.0348 14.9676 64.0348L33.52 55.3575L40.5502 55.2933H40.7427L47.78 55.3575L66.3324 64.0348C66.3324 64.0348 75.9508 67.2504 79.5372 83.3501Z" fill="#4570B4"/>
<path d="M32.7897 30.8801C32.8582 33.305 30.948 35.3271 28.5231 35.3955C26.0982 35.464 24.0761 33.5538 24.0076 31.1289C23.9392 28.704 25.8493 26.6819 28.2743 26.6134C30.6992 26.545 32.7206 28.4551 32.7897 30.8801Z" fill="#C67D69"/>
<path d="M25.9045 30.3874C25.9045 30.3874 27.6514 29.5368 29.3163 32.5713" stroke="#A8523F" stroke-width="0.7482" stroke-miterlimit="10" stroke-linecap="round" stroke-linejoin="round"/>
<path d="M53.221 35.3977C55.647 35.3977 57.6138 33.4309 57.6138 31.0048C57.6138 28.5788 55.647 26.612 53.221 26.612C50.7949 26.612 48.8281 28.5788 48.8281 31.0048C48.8281 33.4309 50.7949 35.3977 53.221 35.3977Z" fill="#C67D69"/>
<path d="M55.6964 30.3168C55.6964 30.3168 53.926 29.5154 52.3481 32.5963" stroke="#A8523F" stroke-width="0.7482" stroke-miterlimit="10" stroke-linecap="round" stroke-linejoin="round"/>
<path d="M46.4453 41.1267C46.4453 41.1267 43.9683 42.8742 41.7117 43.3056C39.455 43.737 37.2604 42.4272 37.2326 42.4108C37.2048 42.3951 34.5973 40.8949 34.5973 40.8949L33.5178 55.3539L33.8102 55.5949C37.6368 58.7514 43.1534 58.7892 47.0228 55.6848L47.589 55.2306L46.4453 41.1267Z" fill="#C67D69"/>
<path d="M33.5178 39.3748C33.5178 39.3748 35.9791 47.4317 41.6432 47.3426C46.2991 47.2692 47.0499 39.3748 47.0499 39.3748H33.5178Z" fill="#1E0B02"/>
<path d="M52.671 23.3571C52.696 28.3225 52.0087 32.6112 51.3156 35.6558C50.6375 38.6368 48.6975 40.7274 45.9488 42.4165L45.4483 42.7238C42.5407 44.5106 38.7724 44.5712 35.8021 42.8785C32.8067 41.1716 30.7041 38.9113 30.0438 35.7192C28.8439 29.9139 28.6834 23.4784 28.6834 23.4784C28.6834 23.4784 26.9972 10.0468 39.9339 10.225C52.8721 10.4033 52.671 23.3571 52.671 23.3571Z" fill="#C67D69"/>
<path d="M35.097 28.3432C35.675 28.3432 36.1437 27.8746 36.1437 27.2965C36.1437 26.7184 35.675 26.2498 35.097 26.2498C34.5189 26.2498 34.0503 26.7184 34.0503 27.2965C34.0503 27.8746 34.5189 28.3432 35.097 28.3432Z" fill="#1E0B02"/>
<path d="M45.3692 28.3432C45.9473 28.3432 46.4159 27.8746 46.4159 27.2965C46.4159 26.7184 45.9473 26.2498 45.3692 26.2498C44.7911 26.2498 44.3225 26.7184 44.3225 27.2965C44.3225 27.8746 44.7911 28.3432 45.3692 28.3432Z" fill="#1E0B02"/>
<path d="M39.2832 28.8259V31.7129H41.1491" stroke="#A8523F" stroke-width="0.7482" stroke-miterlimit="10" stroke-linecap="round" stroke-linejoin="round"/>
<path d="M31.197 22.8723L38.0376 22.2556C38.0376 22.2556 37.4251 20.483 34.6594 20.7704C31.8295 21.0648 31.197 22.8723 31.197 22.8723Z" fill="black"/>
<path d="M48.8281 22.8723L41.9883 22.2556C41.9883 22.2556 42.6008 20.483 45.3665 20.7704C48.1957 21.0649 48.8281 22.8723 48.8281 22.8723Z" fill="black"/>
<path d="M36.9424 34.1043H43.6902C43.6902 34.1043 43.373 36.1713 40.2165 36.1713C37.06 36.1713 36.9424 34.1043 36.9424 34.1043Z" fill="white"/>
<path d="M29.125 29.8348C29.125 29.8348 31.0401 15.308 30.1032 12.9145C30.1032 12.9145 23.5878 18.3041 29.125 29.8348Z" fill="#1E0B02"/>
<path d="M52.1829 29.7179C52.1829 29.7179 50.0274 15.8457 50.6249 11.8543C50.6249 11.8543 56.9172 17.4271 52.1829 29.7179Z" fill="#1E0B02"/>
<path d="M50.1751 8.78835L44.2101 7.61331L43.6846 6.26931L40.5367 6.88962L37.3887 6.26931L36.8633 7.61331L30.899 8.78835L30.1033 12.9445L30.2994 17.7358C30.2994 17.7358 31.2434 12.3013 34.5303 13.3837C35.3053 13.6389 36.2337 14.0617 37.3182 14.3469C38.3313 14.6343 39.2975 14.7648 40.2087 14.7854C40.3163 14.789 40.4283 14.7854 40.5374 14.7861C40.6472 14.7854 40.7584 14.789 40.8661 14.7854C41.7773 14.7655 42.7427 14.6343 43.7559 14.3469C44.8404 14.0617 45.7887 13.7259 46.5437 13.3837C49.5904 12.0026 50.7127 17.4884 50.7127 17.4884L50.9708 12.9445L50.1751 8.78835Z" fill="#1E0B02"/>
<path d="M33.5177 55.3546L29.373 57.2591C29.373 57.2591 29.3281 64.208 40.5915 63.8472C52.14 63.4779 52.0715 57.3639 52.0715 57.3639L47.5889 55.2306L33.5177 55.3546Z" fill="#C67D69"/>
<path d="M28.861 16.6036C28.861 18.0496 27.6888 19.2225 26.2422 19.2225C24.7962 19.2225 23.6233 18.0503 23.6233 16.6036C23.6233 15.1576 24.7955 13.9847 26.2422 13.9847C27.6881 13.9854 28.861 15.1576 28.861 16.6036Z" fill="#1E0B02"/>
<path d="M28.909 21.154C28.909 22.3711 27.9223 23.3572 26.7059 23.3572C25.4888 23.3572 24.5027 22.3704 24.5027 21.154C24.5027 19.9369 25.4895 18.9508 26.7059 18.9508C27.9223 18.9508 28.909 19.9369 28.909 21.154Z" fill="#1E0B02"/>
<path d="M56.6412 20.7861C56.6412 22.0032 55.6544 22.99 54.438 22.99C53.2209 22.99 52.2341 22.0032 52.2341 20.7861C52.2341 19.569 53.2209 18.5829 54.438 18.5829C55.6544 18.5829 56.6412 19.569 56.6412 20.7861Z" fill="#1E0B02"/>
<path d="M30.8093 12.9138C30.8093 14.3598 29.6371 15.5326 28.1904 15.5326C26.7437 15.5326 25.5715 14.3605 25.5715 12.9138C25.5715 11.4678 26.7437 10.2949 28.1904 10.2949C29.6364 10.2949 30.8093 11.4678 30.8093 12.9138Z" fill="#1E0B02"/>
<path d="M33.4272 9.4379C33.4272 10.8839 32.255 12.0567 30.8083 12.0567C29.3616 12.0567 28.1895 10.8846 28.1895 9.4379C28.1895 7.99193 29.3616 6.81903 30.8083 6.81903C32.255 6.81903 33.4272 7.99193 33.4272 9.4379Z" fill="#1E0B02"/>
<path d="M37.2355 7.41367C37.2355 8.85964 36.0634 10.0325 34.6167 10.0325C33.17 10.0325 31.9978 8.86036 31.9978 7.41367C31.9978 5.9677 33.17 4.7948 34.6167 4.7948C36.0634 4.7948 37.2355 5.9677 37.2355 7.41367Z" fill="#1E0B02"/>
<path d="M41.0934 6.53525C41.0934 7.98123 39.9213 9.15412 38.4746 9.15412C37.0286 9.15412 35.8557 7.98194 35.8557 6.53525C35.8557 5.08928 37.0279 3.91639 38.4746 3.91639C39.9205 3.91639 41.0934 5.08857 41.0934 6.53525Z" fill="#1E0B02"/>
<path d="M52.5579 16.6036C52.5579 18.0496 53.73 19.2225 55.1767 19.2225C56.6227 19.2225 57.7956 18.0503 57.7956 16.6036C57.7956 15.1576 56.6234 13.9847 55.1767 13.9847C53.7308 13.9854 52.5579 15.1576 52.5579 16.6036Z" fill="#1E0B02"/>
<path d="M50.6099 12.9138C50.6099 14.3598 51.782 15.5326 53.2287 15.5326C54.6754 15.5326 55.8476 14.3605 55.8476 12.9138C55.8476 11.4678 54.6754 10.2949 53.2287 10.2949C51.7827 10.2949 50.6099 11.4678 50.6099 12.9138Z" fill="#1E0B02"/>
<path d="M47.9917 9.4379C47.9917 10.8839 49.1639 12.0567 50.6106 12.0567C52.0565 12.0567 53.2294 10.8846 53.2294 9.4379C53.2294 7.99193 52.0573 6.81903 50.6106 6.81903C49.1639 6.81903 47.9917 7.99193 47.9917 9.4379Z" fill="#1E0B02"/>
<path d="M44.1836 7.41367C44.1836 8.85964 45.3558 10.0325 46.8025 10.0325C48.2484 10.0325 49.4213 8.86036 49.4213 7.41367C49.4213 5.9677 48.2491 4.7948 46.8025 4.7948C45.3558 4.7948 44.1836 5.9677 44.1836 7.41367Z" fill="#1E0B02"/>
<path d="M40.3254 6.53525C40.3254 7.98123 41.4976 9.15412 42.9443 9.15412C44.3903 9.15412 45.5632 7.98194 45.5632 6.53525C45.5632 5.08928 44.391 3.91639 42.9443 3.91639C41.4983 3.91639 40.3254 5.08857 40.3254 6.53525Z" fill="#1E0B02"/>
</g>
</svg>
