<svg width="82" height="82" viewBox="0 0 82 82" fill="none" xmlns="http://www.w3.org/2000/svg">
<path d="M81.1204 40.8901C81.1204 18.6257 63.0716 0.576886 40.8072 0.576887C18.5428 0.576888 0.493894 18.6258 0.493895 40.8901C0.493896 63.1545 18.5428 81.2034 40.8072 81.2034C63.0716 81.2034 81.1204 63.1545 81.1204 40.8901Z" fill="#FFB2BF"/>
<mask id="mask0_191_5817" style="mask-type:luminance" maskUnits="userSpaceOnUse" x="0" y="0" width="82" height="82">
<path d="M81.1204 40.8901C81.1204 18.6257 63.0716 0.576871 40.8072 0.576872C18.5428 0.576873 0.493894 18.6257 0.493895 40.8901C0.493896 63.1545 18.5428 81.2034 40.8072 81.2034C63.0716 81.2034 81.1204 63.1545 81.1204 40.8901Z" fill="white"/>
</mask>
<g mask="url(#mask0_191_5817)">
<path d="M53.6223 37.7042C56.0484 37.7042 58.0151 35.7375 58.0151 33.3114C58.0151 30.8853 56.0484 28.9186 53.6223 28.9186C51.1962 28.9186 49.2295 30.8853 49.2295 33.3114C49.2295 35.7375 51.1962 37.7042 53.6223 37.7042Z" fill="#E8B499"/>
<path d="M56.0978 32.6234C56.0978 32.6234 54.3281 31.822 52.7495 34.9028" stroke="#C47268" stroke-width="0.6887" stroke-miterlimit="10" stroke-linecap="round" stroke-linejoin="round"/>
<path d="M33.1911 33.1873C33.2595 35.6123 31.3494 37.6336 28.9245 37.7028C26.4995 37.7713 24.4775 35.8611 24.409 33.4362C24.3406 31.0113 26.2507 28.9892 28.6756 28.9207C31.1006 28.8516 33.1226 30.7617 33.1911 33.1873Z" fill="#E8B499"/>
<path d="M26.3057 32.6939C26.3057 32.6939 28.0525 31.8433 29.7174 34.8779" stroke="#C47268" stroke-width="0.6887" stroke-miterlimit="10" stroke-linecap="round" stroke-linejoin="round"/>
<path d="M60.5562 80.9707H20.9702L21.0415 60.315C21.8472 59.8159 22.8026 59.4238 23.7581 59.1172C26.0468 58.3899 28.2856 58.1831 28.2856 58.1831L40.7489 59.438L53.2123 58.1831C53.2123 58.1831 54.9021 58.34 56.8415 58.8605C56.8486 58.8605 56.8557 58.8676 56.8628 58.8676C58.0749 59.1885 59.3869 59.659 60.4493 60.315L60.5562 80.9707Z" fill="#EF758D"/>
<path d="M23.8101 59.1065L38.4972 55.247H43.5617L56.8435 58.8612C50.0515 65.2283 33.1925 70.4475 24.5687 59.4024L23.8101 59.1065Z" fill="#E8B499"/>
<path d="M45.4543 42.0792C45.4543 42.0792 43.5534 43.8239 41.8201 44.2524C40.0868 44.681 38.3991 43.3683 38.3777 43.3526C38.3563 43.3369 36.3507 41.8339 36.3507 41.8339L35.5378 56.2915L35.7624 56.5325C38.7064 59.694 42.9452 59.7375 45.9142 56.6373L46.3484 56.1839L45.4543 42.0792Z" fill="#E8B499"/>
<path d="M23.8082 59.11L22.097 80.9707H8.22192C9.66932 77.5768 11.3663 73.4913 12.9278 69.4842C16.4429 60.4291 23.1166 59.217 23.7583 59.1172C23.7939 59.11 23.8082 59.11 23.8082 59.11Z" fill="#EF758D"/>
<path d="M73.369 80.9707H59.116L56.8416 58.8605C56.8487 58.8605 56.8558 58.8676 56.8629 58.8676C57.3264 58.9247 64.7416 60.0868 68.5705 69.4842C70.2817 73.691 71.9929 77.748 73.369 80.9707Z" fill="#EF758D"/>
<path d="M40.9972 69.5513C53.5532 69.0201 61.6822 61.2177 61.6822 61.2177C60.848 57.8566 56.8323 55.247 56.8323 55.247C56.8323 55.247 57.3635 53.0688 56.1015 51.3376C54.8395 49.6064 56.7325 47.0596 58.5207 39.9238C60.3089 32.7881 58.8366 21.3914 54.314 13.5484C49.7964 5.71316 40.7156 6.31493 40.697 6.31636C40.6785 6.31493 31.5977 5.71316 27.0801 13.5484C22.5575 21.3914 21.0851 32.7874 22.8734 39.9238C24.6616 47.0596 26.5546 49.6064 25.2926 51.3376C24.0306 53.0695 24.561 55.247 24.561 55.247C24.561 55.247 20.5447 57.8566 19.7112 61.2177C19.7112 61.2177 27.8401 69.0194 40.3961 69.5513V69.5769C40.4974 69.5748 40.5965 69.5677 40.6977 69.5641C40.799 69.5677 40.8974 69.5748 40.9993 69.5769L40.9972 69.5513Z" fill="#28466D"/>
<path d="M54.4794 28.2559C56.3005 20.8572 51.7789 13.383 44.3802 11.5619C36.9815 9.74084 29.5074 14.2624 27.6863 21.6611C25.8652 29.0598 30.3868 36.5339 37.7854 38.355C45.1841 40.1761 52.6583 35.6546 54.4794 28.2559Z" fill="#28466D"/>
<path d="M34.9817 39.9238C34.9817 39.9238 37.4202 48.3722 41.7716 48.2895C45.3488 48.221 46.342 40.3438 46.342 40.3438L34.9817 39.9238Z" fill="#1E0B02"/>
<path d="M53.0696 25.0976C53.0939 29.8498 52.4051 33.9545 51.7121 36.8693C51.0333 39.7227 49.0925 41.7234 46.3438 43.3405L45.8433 43.635C42.935 45.3455 39.1668 45.4047 36.1971 43.7847C33.2018 42.1512 31.0998 39.9887 30.441 36.9342C29.2424 31.3784 29.0834 25.2188 29.0834 25.2188C29.0834 25.2188 28.0817 12.3641 41.0191 12.5316C53.9552 12.6992 53.0696 25.0976 53.0696 25.0976Z" fill="#E8B499"/>
<path d="M40.0359 32.1378V34.0201H41.305" stroke="#C47268" stroke-width="0.6887" stroke-miterlimit="10" stroke-linecap="round" stroke-linejoin="round"/>
<path d="M31.249 24.9906L38.0889 24.3739C38.0889 24.3739 37.4764 22.6014 34.7107 22.8894C31.8815 23.1839 31.249 24.9906 31.249 24.9906Z" fill="black"/>
<path d="M50.0515 24.9906L43.2117 24.3739C43.2117 24.3739 43.8241 22.6014 46.5899 22.8894C49.4198 23.1839 50.0515 24.9906 50.0515 24.9906Z" fill="black"/>
<path d="M36.9358 35.7563H44.4045C44.4045 35.7563 44.1179 37.7042 40.5365 37.7042C37.5967 37.7042 36.9358 35.7563 36.9358 35.7563Z" fill="white"/>
<path d="M37.2838 29.6031C37.2838 29.6031 35.5141 28.1557 33.9612 29.6031" stroke="#1E0B02" stroke-width="0.9565" stroke-miterlimit="10" stroke-linecap="round" stroke-linejoin="round"/>
<path d="M47.2809 29.6031C47.2809 29.6031 45.8949 28.1186 44.0425 29.6031" stroke="#1E0B02" stroke-width="0.9565" stroke-miterlimit="10" stroke-linecap="round" stroke-linejoin="round"/>
<path opacity="0.23" d="M33.9684 24.8744L38.9815 31.6808C38.9815 31.6808 37.4692 34.5713 35.0607 34.2497L30.0005 27.6095C30.0005 27.6095 31.3695 24.6905 33.9684 24.8744Z" fill="white"/>
<path opacity="0.23" d="M46.2997 24.8744L51.3128 31.6808C51.3128 31.6808 49.8005 34.5713 47.392 34.2497L42.3318 27.6095C42.3318 27.6095 43.7 24.6905 46.2997 24.8744Z" fill="white"/>
<path d="M39.38 29.6031C39.38 32.3103 37.1854 34.505 34.4781 34.505C31.7708 34.505 29.5762 32.3103 29.5762 29.6031C29.5762 26.8958 31.7708 24.7012 34.4781 24.7012C37.1854 24.7012 39.38 26.8958 39.38 29.6031Z" stroke="white" stroke-width="0.4927" stroke-miterlimit="10"/>
<path d="M51.7249 29.6031C51.7249 32.3103 49.5303 34.505 46.823 34.505C44.1158 34.505 41.9211 32.3103 41.9211 29.6031C41.9211 26.8958 44.1158 24.7012 46.823 24.7012C49.5303 24.7012 51.7249 26.8958 51.7249 29.6031Z" stroke="white" stroke-width="0.4927" stroke-miterlimit="10"/>
<path d="M39.3801 29.6031C39.3801 29.6031 40.7805 29.0876 41.9206 29.6031" stroke="white" stroke-width="0.4927" stroke-miterlimit="10"/>
<path d="M53.0699 22.1757C51.7544 10.0539 43.6483 10.4126 40.4533 11.0414C37.259 10.4126 29.1522 10.0539 27.8367 22.1757C27.8367 22.1757 30.8334 21.6046 34.0869 19.9048C38.059 17.8292 42.8468 17.8292 46.8197 19.9048C50.0731 21.6053 53.0699 22.1757 53.0699 22.1757Z" fill="#28466D"/>
</g>
</svg>
