<svg width="83" height="82" viewBox="0 0 83 82" fill="none" xmlns="http://www.w3.org/2000/svg">
<path d="M80.8207 50.4246C86.0618 28.7859 72.7688 6.99551 51.1301 1.75448C29.4913 -3.48655 7.70097 9.80643 2.45994 31.4452C-2.78109 53.0839 10.5119 74.8742 32.1506 80.1153C53.7893 85.3563 75.5797 72.0634 80.8207 50.4246Z" fill="#FFB2BF"/>
<mask id="mask0_191_5811" style="mask-type:luminance" maskUnits="userSpaceOnUse" x="1" y="0" width="81" height="82">
<path d="M81.9666 40.5818C81.665 18.1769 63.3658 0.201326 41.0942 0.432282C18.8226 0.663237 1.01241 19.0133 1.31401 41.4182C1.61561 63.8231 19.9148 81.7987 42.1864 81.5677C64.458 81.3368 82.2682 62.9868 81.9666 40.5818Z" fill="white"/>
</mask>
<g mask="url(#mask0_191_5811)">
<path d="M68.8387 68.7622C67.5332 65.6388 63.5418 61.5361 55.8114 60.448L41.403 57.9089L26.9946 60.448C19.2635 61.5361 15.2728 65.6388 13.9673 68.7622L10.9478 81H24.1697H25.1358H41.403H57.6702H58.6363H71.8583L68.8387 68.7622Z" fill="#D3445B"/>
<path d="M26.5454 60.5811L42.1709 57.7374L56.7511 60.5421L56.4274 60.7507C47.5184 66.5061 35.5271 66.2443 26.5454 60.5811Z" fill="#966050"/>
<path d="M33.6099 39.8314C33.6997 41.9205 31.8858 43.68 29.5586 43.7606C27.2313 43.8413 25.2713 42.213 25.1814 40.1239C25.0916 38.0347 26.9055 36.2753 29.2327 36.1946C31.5607 36.1133 33.52 37.7416 33.6099 39.8314Z" fill="#7C483D"/>
<path d="M26.9956 39.4672C26.9956 39.4672 28.664 38.7183 30.2925 41.3188" stroke="black" stroke-width="0.6612" stroke-miterlimit="10" stroke-linecap="round" stroke-linejoin="round"/>
<path d="M49.008 39.7955C49.0323 41.8866 50.9395 43.5635 53.2689 43.5424C55.5983 43.5206 57.4664 41.8085 57.4429 39.7174C57.4186 37.6264 55.5113 35.9495 53.182 35.9706C50.8526 35.9923 48.9845 37.7051 49.008 39.7955Z" fill="#7C483D"/>
<path d="M55.5947 39.142C55.5947 39.142 53.8878 38.4674 52.4026 41.1364" stroke="black" stroke-width="0.6612" stroke-miterlimit="10" stroke-linecap="round" stroke-linejoin="round"/>
<path d="M41.2059 42.8079C49.2166 42.7338 55.6481 37.2325 55.5711 30.5204C55.494 23.8083 48.9377 18.4271 40.927 18.5012C32.9163 18.5753 26.4848 24.0765 26.5618 30.7886C26.6388 37.5008 33.1952 42.8819 41.2059 42.8079Z" fill="black"/>
<path d="M45.4659 47.3859C45.4659 47.3859 43.6591 48.9066 42 49.2913C40.3408 49.676 38.7087 48.5604 38.6873 48.5463C38.6667 48.5328 36.7273 47.2553 36.7273 47.2553L36.0906 59.7222L36.3088 59.9283C39.1651 62.6261 43.2327 62.6267 46.0512 59.9283L46.4634 59.5334L45.4659 47.3859Z" fill="#966050"/>
<path d="M35.3945 45.6213C35.3945 45.6213 37.818 52.88 41.9934 52.77C45.4258 52.6797 46.2999 45.8824 46.2999 45.8824L35.3945 45.6213Z" fill="#1E0B02"/>
<path d="M52.6129 32.6833C52.6828 36.7783 52.0632 40.3223 51.4258 42.8396C50.8026 45.3044 48.9595 47.0466 46.3364 48.4643L45.8586 48.7223C43.0836 50.2226 39.4666 50.3064 36.5996 48.9374C33.7083 47.5561 31.6684 45.7115 31.0053 43.0847C29.7996 38.3074 29.5857 33.0007 29.5857 33.0007C29.5857 33.0007 28.497 21.9317 40.9182 21.9612C53.3409 21.9913 52.6129 32.6833 52.6129 32.6833Z" fill="#966050"/>
<path d="M40.166 38.461L40.1846 40.0618L41.4031 40.0503" stroke="#684138" stroke-miterlimit="10" stroke-linecap="round" stroke-linejoin="round"/>
<path d="M31.6641 32.7857L38.2244 32.1937C38.2244 32.1937 37.6191 30.6716 34.9667 30.9443C32.2537 31.2221 31.6641 32.7857 31.6641 32.7857Z" fill="black"/>
<path d="M49.7153 32.618L43.1428 32.1476C43.1428 32.1476 43.7132 30.6146 46.3706 30.838C49.09 31.0665 49.7153 32.618 49.7153 32.618Z" fill="black"/>
<path d="M36.8057 36.3239C36.8114 36.8225 36.3658 37.2302 35.811 37.2353C35.2563 37.2404 34.8014 36.8404 34.7957 36.3425C34.79 35.8439 35.2349 35.4361 35.7903 35.431C36.3451 35.4259 36.8 35.8259 36.8057 36.3239Z" fill="#1E0B02"/>
<path d="M46.6665 36.2324C46.6722 36.731 46.2266 37.1387 45.6719 37.1438C45.1164 37.1489 44.6623 36.7489 44.6565 36.2509C44.6508 35.7523 45.0958 35.3446 45.6512 35.3395C46.2059 35.3344 46.6608 35.7344 46.6665 36.2324Z" fill="#1E0B02"/>
<path d="M37.1357 42.3621C37.1357 42.3621 39.9421 43.7011 44.4269 42.2949" stroke="black" stroke-width="0.6612" stroke-miterlimit="10" stroke-linecap="round" stroke-linejoin="round"/>
<path d="M52.5843 30.1653C52.5843 30.1653 34.3128 30.9494 34.973 21.3198C34.973 21.3198 50.8552 17.1198 52.5843 30.1653Z" fill="black"/>
<path d="M29.2855 30.3893C29.2855 30.3893 35.679 27.9175 35.6112 22.0098C35.6112 22.0098 29.0366 22.7516 29.2855 30.3893Z" fill="black"/>
<path d="M40.6303 19.9975C45.3505 19.9975 49.1771 16.5625 49.1771 12.3252C49.1771 8.08793 45.3505 4.65294 40.6303 4.65294C35.91 4.65294 32.0835 8.08793 32.0835 12.3252C32.0835 16.5625 35.91 19.9975 40.6303 19.9975Z" fill="black"/>
<path d="M40.2816 17.1934C40.2816 19.5744 38.0107 21.5048 35.2093 21.5048C32.4079 21.5048 30.137 19.5744 30.137 17.1934C30.137 14.8124 32.4079 12.8821 35.2093 12.8821C38.0107 12.8821 40.2816 14.8124 40.2816 17.1934Z" fill="black"/>
<path d="M47.115 22.3113C49.6148 22.3113 51.6412 20.4922 51.6412 18.2482C51.6412 16.0043 49.6148 14.1852 47.115 14.1852C44.6153 14.1852 42.5889 16.0043 42.5889 18.2482C42.5889 20.4922 44.6153 22.3113 47.115 22.3113Z" fill="black"/>
</g>
</svg>
