<svg width="81" height="82" viewBox="0 0 81 82" fill="none" xmlns="http://www.w3.org/2000/svg">
<path d="M40.5384 81.3239C62.8026 81.3239 80.8513 63.2752 80.8513 41.011C80.8513 18.7468 62.8026 0.698135 40.5384 0.698135C18.2743 0.698135 0.225586 18.7468 0.225586 41.011C0.225586 63.2752 18.2743 81.3239 40.5384 81.3239Z" fill="#B2DAFF"/>
<mask id="mask0_36_705" style="mask-type:luminance" maskUnits="userSpaceOnUse" x="0" y="0" width="81" height="82">
<path d="M40.5384 81.3239C62.8026 81.3239 80.8513 63.2752 80.8513 41.011C80.8513 18.7468 62.8026 0.698135 40.5384 0.698135C18.2743 0.698135 0.225586 18.7468 0.225586 41.011C0.225586 63.2752 18.2743 81.3239 40.5384 81.3239Z" fill="white"/>
</mask>
<g mask="url(#mask0_36_705)">
<path d="M80.0697 83.4642H2.28809C5.8745 67.3645 15.5001 64.1489 15.5001 64.1489L34.0524 55.4716L41.0826 55.4075H41.2751L48.3125 55.4716L66.8649 64.1489C66.8649 64.1489 76.4833 67.3645 80.0697 83.4642Z" fill="white"/>
<path d="M45.4292 9.22333C45.4292 9.22333 51.9026 6.33852 54.1977 11.793C56.4066 17.0443 47.6331 22.0481 47.6331 22.0481L45.4292 9.22333Z" fill="#1E0B02"/>
<path d="M33.3217 30.9942C33.3901 33.4191 31.48 35.4412 29.0551 35.5097C26.6302 35.5781 24.6081 33.668 24.5396 31.243C24.4712 28.8181 26.3813 26.796 28.8062 26.7276C31.2312 26.6591 33.2525 28.5693 33.3217 30.9942Z" fill="#C67D69"/>
<path d="M26.4363 30.5015C26.4363 30.5015 28.1831 29.6509 29.848 32.6855" stroke="#A8523F" stroke-width="0.7482" stroke-miterlimit="10" stroke-linecap="round" stroke-linejoin="round"/>
<path d="M53.7529 35.5111C56.179 35.5111 58.1457 33.5443 58.1457 31.1183C58.1457 28.6922 56.179 26.7254 53.7529 26.7254C51.3268 26.7254 49.3601 28.6922 49.3601 31.1183C49.3601 33.5443 51.3268 35.5111 53.7529 35.5111Z" fill="#C67D69"/>
<path d="M56.2284 30.4309C56.2284 30.4309 54.458 29.6302 52.8801 32.7104" stroke="#A8523F" stroke-width="0.7482" stroke-miterlimit="10" stroke-linecap="round" stroke-linejoin="round"/>
<path d="M46.9773 41.2408C46.9773 41.2408 44.5003 42.9884 42.2436 43.4197C39.987 43.8511 37.7924 42.5413 37.7646 42.5249C37.7367 42.5092 35.1293 41.0091 35.1293 41.0091L34.0498 55.4681L34.3421 55.7091C38.1688 58.8655 43.6853 58.9033 47.5548 55.7989L48.1209 55.3447L46.9773 41.2408Z" fill="#C67D69"/>
<path d="M34.0498 39.4889C34.0498 39.4889 36.5111 47.5459 42.1752 47.4567C46.8311 47.3833 47.5819 39.4889 47.5819 39.4889H34.0498Z" fill="#1E0B02"/>
<path d="M53.203 23.4713C53.228 28.4367 52.5406 32.7254 51.8476 35.7699C51.1695 38.751 49.2295 40.8415 46.4808 42.5306L45.9803 42.8379C43.0726 44.6247 39.3044 44.6853 36.3341 42.9926C33.3387 41.2857 31.2361 39.0255 30.5758 35.8334C29.3759 30.0281 29.2154 23.5925 29.2154 23.5925C29.2154 23.5925 27.5292 10.1609 40.4659 10.3392C53.4041 10.5174 53.203 23.4713 53.203 23.4713Z" fill="#C67D69"/>
<path d="M35.629 28.4573C36.207 28.4573 36.6757 27.9887 36.6757 27.4106C36.6757 26.8326 36.207 26.364 35.629 26.364C35.0509 26.364 34.5823 26.8326 34.5823 27.4106C34.5823 27.9887 35.0509 28.4573 35.629 28.4573Z" fill="#1E0B02"/>
<path d="M45.9012 28.4573C46.4792 28.4573 46.9479 27.9887 46.9479 27.4106C46.9479 26.8326 46.4792 26.364 45.9012 26.364C45.3231 26.364 44.8545 26.8326 44.8545 27.4106C44.8545 27.9887 45.3231 28.4573 45.9012 28.4573Z" fill="#1E0B02"/>
<path d="M39.8157 28.9393V31.827H41.6809" stroke="#A8523F" stroke-width="0.7482" stroke-miterlimit="10" stroke-linecap="round" stroke-linejoin="round"/>
<path d="M31.7288 22.9865L38.5693 22.3697C38.5693 22.3697 37.9568 20.5972 35.1911 20.8845C32.3612 21.179 31.7288 22.9865 31.7288 22.9865Z" fill="black"/>
<path d="M49.3601 22.9865L42.5203 22.3697C42.5203 22.3697 43.1327 20.5972 45.8985 20.8845C48.7277 21.179 49.3601 22.9865 49.3601 22.9865Z" fill="black"/>
<path d="M37.4741 34.2184H44.222C44.222 34.2184 43.9047 36.2854 40.7482 36.2854C37.5911 36.2854 37.4741 34.2184 37.4741 34.2184Z" fill="white"/>
<path d="M29.6569 29.9489C29.6569 29.9489 31.5721 15.4222 30.6352 13.0286C30.6352 13.0286 24.1197 18.4182 29.6569 29.9489Z" fill="#1E0B02"/>
<path d="M52.7148 29.832C52.7148 29.832 50.5594 15.9598 51.1569 11.9684C51.1569 11.9684 57.4492 17.5412 52.7148 29.832Z" fill="#1E0B02"/>
<path d="M50.7068 10.9795L44.7418 10.0775L44.2163 9.04579L41.0684 9.52208L37.9205 9.04579L37.395 10.0775L31.4307 10.9795L30.635 14.1709L30.8311 17.85C30.8311 17.85 31.7751 13.6768 35.062 14.5081C35.8371 14.7042 36.7647 15.0286 37.8499 15.2475C38.8631 15.4685 39.8292 15.5684 40.7397 15.584C40.8474 15.5869 40.9593 15.584 41.0684 15.5848C41.1782 15.584 41.2894 15.5869 41.3971 15.584C42.3083 15.5684 43.2737 15.4685 44.2869 15.2475C45.3714 15.0286 46.3197 14.7705 47.0747 14.5081C50.1214 13.4479 51.2437 17.6596 51.2437 17.6596L51.5018 14.1709L50.7068 10.9795Z" fill="#1E0B02"/>
<path d="M50.5879 14.6101C50.5879 14.6101 46.7084 18.0717 41.7381 15.4122C41.7381 15.4122 29.0936 23.2018 25.5244 14.722C22.549 7.65259 34.9003 -1.94088 47.6439 8.86969L50.5879 14.6101Z" fill="#1E0B02"/>
<path d="M34.0495 55.4688L29.9048 57.3732C29.9048 57.3732 29.8599 64.3222 41.1225 63.9614C52.671 63.592 52.6026 57.478 52.6026 57.478L48.1199 55.3447L34.0495 55.4688Z" fill="#C67D69"/>
</g>
</svg>
