<svg width="81" height="82" viewBox="0 0 81 82" fill="none" xmlns="http://www.w3.org/2000/svg">
<path d="M40.4943 81.3252C62.7585 81.3252 80.8072 63.2766 80.8072 41.0124C80.8072 18.7482 62.7585 0.699478 40.4943 0.699478C18.2301 0.699478 0.181396 18.7482 0.181396 41.0124C0.181396 63.2766 18.2301 81.3252 40.4943 81.3252Z" fill="#FFB3BF"/>
<mask id="mask0_36_621" style="mask-type:luminance" maskUnits="userSpaceOnUse" x="0" y="0" width="81" height="82">
<path d="M40.4943 81.3252C62.7585 81.3252 80.8072 63.2766 80.8072 41.0124C80.8072 18.7482 62.7585 0.699478 40.4943 0.699478C18.2301 0.699478 0.181396 18.7482 0.181396 41.0124C0.181396 63.2766 18.2301 81.3252 40.4943 81.3252Z" fill="white"/>
</mask>
<g mask="url(#mask0_36_621)">
<path d="M28.4576 20.6143C28.4576 20.6143 26.6373 31.002 14.139 38.5442C0.812994 46.5855 8.4072 72.1374 31.7417 72.6999C57.0897 73.311 69.9723 41.6429 55.3214 15.7794L28.4576 20.6143Z" fill="#D46919"/>
<path d="M70.5521 65.0787C69.2466 61.5992 65.2552 57.0288 57.5248 55.8167L43.1164 52.9882L28.708 55.8167C20.9769 57.0288 16.9862 61.5992 15.6807 65.0787L12.6611 78.7113H25.8831L26.8478 79.8129L42.8904 82.9701L59.3843 78.7106H60.3504H73.5724L70.5521 65.0787Z" fill="white"/>
<path d="M28.2588 55.965L43.8843 52.7972L58.4645 55.9215L58.1408 56.154C49.2318 62.5653 37.2405 62.2744 28.2588 55.965Z" fill="#E0A78F"/>
<path d="M35.3232 32.8502C35.4131 35.1774 33.5992 37.1375 31.2719 37.2273C28.9447 37.3171 26.9846 35.5032 26.8948 33.176C26.805 30.8488 28.6188 28.8887 30.9461 28.7989C33.2733 28.709 35.2334 30.5229 35.3232 32.8502Z" fill="#E0A78F"/>
<path d="M28.7087 32.4452C28.7087 32.4452 30.3772 31.611 32.005 34.5079" stroke="#B9635E" stroke-width="0.6612" stroke-miterlimit="10" stroke-linecap="round" stroke-linejoin="round"/>
<path d="M50.7212 32.8102C50.7454 35.1396 52.6527 37.0077 54.9821 36.9842C57.3115 36.9599 59.1796 35.0526 59.156 32.7233C59.1318 30.3939 57.2245 28.5258 54.8951 28.5493C52.5657 28.5736 50.6969 30.4816 50.7212 32.8102Z" fill="#E0A78F"/>
<path d="M57.3078 32.0822C57.3078 32.0822 55.6009 31.3307 54.1157 34.304" stroke="#B9635E" stroke-width="0.6612" stroke-miterlimit="10" stroke-linecap="round" stroke-linejoin="round"/>
<path d="M42.9332 36.1726C50.9439 36.0901 57.3754 29.9617 57.2984 22.4846C57.2213 15.0074 50.665 9.01287 42.6543 9.09538C34.6436 9.1779 28.2121 15.3062 28.2891 22.7834C28.3661 30.2605 34.9225 36.2551 42.9332 36.1726Z" fill="#D46919"/>
<path d="M47.1783 41.2657C47.1783 41.2657 45.3715 42.9599 43.7124 43.3884C42.0532 43.8169 40.4211 42.5734 40.3998 42.5584C40.3791 42.5435 38.4397 41.1203 38.4397 41.1203L37.8037 55.0082L38.0219 55.2378C40.8782 58.2431 44.9459 58.2431 47.7644 55.2378L48.1765 54.7979L47.1783 41.2657Z" fill="#E0A78F"/>
<path d="M37.1077 39.3C37.1077 39.3 39.5312 47.3862 43.7065 47.2635C47.1382 47.163 48.0138 39.5909 48.0138 39.5909L37.1077 39.3Z" fill="#1E0B02"/>
<path d="M54.3261 24.8873C54.396 29.4491 53.7764 33.3963 53.1396 36.2013C52.5165 38.947 50.6734 40.8878 48.0502 42.4672L47.5725 42.7545C44.7975 44.4258 41.1804 44.5192 38.3134 42.9941C35.4222 41.4554 33.3823 39.4005 32.7192 36.4744C31.5135 31.1525 31.2996 25.241 31.2996 25.241C31.2996 25.241 30.2109 12.9103 42.6321 12.9431C55.0541 12.9766 54.3261 24.8873 54.3261 24.8873Z" fill="#E0A78F"/>
<path d="M41.8792 31.3236L41.897 33.1068L43.1155 33.0947" stroke="#B9635E" stroke-width="0.6612" stroke-miterlimit="10" stroke-linecap="round" stroke-linejoin="round"/>
<path d="M33.3772 25.0014L39.9375 24.3419C39.9375 24.3419 39.3322 22.6464 36.6798 22.9501C33.9661 23.2603 33.3772 25.0014 33.3772 25.0014Z" fill="#D46919"/>
<path d="M51.4277 24.8153L44.8552 24.2913C44.8552 24.2913 45.4256 22.5836 48.083 22.8325C50.8031 23.0863 51.4277 24.8153 51.4277 24.8153Z" fill="#D46919"/>
<path d="M38.5188 28.9429C38.5245 29.4983 38.0789 29.9525 37.5242 29.9582C36.9694 29.9639 36.5145 29.5183 36.5088 28.9636C36.5031 28.4082 36.9488 27.954 37.5035 27.9483C38.0582 27.9426 38.5124 28.3882 38.5188 28.9429Z" fill="#1E0B02"/>
<path d="M48.3796 28.8417C48.3853 29.3971 47.9397 29.8513 47.385 29.857C46.8296 29.8627 46.3754 29.417 46.3697 28.8623C46.364 28.3069 46.8096 27.8527 47.3643 27.847C47.919 27.8406 48.3739 28.2862 48.3796 28.8417Z" fill="#1E0B02"/>
<path d="M38.8489 35.6694C38.8489 35.6694 41.656 37.161 46.1401 35.5945" stroke="black" stroke-width="0.6612" stroke-miterlimit="10" stroke-linecap="round" stroke-linejoin="round"/>
<path d="M54.2969 22.0831C54.2969 22.0831 36.0254 22.9565 36.6857 12.2294C36.6857 12.2294 52.5686 7.54992 54.2969 22.0831Z" fill="#D46919"/>
<path d="M30.9981 22.3319C30.9981 22.3319 37.3916 19.5783 37.3238 12.9966C37.3238 12.9966 30.7499 13.8244 30.9981 22.3319Z" fill="#D46919"/>
<mask id="mask1_36_621" style="mask-type:luminance" maskUnits="userSpaceOnUse" x="12" y="55" width="62" height="24">
<path d="M70.5518 65.1821C69.2962 61.8003 65.5458 57.4075 58.3837 55.9864L58.1406 56.1633C49.2316 62.6423 37.2403 62.3479 28.2578 55.9722L28.707 55.8224C20.9759 57.0474 16.9852 61.6662 15.6797 65.1821L12.6602 78.9587H25.8821H26.8482H43.1154H59.3826H60.3487H73.5707L70.5518 65.1821Z" fill="white"/>
</mask>
<g mask="url(#mask1_36_621)">
<path d="M10.9104 57.4916H74.8769" stroke="#EF758D" stroke-miterlimit="10"/>
<path d="M10.9104 60.8313H74.8769" stroke="#EF758D" stroke-miterlimit="10"/>
<path d="M10.9104 64.1717H74.8769" stroke="#EF758D" stroke-miterlimit="10"/>
<path d="M10.9104 67.5114H74.8769" stroke="#EF758D" stroke-miterlimit="10"/>
<path d="M10.9104 70.8511H74.8769" stroke="#EF758D" stroke-miterlimit="10"/>
<path d="M10.9104 74.1916H74.8769" stroke="#EF758D" stroke-miterlimit="10"/>
<path d="M10.9104 77.5313H74.8769" stroke="#EF758D" stroke-miterlimit="10"/>
</g>
</g>
</svg>
