<svg width="81" height="82" viewBox="0 0 81 82" fill="none" xmlns="http://www.w3.org/2000/svg">
<path d="M40.4528 81.4552C62.717 81.4552 80.7657 63.4065 80.7657 41.1424C80.7657 18.8782 62.717 0.829468 40.4528 0.829468C18.1886 0.829468 0.139893 18.8782 0.139893 41.1424C0.139893 63.4065 18.1886 81.4552 40.4528 81.4552Z" fill="#B2DAFF"/>
<mask id="mask0_36_737" style="mask-type:luminance" maskUnits="userSpaceOnUse" x="0" y="0" width="81" height="82">
<path d="M40.4528 81.4552C62.717 81.4552 80.7657 63.4065 80.7657 41.1424C80.7657 18.8782 62.717 0.829468 40.4528 0.829468C18.1886 0.829468 0.139893 18.8782 0.139893 41.1424C0.139893 63.4065 18.1886 81.4552 40.4528 81.4552Z" fill="white"/>
</mask>
<g mask="url(#mask0_36_737)">
<path d="M32.4123 6.82454C32.4123 6.82454 38.075 -0.838124 48.1084 4.27483C59.1086 9.88047 53.1643 21.9638 53.1643 21.9638L29.5247 17.4854L32.4123 6.82454Z" fill="#1E0B02"/>
<path d="M27.6844 22.0229C27.6844 22.0229 21.5005 9.88047 32.4123 6.82454L34.3738 13.3371L27.6844 22.0229Z" fill="#1E0B02"/>
<path d="M32.9269 27.6272C32.9954 30.0521 31.0852 32.0742 28.6603 32.1426C26.2354 32.2111 24.2133 30.3009 24.1449 27.876C24.0764 25.4511 25.9865 23.429 28.4122 23.3605C30.8364 23.2914 32.8585 25.2022 32.9269 27.6272Z" fill="#E8B499"/>
<path d="M26.0415 27.1338C26.0415 27.1338 27.7884 26.2831 29.4532 29.3177" stroke="#C47268" stroke-width="0.6887" stroke-miterlimit="10" stroke-linecap="round" stroke-linejoin="round"/>
<path d="M48.9653 27.7512C48.9653 30.1776 50.9318 32.144 53.3581 32.144C55.7845 32.144 57.751 30.1776 57.751 27.7512C57.751 25.3249 55.7845 23.3584 53.3581 23.3584C50.9325 23.3584 48.9653 25.3249 48.9653 27.7512Z" fill="#E8B499"/>
<path d="M55.8336 27.0632C55.8336 27.0632 54.0632 26.2617 52.4854 29.3426" stroke="#C47268" stroke-width="0.6887" stroke-miterlimit="10" stroke-linecap="round" stroke-linejoin="round"/>
<path d="M46.5825 37.8737C46.5825 37.8737 44.1055 39.6213 41.8489 40.0527C39.5922 40.484 37.3976 39.1743 37.3698 39.1579C37.342 39.1422 34.7345 37.642 34.7345 37.642L33.655 52.101L33.9474 52.342C37.7741 55.4985 43.2906 55.5363 47.16 52.4319L47.7262 51.9777L46.5825 37.8737Z" fill="#E8B499"/>
<path d="M33.655 36.1219C33.655 36.1219 36.1163 44.1788 41.7804 44.0897C46.4363 44.0163 47.1871 36.1219 47.1871 36.1219H33.655Z" fill="#1E0B02"/>
<path d="M52.8085 20.1035C52.8335 25.0689 52.1461 29.3576 51.4538 32.4021C50.7758 35.3832 48.1533 37.4737 45.4054 39.1621L44.9049 39.4694C41.9972 41.2562 39.593 41.3168 36.6226 39.6242C33.6273 37.9172 30.8423 35.657 30.1828 32.4649C28.9828 26.6596 28.8223 20.224 28.8223 20.224C28.8223 20.224 27.1361 6.79245 40.0728 6.9707C53.0096 7.15038 52.8085 20.1035 52.8085 20.1035Z" fill="#E8B499"/>
<path d="M36.2816 24.0436C36.2816 24.6218 35.8132 25.0903 35.2349 25.0903C34.6567 25.0903 34.1882 24.6218 34.1882 24.0436C34.1882 23.4654 34.6574 22.9969 35.2349 22.9969C35.8125 22.9969 36.2816 23.4654 36.2816 24.0436Z" fill="#1E0B02"/>
<path d="M46.5531 24.0436C46.5531 24.6218 46.0847 25.0903 45.5064 25.0903C44.9282 25.0903 44.4597 24.6218 44.4597 24.0436C44.4597 23.4654 44.9289 22.9969 45.5064 22.9969C46.0847 22.9969 46.5531 23.4654 46.5531 24.0436Z" fill="#1E0B02"/>
<path d="M39.4211 26.7822V28.4599H40.7794" stroke="#C47268" stroke-width="0.6887" stroke-miterlimit="10" stroke-linecap="round" stroke-linejoin="round"/>
<path d="M31.3342 19.6187L38.1741 19.0019C38.1741 19.0019 37.5616 17.2294 34.7959 17.5168C31.9667 17.8112 31.3342 19.6187 31.3342 19.6187Z" fill="black"/>
<path d="M48.9653 19.6187L42.1255 19.0019C42.1255 19.0019 42.738 17.2294 45.5037 17.5168C48.3329 17.8112 48.9653 19.6187 48.9653 19.6187Z" fill="black"/>
<path d="M37.0796 30.8506H43.8275C43.8275 30.8506 43.5102 32.9176 40.3537 32.9176C37.1965 32.9184 37.0796 30.8506 37.0796 30.8506Z" fill="white"/>
<path d="M29.2621 26.5812C29.2621 26.5812 29.769 10.1286 29.5587 9.66087C29.5587 9.66087 23.7249 15.0505 29.2621 26.5812Z" fill="#1E0B02"/>
<path d="M52.3206 26.4642L51.4451 8.60063C51.4451 8.60063 57.0543 14.1742 52.3206 26.4642Z" fill="#1E0B02"/>
<path d="M34.6752 8.2035C34.6752 8.2035 30.6617 9.29083 30.7986 13.2316C30.9355 17.1724 28.2703 21.0454 28.2703 21.0454L27.0532 17.1075C27.0532 17.1075 26.1134 9.76854 34.6752 8.2035Z" fill="#1E0B02"/>
<path d="M33.6629 8.52934C33.6629 8.52934 36.6682 6.82454 39.6515 10.5757C42.199 13.7792 48.9169 17.0783 52.8941 13.9382C52.8941 13.9382 50.3608 4.87091 40.4764 5.05557C30.592 5.24024 33.6629 8.52934 33.6629 8.52934Z" fill="#1E0B02"/>
<path d="M74.565 82.5848H6.54443C7.78506 77.4369 9.06134 72.8594 10.3234 69.2944C12.1914 64.0324 14.8795 60.9523 17.104 59.1983C19.3215 57.4371 21.0755 56.9951 21.0755 56.9951L25.7955 55.0201L55.6562 55.0486L60.034 56.9951C60.034 56.9951 67.05 58.7633 70.7861 69.2944C72.0481 72.8594 73.3244 77.4369 74.565 82.5848Z" fill="#EF758D"/>
<path d="M41.0858 48.7306L55.6589 55.0479C55.6589 55.0479 40.6858 68.5793 25.7969 55.0179L41.0858 48.7306Z" fill="#E8B499"/>
<path d="M25.7969 55.0179C25.7969 55.0179 30.9847 61.1562 40.6901 61.1562C50.3955 61.1562 55.6589 55.0486 55.6589 55.0486" stroke="white" stroke-width="1.9384" stroke-miterlimit="10"/>
</g>
</svg>
