<svg width="82" height="82" viewBox="0 0 82 82" fill="none" xmlns="http://www.w3.org/2000/svg">
<path d="M41.0767 81.1092C63.3411 81.1092 81.3899 63.0604 81.3899 40.796C81.3899 18.5316 63.3411 0.482727 41.0767 0.482727C18.8123 0.482727 0.763428 18.5316 0.763428 40.796C0.763428 63.0604 18.8123 81.1092 41.0767 81.1092Z" fill="#B2DAFF"/>
<mask id="mask0_36_803" style="mask-type:luminance" maskUnits="userSpaceOnUse" x="0" y="0" width="82" height="82">
<path d="M41.0767 81.1092C63.3411 81.1092 81.3899 63.0604 81.3899 40.796C81.3899 18.5316 63.3411 0.482727 41.0767 0.482727C18.8123 0.482727 0.763428 18.5316 0.763428 40.796C0.763428 63.0604 18.8123 81.1092 41.0767 81.1092Z" fill="white"/>
</mask>
<g mask="url(#mask0_36_803)">
<path d="M33.4489 27.569C33.5173 29.994 31.6072 32.016 29.1823 32.0845C26.7574 32.1529 24.7353 30.2428 24.6668 27.8179C24.5984 25.3929 26.5085 23.3709 28.9334 23.3024C31.3591 23.234 33.3804 25.1441 33.4489 27.569Z" fill="#E8B499"/>
<path d="M26.5642 27.0756C26.5642 27.0756 28.3111 26.225 29.9759 29.2596" stroke="#C47268" stroke-width="0.6887" stroke-miterlimit="10" stroke-linecap="round" stroke-linejoin="round"/>
<path d="M49.488 27.6931C49.488 30.1194 51.4545 32.0859 53.8808 32.0859C56.3072 32.0859 58.2737 30.1194 58.2737 27.6931C58.2737 25.2667 56.3072 23.3003 53.8808 23.3003C51.4545 23.3003 49.488 25.2675 49.488 27.6931Z" fill="#E8B499"/>
<path d="M56.3563 27.0058C56.3563 27.0058 54.5859 26.2043 53.0081 29.2852" stroke="#C47268" stroke-width="0.6887" stroke-miterlimit="10" stroke-linecap="round" stroke-linejoin="round"/>
<path d="M47.105 37.8156C47.105 37.8156 44.628 39.5632 42.3713 39.9945C40.1147 40.4259 37.9201 39.1161 37.8923 39.0997C37.8645 39.0841 35.257 37.5839 35.257 37.5839L34.1775 52.0429L34.4698 52.2839C38.2965 55.4404 43.813 55.4781 47.6825 52.3737L48.2486 51.9195L47.105 37.8156Z" fill="#E8B499"/>
<path d="M34.1775 36.0638C34.1775 36.0638 36.6388 44.1207 42.3029 44.0316C46.9588 43.9582 47.7096 36.0638 47.7096 36.0638H34.1775Z" fill="#1E0B02"/>
<path d="M53.6788 17.428C53.7038 22.3933 52.6678 29.3002 51.9754 32.3447C51.2974 35.3258 48.6749 37.4163 45.927 39.1047L45.4265 39.412C42.5189 41.1988 40.1146 41.2594 37.1442 39.5668C34.1489 37.8598 31.3639 35.5996 30.7044 32.4075C29.5044 26.6022 28.5925 23.3459 28.2695 20.2671C27.7383 15.1977 27.9465 4.29301 40.9431 4.29586C53.882 4.298 53.6788 17.428 53.6788 17.428Z" fill="#E8B499"/>
<path d="M36.8036 23.9855C36.8036 24.5637 36.3351 25.0322 35.7569 25.0322C35.1786 25.0322 34.7102 24.5637 34.7102 23.9855C34.7102 23.4072 35.1794 22.9388 35.7569 22.9388C36.3351 22.9388 36.8036 23.4072 36.8036 23.9855Z" fill="#1E0B02"/>
<path d="M47.0758 23.9855C47.0758 24.5637 46.6073 25.0322 46.0291 25.0322C45.4509 25.0322 44.9824 24.5637 44.9824 23.9855C44.9824 23.4072 45.4516 22.9388 46.0291 22.9388C46.6066 22.9388 47.0758 23.4072 47.0758 23.9855Z" fill="#1E0B02"/>
<path d="M39.9431 26.7241V28.4018H41.3021" stroke="#C47268" stroke-width="0.6887" stroke-miterlimit="10" stroke-linecap="round" stroke-linejoin="round"/>
<path d="M31.8569 19.5606L38.6968 18.9438C38.6968 18.9438 38.0843 17.1713 35.3186 17.4593C32.4887 17.7531 31.8569 19.5606 31.8569 19.5606Z" fill="black"/>
<path d="M49.488 19.5606L42.6475 18.9438C42.6475 18.9438 43.2599 17.1713 46.0257 17.4593C48.8556 17.7531 49.488 19.5606 49.488 19.5606Z" fill="black"/>
<path d="M75.087 82.5267H7.06641C8.30703 77.3788 9.5833 72.8013 10.8453 69.2363C12.7134 63.9743 15.4014 60.8941 17.626 59.1402C19.8434 57.379 21.5974 56.937 21.5974 56.937L26.3175 54.9619L56.1781 54.9905L60.556 56.937C60.556 56.937 67.5719 58.7052 71.3081 69.2363C72.5708 72.8013 73.8471 77.3788 75.087 82.5267Z" fill="white"/>
<path d="M41.6085 48.6725L56.1816 54.9897C56.1816 54.9897 41.2085 68.5211 26.3196 54.9598L41.6085 48.6725Z" fill="#E8B499"/>
<path d="M26.3196 54.9598C26.3196 54.9598 31.5074 61.0981 41.2128 61.0981C50.9182 61.0981 56.1816 54.9905 56.1816 54.9905" stroke="white" stroke-width="1.9384" stroke-miterlimit="10"/>
<path d="M52.3159 26.5316C52.3159 26.5316 52.087 26.4104 51.2849 27.6931C50.4827 28.9758 49.8332 32.4139 49.8332 32.4139C49.8332 32.4139 49.0724 30.8096 47.0653 29.7786C45.2329 28.8368 41.3841 29.358 40.7289 29.4556C39.7121 29.2788 37.3071 28.9822 35.7571 29.7786C33.7507 30.8096 32.9892 32.4139 32.9892 32.4139C32.9892 32.4139 32.3396 28.9765 31.5375 27.6931C30.7354 26.4097 30.5058 26.5316 30.5058 26.5316C30.5058 26.5316 30.0858 33.216 31.8812 37.1882C33.4576 40.6769 39.5053 42.1207 40.9435 42.192C40.9435 42.192 49.1452 41.161 50.9405 37.1882C52.7358 33.216 52.3159 26.5316 52.3159 26.5316Z" fill="#A74B22"/>
<path d="M37.6021 30.7932H44.3499C44.3499 30.7932 44.0326 32.8602 40.8762 32.8602C37.719 32.8602 37.6021 30.7932 37.6021 30.7932Z" fill="white"/>
</g>
</svg>
