<svg width="81" height="82" viewBox="0 0 81 82" fill="none" xmlns="http://www.w3.org/2000/svg">
<path d="M40.6389 81.4517C62.9028 81.4517 80.9513 63.4032 80.9513 41.1393C80.9513 18.8753 62.9028 0.826797 40.6389 0.826797C18.3749 0.826797 0.326416 18.8753 0.326416 41.1393C0.326416 63.4032 18.3749 81.4517 40.6389 81.4517Z" fill="#FFB2BF"/>
<mask id="mask0_191_5819" style="mask-type:luminance" maskUnits="userSpaceOnUse" x="0" y="0" width="81" height="82">
<path d="M40.6389 81.4517C62.9028 81.4517 80.9513 63.4032 80.9513 41.1393C80.9513 18.8753 62.9028 0.826797 40.6389 0.826797C18.3749 0.826797 0.326416 18.8753 0.326416 41.1393C0.326416 63.4032 18.3749 81.4517 40.6389 81.4517Z" fill="white"/>
</mask>
<g mask="url(#mask0_191_5819)">
<path d="M56.7564 17.7036C54.9546 14.5806 52.581 12.6377 50.3636 11.4298C47.4994 9.86977 44.1647 9.40704 40.9483 9.94749H40.9476C37.7313 9.40704 34.3965 9.87049 31.5324 11.4298C29.315 12.6377 26.9414 14.5799 25.1396 17.7036C20.5557 25.6486 20.6577 50.6037 20.6577 50.6037L39.9359 51.8023L39.933 51.9278L40.9469 51.865L41.9622 51.9285L41.9594 51.8023L61.2376 50.6044C61.2376 50.6044 61.3403 25.6486 56.7564 17.7036Z" fill="#A74B22"/>
<path d="M68.6355 66.955C67.33 63.4756 63.3386 58.9052 55.6082 57.6931L41.1999 54.8646L26.7908 57.6931C19.0597 58.9052 15.069 63.4756 13.7635 66.955L10.7439 80.5877H23.9658H24.932H41.1991H57.4664H58.4325H71.6544L68.6355 66.955Z" fill="#28466D"/>
<path d="M26.3416 57.8414L41.967 54.6735L56.5473 57.7979L56.2236 58.0304C47.3153 64.4417 35.324 64.1501 26.3416 57.8414Z" fill="#E0A78F"/>
<path d="M33.406 34.7265C33.4958 37.0538 31.6819 39.0138 29.3547 39.1037C27.0274 39.1935 25.0674 37.3796 24.9776 35.0524C24.8877 32.7251 26.7016 30.7651 29.0289 30.6752C31.3568 30.5847 33.3169 32.3986 33.406 34.7265Z" fill="#E0A78F"/>
<path d="M26.7922 34.3208C26.7922 34.3208 28.4607 33.4866 30.0892 36.3835" stroke="#B9635E" stroke-width="0.6612" stroke-miterlimit="10" stroke-linecap="round" stroke-linejoin="round"/>
<path d="M48.8047 34.6866C48.8289 37.016 50.7362 38.8841 53.0656 38.8605C55.395 38.8363 57.263 36.929 57.2395 34.5996C57.2153 32.2702 55.308 30.4022 52.9786 30.4257C50.6492 30.4499 48.7804 32.3572 48.8047 34.6866Z" fill="#E0A78F"/>
<path d="M55.3914 33.9586C55.3914 33.9586 53.6844 33.2071 52.1992 36.1803" stroke="#B9635E" stroke-width="0.6612" stroke-miterlimit="10" stroke-linecap="round" stroke-linejoin="round"/>
<path d="M41.0128 38.0419C49.0235 37.9594 55.455 31.831 55.3779 24.3539C55.3009 16.8767 48.7445 10.8822 40.7339 10.9647C32.7232 11.0472 26.2917 17.1755 26.3687 24.6527C26.4457 32.1299 33.0021 38.1244 41.0128 38.0419Z" fill="#A74B22"/>
<path d="M45.2618 43.1414C45.2618 43.1414 43.455 44.8355 41.7959 45.264C40.1367 45.6925 38.5046 44.4498 38.484 44.4341C38.4633 44.4191 36.5239 42.9959 36.5239 42.9959L35.8872 56.8838L36.1054 57.1134C38.9617 60.1187 43.0294 60.1187 45.8479 57.1134L46.26 56.6742L45.2618 43.1414Z" fill="#E0A78F"/>
<path d="M35.1914 41.1764C35.1914 41.1764 37.6149 49.2625 41.7903 49.1399C45.2227 49.0387 46.0968 41.4665 46.0968 41.4665L35.1914 41.1764Z" fill="#1E0B02"/>
<path d="M52.4096 26.7637C52.4795 31.3255 51.8599 35.2734 51.2231 38.0776C50.6 40.8234 48.7569 42.7635 46.1337 44.3435L45.656 44.6309C42.881 46.3021 39.2639 46.3955 36.3969 44.8704C33.5057 43.3318 31.4658 41.2769 30.8027 38.3507C29.597 33.0289 29.3831 27.1173 29.3831 27.1173C29.3831 27.1173 28.2944 14.7866 40.7156 14.8194C53.1376 14.8522 52.4096 26.7637 52.4096 26.7637Z" fill="#E0A78F"/>
<path d="M39.9622 33.2L39.9807 34.9832L41.1992 34.9704" stroke="#B9635E" stroke-width="0.6612" stroke-miterlimit="10" stroke-linecap="round" stroke-linejoin="round"/>
<path d="M31.4609 26.8778L38.0213 26.2182C38.0213 26.2182 37.416 24.5227 34.7636 24.8265C32.0499 25.1359 31.4609 26.8778 31.4609 26.8778Z" fill="black"/>
<path d="M49.5112 26.691L42.9387 26.1669C42.9387 26.1669 43.5091 24.4593 46.1672 24.7081C48.8866 24.9626 49.5112 26.691 49.5112 26.691Z" fill="black"/>
<path d="M36.6016 30.8193C36.6073 31.374 36.1617 31.8289 35.6069 31.8346C35.0522 31.8403 34.5973 31.3947 34.5916 30.8399C34.5859 30.2845 35.0315 29.8303 35.5863 29.8246C36.1417 29.8189 36.5959 30.2638 36.6016 30.8193Z" fill="#1E0B02"/>
<path d="M46.4631 30.7173C46.4688 31.2727 46.0232 31.7269 45.4685 31.7326C44.9138 31.7383 44.4589 31.2927 44.4532 30.738C44.4475 30.1825 44.8931 29.7284 45.4478 29.7227C46.0025 29.717 46.4574 30.1626 46.4631 30.7173Z" fill="#1E0B02"/>
<path d="M36.9326 37.545C36.9326 37.545 39.739 39.0366 44.2238 37.4694" stroke="black" stroke-width="0.6612" stroke-miterlimit="10" stroke-linecap="round" stroke-linejoin="round"/>
<path d="M28.4401 24.6831C28.4401 24.6831 31.7748 23.3577 34.5919 23.2557L35.1173 18.6718L36.2888 23.3577H41.2L42.0442 20.0472L42.9397 23.3577L48.8049 23.6628L49.5122 20.7602L49.9885 23.8668L53.7959 24.1213C53.7959 24.1213 51.6184 14.1392 42.6039 13.2223C33.5894 12.3061 27.7734 19.1331 28.4401 24.6831Z" fill="#A74B22"/>
</g>
</svg>
