<svg width="82" height="82" viewBox="0 0 82 82" fill="none" xmlns="http://www.w3.org/2000/svg">
<path d="M41.3008 81.3239C63.5647 81.3239 81.6132 63.2754 81.6132 41.0114C81.6132 18.7475 63.5647 0.698975 41.3008 0.698975C19.0368 0.698975 0.988281 18.7475 0.988281 41.0114C0.988281 63.2754 19.0368 81.3239 41.3008 81.3239Z" fill="#FFB2BF"/>
<mask id="mask0_36_664" style="mask-type:luminance" maskUnits="userSpaceOnUse" x="0" y="0" width="82" height="82">
<path d="M41.3008 81.3239C63.5647 81.3239 81.6132 63.2754 81.6132 41.0114C81.6132 18.7475 63.5647 0.698975 41.3008 0.698975C19.0368 0.698975 0.988281 18.7475 0.988281 41.0114C0.988281 63.2754 19.0368 81.3239 41.3008 81.3239Z" fill="white"/>
</mask>
<g mask="url(#mask0_36_664)">
<path d="M25.5528 58.4242L23.8416 80.2849H9.96655C11.414 76.891 13.1109 72.8055 14.6724 68.7984C18.1875 59.7432 24.8612 58.5311 25.5029 58.4313C25.5386 58.4242 25.5528 58.4242 25.5528 58.4242Z" fill="#D3445B"/>
<path d="M75.1136 80.2849H60.8607L58.5862 58.1746C58.5933 58.1746 58.6004 58.1818 58.6076 58.1818C59.071 58.2388 66.4863 59.401 70.3151 68.7984C72.0263 73.0051 73.7375 77.0621 75.1136 80.2849Z" fill="#D3445B"/>
<path d="M62.3008 80.2849L41.3043 84.4581L22.7148 80.2849L22.7861 59.6292C23.5918 59.1301 24.5473 58.7379 25.5027 58.4313C27.7914 57.704 30.0303 57.4973 30.0303 57.4973L42.4936 58.7522L54.9569 57.4973C54.9569 57.4973 56.6467 57.6541 58.5861 58.1746C58.5932 58.1746 58.6004 58.1818 58.6075 58.1818C59.8196 58.5026 61.1315 58.9732 62.1939 59.6292L62.3008 80.2849Z" fill="#D3445B"/>
<path d="M25.554 58.4213L40.2418 54.5618H45.3063L58.5881 58.1768C51.7961 64.5439 34.9371 69.7631 26.3133 58.7179L25.554 58.4213Z" fill="#E8B499"/>
<path d="M63.9239 44.9798C63.7849 43.8197 63.8768 42.6304 64.1684 41.5124C65.6508 35.8312 63.9553 30.9928 60.9614 27.3771C58.2534 24.1066 57.5782 19.2674 57.5782 19.2674C55.5889 12.7135 48.8496 8.16594 42.7163 8.16594C36.5823 8.16594 29.8637 12.4511 27.8751 19.005C27.8751 19.005 26.9774 24.1936 24.4705 27.3764C21.5686 31.0619 19.7811 35.8312 21.2634 41.5117C21.5551 42.6297 21.647 43.819 21.5073 44.9791C21.4046 45.8361 21.1707 46.7252 20.6809 47.3405H64.751C64.2604 46.7252 64.0266 45.8368 63.9239 44.9798Z" fill="#1E0B02"/>
<path d="M35.0742 32.51C35.1412 34.8915 33.2653 36.8772 30.8832 36.9449C28.5018 37.0119 26.516 35.136 26.449 32.7539C26.382 30.3725 28.2579 28.3867 30.64 28.3197C33.0215 28.252 35.0072 30.1279 35.0742 32.51Z" fill="#E8B499"/>
<path d="M28.313 32.0252C28.313 32.0252 30.0285 31.1896 31.6634 34.1699" stroke="#C47268" stroke-width="0.6887" stroke-miterlimit="10" stroke-linecap="round" stroke-linejoin="round"/>
<path d="M50.8259 32.632C50.8259 35.0148 52.7575 36.9464 55.1403 36.9464C57.5232 36.9464 59.4547 35.0148 59.4547 32.632C59.4547 30.2491 57.5232 28.3176 55.1403 28.3176C52.7582 28.3176 50.8259 30.2491 50.8259 32.632Z" fill="#E8B499"/>
<path d="M57.5718 31.9567C57.5718 31.9567 55.8335 31.1696 54.2834 34.1956" stroke="#C47268" stroke-width="0.6887" stroke-miterlimit="10" stroke-linecap="round" stroke-linejoin="round"/>
<path d="M42.8304 37.9667C50.3139 37.9667 56.3804 31.9001 56.3804 24.4167C56.3804 16.9333 50.3139 10.8668 42.8304 10.8668C35.347 10.8668 29.2805 16.9333 29.2805 24.4167C29.2805 31.9001 35.347 37.9667 42.8304 37.9667Z" fill="#1E0B02"/>
<path d="M47.1183 41.2436C47.1183 41.2436 45.2517 42.957 43.549 43.3784C41.8464 43.799 40.1893 42.5106 40.168 42.4949C40.1473 42.4793 38.1772 41.0033 38.1772 41.0033L37.3794 55.2028L37.6004 55.4395C40.4917 58.544 44.6549 58.5875 47.5711 55.5429L47.9975 55.0973L47.1183 41.2436Z" fill="#E8B499"/>
<path d="M36.8333 39.1267C36.8333 39.1267 39.2282 47.424 43.502 47.3427C47.0157 47.2757 47.9903 39.5388 47.9903 39.5388L36.8333 39.1267Z" fill="#1E0B02"/>
<path d="M54.5976 24.565C54.6211 29.2324 53.9452 33.2637 53.2643 36.1257C52.5976 38.9278 50.6918 40.8935 47.9923 42.4814L47.5011 42.7709C44.6448 44.4514 40.9443 44.5085 38.0274 42.9185C35.0855 41.3142 33.0214 39.1902 32.374 36.1906C31.1968 30.734 31.0406 24.6848 31.0406 24.6848C31.0406 24.6848 30.0567 12.0604 42.7631 12.2251C55.4675 12.3891 54.5976 24.565 54.5976 24.565Z" fill="#E8B499"/>
<path d="M41.7971 31.479V33.3279H43.0435" stroke="#C47268" stroke-width="0.6887" stroke-miterlimit="10" stroke-linecap="round" stroke-linejoin="round"/>
<path d="M33.167 24.461L39.8849 23.8556C39.8849 23.8556 39.2832 22.1152 36.5673 22.3975C33.788 22.6856 33.167 24.461 33.167 24.461Z" fill="black"/>
<path d="M51.6337 24.461L44.9158 23.8556C44.9158 23.8556 45.5175 22.1152 48.2334 22.3975C51.0127 22.6856 51.6337 24.461 51.6337 24.461Z" fill="black"/>
<path d="M38.7527 35.0334H46.0881C46.0881 35.0334 45.8064 36.9464 42.2892 36.9464C39.4022 36.9464 38.7527 35.0334 38.7527 35.0334Z" fill="white"/>
<path d="M39.0942 28.9907C39.0942 28.9907 37.3566 27.5696 35.8308 28.9907" stroke="#1E0B02" stroke-width="0.9565" stroke-miterlimit="10" stroke-linecap="round" stroke-linejoin="round"/>
<path d="M48.9129 28.9906C48.9129 28.9906 47.5518 27.5326 45.7329 28.9906" stroke="#1E0B02" stroke-width="0.9565" stroke-miterlimit="10" stroke-linecap="round" stroke-linejoin="round"/>
<path opacity="0.23" d="M35.8385 24.3462L40.7625 31.0306C40.7625 31.0306 39.2773 33.869 36.9123 33.5539L31.9426 27.0327C31.9426 27.0327 33.2852 24.1658 35.8385 24.3462Z" fill="white"/>
<path opacity="0.23" d="M47.9491 24.3462L52.8731 31.0306C52.8731 31.0306 51.3879 33.869 49.0229 33.5539L44.0532 27.0327C44.0532 27.0327 45.3958 24.1658 47.9491 24.3462Z" fill="white"/>
<path d="M41.1533 28.9907C41.1533 31.6494 38.9979 33.8056 36.3391 33.8056C33.6803 33.8056 31.5249 31.6502 31.5249 28.9907C31.5249 26.3319 33.6803 24.1765 36.3391 24.1765C38.9979 24.1757 41.1533 26.3319 41.1533 28.9907Z" stroke="white" stroke-width="0.4927" stroke-miterlimit="10"/>
<path d="M53.2771 28.9907C53.2771 31.6494 51.1217 33.8056 48.4629 33.8056C45.8041 33.8056 43.6487 31.6502 43.6487 28.9907C43.6487 26.3319 45.8041 24.1765 48.4629 24.1765C51.121 24.1757 53.2771 26.3319 53.2771 28.9907Z" stroke="white" stroke-width="0.4927" stroke-miterlimit="10"/>
<path d="M41.1533 28.9907C41.1533 28.9907 42.5287 28.4844 43.6481 28.9907" stroke="white" stroke-width="0.4927" stroke-miterlimit="10"/>
<path d="M29.8159 21.6959C29.8159 21.6959 41.1413 19.5398 43.4799 11.0864C43.4799 11.0864 31.4316 6.81195 29.8159 21.6959Z" fill="#1E0B02"/>
<path d="M54.5978 21.6959C54.5978 21.6959 43.2725 19.5398 40.9338 11.0864C40.9338 11.0864 52.9829 6.81195 54.5978 21.6959Z" fill="#1E0B02"/>
</g>
</svg>
