<svg width="67" height="67" viewBox="0 0 67 67" fill="none" xmlns="http://www.w3.org/2000/svg">
<g clip-path="url(#clip0_36_234)">
<path fill-rule="evenodd" clip-rule="evenodd" d="M19.5417 26.5208C19.5423 21.7957 21.1412 17.2096 24.0785 13.5083C27.0157 9.80697 31.1186 7.20803 35.7201 6.134C40.3216 5.05997 45.1511 5.574 49.4234 7.59254C53.6958 9.61107 57.1597 13.0154 59.2521 17.2521C61.3444 21.4887 61.9422 26.3086 60.9482 30.928C59.9542 35.5474 57.4268 39.6948 53.777 42.6959C50.1272 45.6969 45.5696 47.3752 40.8452 47.4578C36.1207 47.5403 31.5072 46.0224 27.7548 43.1508L22.7633 48.1395L26.7442 52.1204C27.0108 52.3779 27.2235 52.686 27.3698 53.0266C27.5161 53.3672 27.5931 53.7335 27.5964 54.1042C27.5996 54.4748 27.5289 54.8424 27.3886 55.1855C27.2482 55.5286 27.0409 55.8403 26.7788 56.1024C26.5167 56.3645 26.205 56.5718 25.8619 56.7122C25.5188 56.8526 25.1512 56.9232 24.7805 56.92C24.4099 56.9168 24.0435 56.8398 23.7029 56.6934C23.3624 56.5471 23.0543 56.3345 22.7968 56.0678L18.8159 52.0897L12.8975 58.008C12.3737 58.5315 11.6634 58.8254 10.9228 58.8252C10.1823 58.8249 9.47218 58.5305 8.94872 58.0066C8.42526 57.4828 8.13133 56.7725 8.13159 56.0319C8.13185 55.2914 8.42629 54.5813 8.95012 54.0578L14.8684 48.1395L10.9517 44.2228C10.6851 43.9653 10.4724 43.6572 10.3261 43.3166C10.1798 42.976 10.1028 42.6097 10.0996 42.239C10.0964 41.8684 10.167 41.5007 10.3074 41.1577C10.4477 40.8146 10.655 40.5029 10.9171 40.2408C11.1793 39.9786 11.491 39.7714 11.834 39.631C12.1771 39.4906 12.5447 39.42 12.9154 39.4232C13.2861 39.4264 13.6524 39.5034 13.993 39.6498C14.3336 39.7961 14.6416 40.0087 14.8992 40.2754L18.8159 44.1921L23.8129 39.195C21.0358 35.5541 19.5347 31.1 19.5417 26.5208ZM40.4792 11.1667C36.407 11.1667 32.5016 12.7843 29.6222 15.6638C26.7427 18.5433 25.125 22.4487 25.125 26.5208C25.125 30.593 26.7427 34.4984 29.6222 37.3779C32.5016 40.2573 36.407 41.875 40.4792 41.875C44.5514 41.875 48.4568 40.2573 51.3362 37.3779C54.2157 34.4984 55.8334 30.593 55.8334 26.5208C55.8334 22.4487 54.2157 18.5433 51.3362 15.6638C48.4568 12.7843 44.5514 11.1667 40.4792 11.1667Z" fill="#5E718D"/>
</g>
<defs>
<clipPath id="clip0_36_234">
<rect width="67" height="67" fill="white"/>
</clipPath>
</defs>
</svg>
