<svg width="79" height="79" viewBox="0 0 79 79" fill="none" xmlns="http://www.w3.org/2000/svg">
<g id="ic:round-male">
<path id="Vector" d="M62.5417 13.1667H49.3751C47.5647 13.1667 46.0834 14.6479 46.0834 16.4583C46.0834 18.2688 47.5647 19.75 49.3751 19.75H54.5759L41.508 32.8179C38.6113 30.81 35.0892 29.625 31.2709 29.625C21.2642 29.625 13.1667 37.7225 13.1667 47.7292C13.1667 57.7358 21.2642 65.8333 31.2709 65.8333C41.2776 65.8333 49.3751 57.7358 49.3751 47.7292C49.3751 43.9108 48.1901 40.3888 46.1822 37.4592L59.2501 24.4242V29.625C59.2501 31.4354 60.7313 32.9167 62.5417 32.9167C64.3522 32.9167 65.8334 31.4354 65.8334 29.625V16.4583C65.8334 14.6479 64.3522 13.1667 62.5417 13.1667ZM31.2709 59.25C24.918 59.25 19.7501 54.0821 19.7501 47.7292C19.7501 41.3763 24.918 36.2083 31.2709 36.2083C37.6238 36.2083 42.7917 41.3763 42.7917 47.7292C42.7917 54.0821 37.6238 59.25 31.2709 59.25Z" fill="#5E718D"/>
</g>
</svg>
