<svg width="280" height="280" viewBox="0 0 280 280" fill="none" xmlns="http://www.w3.org/2000/svg">
<path d="M10.64 173.04C10.64 173.04 19.04 219.397 61.6 241.769C104.16 264.141 157.114 254.24 200.116 247.335C243.118 240.43 272.126 208.135 271.477 169.551C270.827 130.967 236.673 127.495 212.677 88.956C188.681 50.4168 188.16 36.0416 146.933 18.48C105.706 0.918402 49.6776 30.4752 25.76 82.46C1.8424 134.445 10.64 173.04 10.64 173.04Z" fill="#92E3A9"/>
<path opacity="0.7" d="M10.64 173.04C10.64 173.04 19.04 219.397 61.6 241.769C104.16 264.141 157.114 254.24 200.116 247.335C243.118 240.43 272.126 208.135 271.477 169.551C270.827 130.967 236.673 127.495 212.677 88.956C188.681 50.4168 188.16 36.0416 146.933 18.48C105.706 0.918402 49.6776 30.4752 25.76 82.46C1.8424 134.445 10.64 173.04 10.64 173.04Z" fill="white"/>
<path d="M55.1768 119.157C55.1768 119.157 63.7672 139.44 67.5528 149.75C71.3384 160.059 70.9856 163.156 70.9856 163.156L41.44 162.126C41.44 162.126 39.032 149.066 43.8424 137.721C46.6637 130.997 50.485 124.738 55.1768 119.157Z" fill="#263238" stroke="#263238" stroke-linecap="round" stroke-linejoin="round"/>
<path d="M62.3504 154.498C63.3192 158.452 63.9016 161.246 64.2544 163.229L181.664 169.12L220.819 169.68L245.98 169.96C245.98 169.96 213.259 150.416 207.542 143.08C201.824 135.744 202.093 129.186 199.366 125.098C196.638 121.01 184.929 111.44 183.025 106.282C181.121 101.125 180.846 100.29 180.846 100.29L57.9936 104.922C57.9936 104.922 47.9136 111.731 52.8136 128.621C52.8136 128.621 59.36 142.24 62.3504 154.498Z" fill="white" stroke="#263238" stroke-linecap="round" stroke-linejoin="round"/>
<path opacity="0.4" d="M66.08 162.96L214.922 163.895V169.826" fill="black"/>
<path d="M89.2752 134.142C93.7228 142.012 96.3984 150.757 97.1152 159.768" stroke="#263238" stroke-linecap="round" stroke-linejoin="round"/>
<path opacity="0.4" d="M55.6528 125.961L191.089 113.327L180.846 100.29L57.9936 104.922L55.6528 125.961Z" fill="black"/>
<path d="M269.791 123.642C259.151 99.3664 246.467 97.2104 246.467 97.2104L178.478 99.9432C178.411 100.332 178.366 100.725 178.343 101.119C178.247 102.875 178.321 104.636 178.562 106.378C178.651 115.657 180.034 138.298 190.938 147.398C194.146 150.081 197.863 152.09 201.866 153.304C205.868 154.519 210.075 154.913 214.234 154.465C214.621 155.365 214.847 156.326 214.9 157.304C215.202 164.282 215.202 169.445 215.202 169.445L267.714 170.05C267.714 170.05 280.409 147.924 269.791 123.642ZM185.83 126.381C186.228 127.081 186.642 127.792 187.085 128.52C193.043 138.309 202.882 146.44 210.694 151.782C200.351 149.425 185.657 143.13 185.83 126.381Z" fill="#263238" stroke="#263238" stroke-linecap="round" stroke-linejoin="round"/>
<path d="M194.712 111.468C202.294 120.355 215.074 132.16 232.96 137.934C263.827 147.935 271.656 145.774 271.656 145.774" stroke="#7D7D7D" stroke-linecap="round" stroke-linejoin="round"/>
<path d="M186.441 100.106C187.832 102.454 189.364 104.717 191.027 106.882" stroke="#7D7D7D" stroke-linecap="round" stroke-linejoin="round"/>
<path d="M260.798 141.854C262.608 142.473 264.492 143.052 266.448 143.59" stroke="#7D7D7D" stroke-linecap="round" stroke-linejoin="round"/>
<path d="M218.187 101.847C218.187 101.847 224.689 126.146 254.089 139.216" stroke="#7D7D7D" stroke-linecap="round" stroke-linejoin="round"/>
<path d="M29.6352 124.23C29.6352 124.23 21.7952 138.438 21.7952 150.405C21.7557 154.02 22.1467 157.628 22.96 161.151L45.7128 162.271C42.1736 149.134 47.9528 131.936 63.4816 120.658C81.2448 107.778 86.1056 104.02 86.1056 104.02L33.3816 106.26C33.3816 106.26 29.4616 108.69 22.3496 120.26C15.2376 131.83 18.2392 150.36 18.2392 150.36C18.7771 145.443 19.9053 140.609 21.5992 135.962C23.2459 131.437 26.0102 127.401 29.6352 124.23Z" fill="#263238" stroke="#263238" stroke-linecap="round" stroke-linejoin="round"/>
<path d="M51.6488 130.978C46.4016 138.954 43.8085 148.383 44.24 157.92" stroke="#7D7D7D" stroke-linecap="round" stroke-linejoin="round"/>
<path d="M29.372 146.518C28.8692 148.841 28.6121 151.209 28.6048 153.586" stroke="#7D7D7D" stroke-linecap="round" stroke-linejoin="round"/>
<path d="M56.868 108.366C56.868 108.366 37.9456 122.366 31.0688 140.762" stroke="#7D7D7D" stroke-linecap="round" stroke-linejoin="round"/>
<path d="M97.1264 103.667C97.1264 103.667 96.7512 112.829 85.7248 119.185C74.6984 125.541 69.6472 123.105 58.9904 127.221C48.3336 131.337 44.9904 138.628 44.9904 138.628C44.9904 138.628 56.7504 125.916 76.9608 126.101C97.1712 126.286 115.657 113.781 121.828 102.732L97.1264 103.667Z" fill="#263238" stroke="#263238" stroke-linecap="round" stroke-linejoin="round"/>
<path d="M124.611 113.764C124.611 113.764 121.621 118.065 121.621 120.484C121.621 122.903 121.246 127.025 121.246 127.025C121.246 127.025 125.166 124.97 132.272 120.484C139.378 115.998 149.66 106.646 158.077 105.151C166.494 103.656 173.757 107.022 176.585 108.892C179.413 110.762 181.446 112.252 181.446 112.252C181.446 112.252 176.585 103.292 168.358 100.845L143.304 101.595C143.304 101.595 133.773 102.917 124.611 113.764Z" fill="#263238" stroke="#263238" stroke-linecap="round" stroke-linejoin="round"/>
<path d="M121.055 118.81L119.75 127.596C119.75 127.596 117.505 124.606 121.055 118.81Z" fill="#263238" stroke="#263238" stroke-linecap="round" stroke-linejoin="round"/>
<path d="M87.4048 129.651C87.4048 129.651 85.5344 123.855 80.864 120.305C76.1936 116.754 62.16 112.269 57.8648 114.509C53.5696 116.749 54.1296 124.029 54.1296 124.029C54.1296 124.029 55.8096 119.913 59.7296 119.353C63.6496 118.793 72.0496 124.589 77.6776 127.753C83.3056 130.917 87.4048 129.651 87.4048 129.651Z" fill="#263238" stroke="#263238" stroke-linecap="round" stroke-linejoin="round"/>
<path d="M86.66 125.166L88.5304 129.842C88.5304 129.842 90.0256 127.221 86.66 125.166Z" fill="#263238" stroke="#263238" stroke-linecap="round" stroke-linejoin="round"/>
<path d="M155.271 125.356C151.21 124.528 146.998 124.856 143.114 126.302C141.812 128.1 141.003 130.208 140.769 132.415C140.535 134.623 140.883 136.853 141.779 138.884C142.675 140.915 144.087 142.676 145.875 143.991C147.664 145.306 149.765 146.13 151.971 146.381C154.176 146.631 156.409 146.3 158.447 145.419C160.484 144.538 162.255 143.139 163.584 141.36C164.912 139.582 165.752 137.487 166.019 135.283C166.286 133.079 165.971 130.844 165.105 128.8C162.837 127.932 161.14 126.605 155.271 125.356Z" fill="#92E3A9" stroke="#263238" stroke-linecap="round" stroke-linejoin="round"/>
<path d="M153.401 141.618C157.737 141.618 161.252 138.103 161.252 133.767C161.252 129.431 157.737 125.916 153.401 125.916C149.065 125.916 145.55 129.431 145.55 133.767C145.55 138.103 149.065 141.618 153.401 141.618Z" fill="#263238" stroke="#263238" stroke-linecap="round" stroke-linejoin="round"/>
<path d="M160.63 137.43C162.356 137.43 163.755 136.031 163.755 134.305C163.755 132.579 162.356 131.18 160.63 131.18C158.905 131.18 157.506 132.579 157.506 134.305C157.506 136.031 158.905 137.43 160.63 137.43Z" fill="white"/>
<path d="M130.032 147.974C130.164 141.376 132.462 135.005 136.573 129.842C145.191 118.894 156.016 123.295 159.757 124.981C163.498 126.666 170.24 131.897 170.24 131.897L171.92 132.082C171.92 132.082 169.624 134.938 166.124 139.922C162.204 145.522 159.964 149.078 146.871 149.828" stroke="#263238" stroke-linecap="round" stroke-linejoin="round"/>
<path d="M130.592 148.91C130.592 148.91 131.342 153.39 132.462 151.71C133.582 150.03 134.142 149.654 134.142 149.654L137.698 149.464" stroke="#263238" stroke-linecap="round" stroke-linejoin="round"/>
<path d="M173.779 130.026C172.659 130.217 170.598 129.651 170.598 129.651C170.598 129.651 173.398 128.346 174.154 127.411C174.91 126.476 175.09 124.421 175.09 124.421C175.09 124.421 173.41 126.476 171.17 126.851C168.93 127.226 165.379 126.476 165.379 126.476C165.379 126.476 168.554 124.981 169.114 124.421C169.674 123.861 170.794 121.24 170.794 121.24C170.794 121.24 167.054 123.855 164.248 124.421C161.442 124.986 161.818 122.741 152.096 121.99C142.374 121.24 133.403 128.71 130.598 143.864C130.598 143.864 135.078 128.531 146.278 127.411C157.478 126.291 164.226 130.026 167.591 131.331C167.905 131.449 168.19 131.55 168.47 131.639C168.245 134.817 167.319 137.905 165.76 140.683C163.761 144.043 162.148 145.538 161.386 146.138C163.117 144.883 169.002 140.263 170.436 134.702C170.675 133.849 170.823 132.972 170.878 132.087C172.144 132.087 173.062 131.628 174.177 130.967C175.378 130.198 176.398 129.178 177.167 127.977C177.167 127.977 174.899 129.842 173.779 130.026Z" fill="#263238" stroke="#263238" stroke-linecap="round" stroke-linejoin="round"/>
<path d="M161.364 146.16C161.056 146.384 160.877 146.502 160.877 146.502C161.047 146.4 161.21 146.286 161.364 146.16Z" fill="#263238" stroke="#263238" stroke-linecap="round" stroke-linejoin="round"/>
<path d="M133.773 133.207C133.773 133.207 136.573 124.046 144.054 121.055C151.536 118.065 158.822 121.055 158.822 121.055" stroke="#263238" stroke-linecap="round" stroke-linejoin="round"/>
<path d="M94.4944 151.502C94.4944 151.502 90.6808 141.422 85.232 136.248C79.7832 131.074 72.6992 132.434 69.7032 137.883C66.7072 143.332 66.7072 147.14 66.7072 147.14C66.7072 147.14 68.068 150.41 74.0656 154.498C80.0632 158.586 86.8672 157.22 90.1376 156.134" stroke="#263238" stroke-linecap="round" stroke-linejoin="round"/>
<path d="M79.212 133.806C77.952 134.775 76.9031 135.991 76.1293 137.379C75.3556 138.767 74.8734 140.299 74.7123 141.88C74.5512 143.461 74.7145 145.058 75.1924 146.574C75.6702 148.089 76.4524 149.492 77.4911 150.694C78.5298 151.897 79.8031 152.875 81.233 153.569C82.663 154.262 84.2194 154.657 85.8071 154.728C87.3947 154.799 88.9802 154.545 90.4663 153.981C91.9523 153.418 93.3078 152.557 94.4496 151.452C89.5216 139.686 82.32 135.24 79.212 133.806Z" fill="#92E3A9" stroke="#263238" stroke-linecap="round" stroke-linejoin="round"/>
<path d="M84.5208 137.262C83.515 137.666 82.6168 138.299 81.897 139.109C81.1771 139.92 80.6552 140.887 80.3724 141.933C80.0896 142.98 80.0535 144.078 80.267 145.141C80.4806 146.204 80.9379 147.203 81.603 148.059C82.2681 148.915 83.1228 149.605 84.0999 150.075C85.077 150.545 86.1498 150.781 87.2339 150.766C88.3179 150.751 89.3836 150.484 90.3471 149.987C91.3106 149.49 92.1456 148.776 92.7864 147.902C90.7513 143.85 87.9434 140.235 84.5208 137.262Z" fill="#263238" stroke="#263238" stroke-linecap="round" stroke-linejoin="round"/>
<path d="M79.7832 132.434C72.6992 130.799 71.6128 133.795 69.1432 134.338C67.5101 134.644 65.8276 134.551 64.2376 134.07C64.2376 134.07 64.512 135.974 65.604 136.517C66.4736 136.902 67.3879 137.176 68.3256 137.334C68.3256 137.334 66.1472 138.701 64.2376 138.701C63.0986 138.702 61.977 138.421 60.9728 137.883C60.9728 137.883 62.608 140.33 63.6944 140.879C64.5643 141.206 65.5047 141.299 66.4216 141.148C66.4216 141.148 65.8616 142.783 63.1512 142.783C61.6573 142.824 60.1718 142.545 58.7944 141.966C58.7944 141.966 62.3336 144.418 63.6944 145.236C64.2416 145.554 64.8377 145.779 65.4584 145.902C64.7117 146.343 63.8955 146.654 63.0448 146.821L61.796 147C61.796 147 64.288 148.954 67.312 150.92C69.0452 152.057 70.8919 153.01 72.8224 153.765C72.8224 153.765 68.4432 150.612 66.8864 147.571C66.8192 147.431 66.752 147.286 66.6904 147.146L67.2112 144.2C68.1408 141.26 70.3696 135.727 74.3176 134.344C79.7664 132.44 87.1192 138.432 92.568 147.694C92.5848 147.689 86.8672 134.07 79.7832 132.434Z" fill="#263238" stroke="#263238" stroke-linecap="round" stroke-linejoin="round"/>
<path d="M91.3304 143.489C91.3304 143.489 87.22 135.447 83.104 131.522C78.988 127.596 73.1192 129.08 71.1424 131.712" stroke="#263238" stroke-linecap="round" stroke-linejoin="round"/>
<path d="M91.84 148.618C91.84 149.042 91.7145 149.455 91.4795 149.807C91.2444 150.159 90.9103 150.433 90.5194 150.595C90.1285 150.757 89.6984 150.799 89.2834 150.716C88.8685 150.634 88.4873 150.43 88.1881 150.131C87.889 149.832 87.6852 149.451 87.6027 149.036C87.5201 148.621 87.5625 148.191 87.7244 147.8C87.8863 147.409 88.1605 147.075 88.5123 146.84C88.8641 146.605 89.2777 146.479 89.7008 146.479C90.2681 146.479 90.8123 146.705 91.2134 147.106C91.6146 147.507 91.84 148.051 91.84 148.618Z" fill="white"/>
<path d="M215.202 169.445L181.658 169.137L64.2544 163.229" fill="black"/>
<path d="M14 160.731L186.614 169.299L273.157 170.458" stroke="#263238" stroke-linecap="round" stroke-linejoin="round"/>
<path d="M15.4952 106.826L263.928 96.4768" stroke="#263238" stroke-linecap="round" stroke-linejoin="round"/>
<path d="M15.26 75.8016L265.748 66.6624" stroke="#263238" stroke-linecap="round" stroke-linejoin="round"/>
<path d="M16.1448 37.6432L266.997 40.8688" stroke="#263238" stroke-linecap="round" stroke-linejoin="round"/>
<path d="M18.48 193.385L218.96 194.135L273.095 193.015" stroke="#263238" stroke-linecap="round" stroke-linejoin="round"/>
<path d="M23.0384 193.2C23.0384 193.2 106.96 199.735 143.545 198.24C180.13 196.745 229.466 194.096 229.466 194.096L175.28 193.76H94.2648L23.0384 193.2Z" fill="#263238"/>
<path d="M20.72 230.72C20.72 230.72 110.695 237.065 161.465 234.08C212.234 231.095 271.6 227.735 271.6 227.735" stroke="#263238" stroke-linecap="round" stroke-linejoin="round"/>
<path d="M201.6 141.12C201.6 141.12 227.64 150.422 233.223 153.21C238.806 155.999 243.863 169.982 243.863 169.982L195.815 169.394C195.815 169.394 183.59 153.838 201.6 141.12Z" fill="white" stroke="#263238" stroke-linecap="round" stroke-linejoin="round"/>
<path d="M233.24 148.96C233.24 148.96 241.64 155.411 244.35 156.486C247.061 157.562 251.698 167.602 254.923 171.903C258.149 176.204 261.38 177.996 259.762 180.303C258.143 182.61 253.669 184.604 248.293 181.737C242.917 178.87 241.125 170.268 240.05 169.551C238.974 168.834 234.853 165.071 233.957 163.279C233.061 161.487 230.72 148.753 233.24 148.96Z" fill="white" stroke="#263238" stroke-linecap="round" stroke-linejoin="round"/>
<path d="M256.536 174.026C256.536 174.026 249.906 170.979 250.085 173.466C250.264 175.952 255.282 177.946 256.715 178.506C258.149 179.066 260.842 179.581 259.941 178.147C259.038 176.597 257.888 175.205 256.536 174.026Z" fill="#92E3A9" stroke="#263238" stroke-linecap="round" stroke-linejoin="round"/>
<path d="M181.664 169.12C177.902 167.558 174.657 164.967 172.301 161.644C168.381 156.083 167.261 154.65 163.52 157.338C160.468 159.522 161.689 165.827 162.26 168.14L181.664 169.12Z" fill="white" stroke="#263238" stroke-linecap="round" stroke-linejoin="round"/>
<path d="M221.049 142.481C221.049 142.481 222.482 139.614 224.969 139.614C226.499 139.583 228.01 139.967 229.34 140.725C230.67 141.484 231.77 142.587 232.523 143.92C234.315 147.146 233.24 153.059 235.39 161.487C237.541 169.915 236.107 174.569 233.598 178.69C231.09 182.812 227.864 187.65 226.251 188.546C224.638 189.442 222.124 188.188 221.211 185.142C220.298 182.095 220.651 176.898 221.211 174.39C221.771 171.881 223.182 167.042 223.182 167.042C221.834 163.177 221.109 159.123 221.032 155.03C221.032 155.03 219.061 155.03 219.061 151.626C219.061 148.221 220.511 143.36 221.049 142.481Z" fill="white" stroke="#263238" stroke-linecap="round" stroke-linejoin="round"/>
<path d="M221.228 185.136C221.228 184.397 220.87 181.91 223.02 179.939C225.17 177.968 226.789 177.072 228.222 177.968C229.656 178.864 232.344 179.939 231.448 181.731C230.552 183.523 228.581 187.107 227.147 188.003C225.714 188.899 221.407 190.154 221.228 185.136Z" fill="#92E3A9" stroke="#263238" stroke-linecap="round" stroke-linejoin="round"/>
<path d="M206.388 142.419C206.388 142.419 205.828 135.313 200.082 135.313C194.337 135.313 192.018 136.746 191.481 139.614C190.943 142.481 186.099 156.1 186.816 159.51C187.533 162.921 193.273 179.043 193.631 181.91C193.99 184.778 199.724 188.362 203.151 185.136C206.578 181.91 204.406 175.616 204.406 172.95C204.406 170.285 203.151 159.51 203.151 159.51C203.151 159.51 205.514 157.405 205.694 150.774" fill="white"/>
<path d="M206.388 142.419C206.388 142.419 205.828 135.313 200.082 135.313C194.337 135.313 192.018 136.746 191.481 139.614C190.943 142.481 186.099 156.1 186.816 159.51C187.533 162.921 193.273 179.043 193.631 181.91C193.99 184.778 199.724 188.362 203.151 185.136C206.578 181.91 204.406 175.616 204.406 172.95C204.406 170.285 203.151 159.51 203.151 159.51C203.151 159.51 205.514 157.405 205.694 150.774" stroke="#263238" stroke-linecap="round" stroke-linejoin="round"/>
<path d="M199.814 152.807C200.187 153.024 200.472 153.365 200.62 153.77" stroke="#263238" stroke-linecap="round" stroke-linejoin="round"/>
<path d="M189.325 153.233C189.325 153.233 190.221 150.903 195.244 151.441C196.12 151.529 196.987 151.69 197.837 151.922" stroke="#263238" stroke-linecap="round" stroke-linejoin="round"/>
<path d="M194.88 184.184C194.88 184.184 193.418 180.292 193.906 177.694C194.393 175.095 197.478 174.126 200.396 174.614C203.314 175.101 204.456 180.292 204.316 183.372C204.176 186.452 198.425 188.888 194.88 184.184Z" fill="#92E3A9" stroke="#263238" stroke-linecap="round" stroke-linejoin="round"/>
<path d="M221.049 141.585C221.049 141.585 220.489 136.926 218.361 135.671C216.233 134.417 209.401 133.162 207.609 135.313C205.817 137.463 206.713 148.394 206.175 152.673C205.638 156.951 207.788 163.072 207.788 166.477C207.93 171.164 208.349 175.839 209.042 180.477C209.602 183.702 210.834 184.957 213.164 185.315C215.494 185.674 218.204 184.957 218.898 183.523C219.593 182.09 221.228 174.003 221.228 168.291C221.228 162.579 221.228 156.425 221.418 151.939C221.484 148.484 221.361 145.027 221.049 141.585Z" fill="white" stroke="#263238" stroke-linecap="round" stroke-linejoin="round"/>
<path d="M214.805 149.727C215.765 149.755 216.707 149.985 217.571 150.405" stroke="#263238" stroke-linecap="round" stroke-linejoin="round"/>
<path d="M207.609 153.591C207.609 153.591 209.44 150.343 212.806 149.828" stroke="#263238" stroke-linecap="round" stroke-linejoin="round"/>
<path d="M209.944 183.372C209.735 181.92 209.735 180.445 209.944 178.993C210.269 176.232 211.064 172.015 215.622 172.015C220.181 172.015 218.837 179.004 218.87 181.266C218.904 183.529 218.708 184.509 216.759 185.321C214.81 186.133 210.431 185.808 209.944 183.372Z" fill="#92E3A9" stroke="#263238" stroke-linecap="round" stroke-linejoin="round"/>
<path d="M269.17 103.186C269.052 102.894 267.624 99.4112 263.57 93.996C265.177 91.6832 269.763 84.3304 268.313 77.588C266.554 69.4568 262.836 67.508 257.74 62.468C252.644 57.428 249.693 54.3592 249.693 54.3592C249.693 54.3592 247.918 64.6464 248.982 71.232C250.046 77.8176 255.438 81.8104 257.382 84.3864C258.784 86.4641 260.034 88.6407 261.122 90.8992C256.743 85.5848 250.174 78.9656 240.576 71.8592C242.637 66.4112 243.027 60.4723 241.696 54.8016C239.316 44.9176 233.598 41.2888 228.558 36.0528C223.518 30.8168 220.158 27.6192 220.158 27.6192C220.158 27.6192 220.287 46.3008 222.09 52.6456C223.21 56.5656 229.802 63.1736 234.735 67.7096C230.093 64.5568 225.4 61.684 220.511 58.996L219.29 58.5424C218.213 57.8803 217.09 57.2946 215.93 56.7896C215.645 54.5496 214.413 46.9448 210.118 40.068C205.05 31.92 198.8 29.4672 192.024 27.1152C187.815 25.6109 183.874 23.4404 180.354 20.6864C180.354 20.6864 178.825 31.7128 184.341 38.4328C189.857 45.1528 193.76 46.48 200.032 48.916C204.008 50.4616 209.373 53.48 212.772 55.4848C206.186 53.0208 194.6 50.092 177.542 50.6408C175.767 45.0941 172.378 40.2024 167.81 36.5904C159.802 30.3296 153.065 31.0352 145.863 30.0608C138.662 29.0864 134.036 28.6776 134.036 28.6776C134.036 28.6776 145.746 43.2376 151.105 47.0848C154.398 49.4536 163.688 50.54 170.374 51.0048C163.095 51.5468 155.856 52.5324 148.697 53.956C146.871 52.2032 141.31 47.236 133.918 44.6376C124.835 41.4008 118.401 43.3888 111.653 45.7576C107.422 47.2037 102.986 47.96 98.5152 47.9976C98.5152 47.9976 104.166 57.5904 112.666 59.4272C121.167 61.264 125.042 59.8752 131.477 57.8872C133.951 57.1672 136.463 56.5895 139.003 56.1568C135.19 57.0864 131.589 58.0552 128.111 58.9568C122.276 60.5192 116.766 61.9976 111.171 63.0784L110.97 63.1176C109.099 62.4736 105.874 61.2416 100.492 58.8616C89.852 54.1688 82.8576 55.9272 77.4704 58.1784C72.0832 60.4296 54.7456 66.0184 54.7456 66.0184C54.7456 66.0184 64.6184 76.188 78.6576 75.0064C90.0144 74.0488 105.7 67.2952 111.266 64.7528L111.49 64.7136C117.141 63.5936 122.69 62.1376 128.548 60.564C133.98 59.108 139.748 57.568 146.093 56.2072C142.55 58.3082 139.57 61.2366 137.407 64.7416C132.826 72.2792 130.586 78.1368 128.878 81.8944C127.17 85.652 126.638 86.5872 126.638 86.5872C126.638 86.5872 131.477 85.2712 137.542 82.9696C143.606 80.668 148.014 74.3736 149.486 68.3648C150.651 63.6048 149.884 57.7248 149.486 55.5128C156.665 54.1092 163.923 53.1498 171.22 52.64C168.903 53.3066 166.758 54.4704 164.937 56.0504C160.384 60.2952 152.779 69.5688 150.242 74.1496C148.944 76.599 147.388 78.9025 145.6 81.0208C145.6 81.0208 152.88 82.7008 163.442 76.608C172.648 71.3328 176.658 56.1904 177.548 52.3264C185.974 51.9767 194.411 52.6632 202.67 54.3704C199.48 54.8801 196.478 56.214 193.962 58.24C186.385 64.2208 183.249 71.8592 180.23 76.4008C178.286 79.2666 175.993 81.8794 173.404 84.1792C173.404 84.1792 187.807 86.1224 198.548 79.2904C198.962 79.0272 199.354 78.7304 199.741 78.4392C202.345 80.2312 206.752 82.4656 213.438 83.4792C223.933 85.064 236.488 75.6896 239.585 73.2144C246.737 78.4009 253.268 84.3931 259.05 91.0728C255.998 89.0674 252.421 88.0112 248.769 88.0376C239.12 88.0376 231.918 92.0528 226.727 93.7328C223.424 94.7713 220.004 95.3921 216.546 95.5808C216.546 95.5808 226.626 106.058 239.282 107.38C250.27 108.5 260.092 98.1624 262.489 95.4184C266.252 100.531 267.585 103.751 267.613 103.818L269.17 103.186ZM227.36 68.32C221.155 68.8184 209.44 71.3552 204.602 73.36L204.154 73.5392C208.141 67.312 209.048 59.3656 209.255 56.1232C215.365 58.0496 218.4 59.9928 218.467 60.0432L219.772 60.5416C224.812 63.3416 229.617 66.2816 234.399 69.552C232.17 68.6348 229.768 68.2143 227.36 68.32Z" fill="#92E3A9"/>
<path d="M124.488 203.666C120.613 204.428 116.01 206.08 111.798 212.727C109.928 215.673 108.662 217.504 107.834 218.63C107.649 218.714 107.458 218.798 107.274 218.87C104.961 219.85 102.598 220.713 100.167 221.564C102.023 220.525 103.704 219.203 105.151 217.644C109.239 213.405 108.808 205.884 108.808 205.884C106.282 207.551 103.504 208.8 100.582 209.586C95.9 210.806 91.532 212.111 87.64 217.353C85.393 220.506 83.7871 224.07 82.9136 227.842C78.7855 229.548 74.7549 231.481 70.84 233.632C74.2 230.927 78.036 227.472 78.8816 225.193C80.4496 221.004 81.5528 208.393 81.5528 208.393C81.5528 208.393 79.1056 210.364 75.4208 213.629C71.736 216.894 67.676 219.027 65.5312 225.568C64.354 229.231 64.2645 233.156 65.2736 236.869C60.1504 239.982 55.3924 243.66 51.0888 247.834C51.7619 246.731 52.5103 245.675 53.3288 244.675C54.8016 243.046 58.6544 240.643 59.7296 236.275C60.8048 231.907 60.172 224.846 60.172 224.846C60.172 224.846 58.0104 226.766 54.2976 229.886C50.5848 233.005 47.964 234.08 46.3344 239.467C45.052 243.734 47.4544 248.679 48.5016 250.555C45.416 254.055 44.2288 256.385 44.1336 256.581L45.64 257.32C46.7191 255.421 48.0036 253.646 49.4704 252.028C51.184 254.268 57.092 261.313 64.3216 261.145C72.9344 260.943 80.3096 254.425 80.3096 254.425C77.9869 254.106 75.7127 253.501 73.5392 252.622C70.1288 251.205 65.4864 248.086 58.9792 247.582C56.8047 247.396 54.6194 247.782 52.64 248.702C56.765 244.744 61.3092 241.247 66.192 238.274C68.432 240.363 76.1376 246.921 83.076 246.434C91.3136 245.874 94.7744 242.194 94.7744 242.194C92.9788 241.674 91.2441 240.962 89.6 240.072C86.4472 238.454 78.6744 236.102 74.5136 235.43C73.2437 235.251 71.9515 235.316 70.7056 235.62C74.7229 233.365 78.8663 231.342 83.1152 229.561C83.8264 231.095 85.5456 234.416 87.8584 236.533C90.9496 239.333 95.7992 241.242 100.078 240.251C104.356 239.26 107.576 238.179 107.576 238.179C107.576 238.179 106.921 237.86 104.541 236.387C102.161 234.914 98.7 232.467 93.2792 229.947C90.9955 228.904 88.5099 228.376 85.9992 228.402C89.8184 226.895 93.4024 225.674 96.796 224.521C100.716 223.194 104.373 221.939 107.968 220.422C108.343 220.259 108.73 220.097 109.116 219.923C113.882 219.094 124.001 217.034 130.217 213.59C138.555 208.97 140.297 199.528 140.297 199.528C140.297 199.528 128.369 202.905 124.488 203.666Z" fill="#92E3A9"/>
<path d="M53.4184 188.328L54.0456 187.247C57.4056 183.747 64.2992 176.075 67.2448 169.613C71.2096 160.938 66.9816 152.32 66.9816 152.32C66.9816 152.32 59.444 162.092 56.7784 165.01C54.1128 167.927 51.3968 171.987 51.9568 179.838C52.2088 183.316 52.276 185.539 52.2816 186.939L51.9736 187.471C50.6968 189.627 49.308 191.727 47.8576 193.861C48.7398 191.909 49.3068 189.83 49.5376 187.701C50.3104 181.866 45.4888 176.075 45.4888 176.075C44.4472 178.907 42.9593 181.554 41.0816 183.915C38.0184 187.723 35.28 191.369 35.28 197.898C35.3492 201.77 36.1768 205.59 37.716 209.143C35.4075 212.968 33.3136 216.918 31.444 220.976C32.5304 216.81 33.5664 211.73 32.9 209.401C31.668 205.106 25.06 194.32 25.06 194.32C25.06 194.32 24.2648 197.361 23.24 202.16C22.2152 206.959 20.216 211.12 22.4 217.65C23.6271 221.297 25.8879 224.509 28.9072 226.895C26.6275 232.448 24.9801 238.239 23.996 244.16C23.8793 242.874 23.8531 241.581 23.9176 240.29C24.1304 238.106 25.8048 233.884 24.0576 229.712C22.3104 225.54 17.6232 220.248 17.6232 220.248C17.6232 220.248 17.024 223.048 15.8928 227.786C14.7616 232.523 13.3112 234.948 15.2096 240.24C16.716 244.44 21.5768 246.988 23.5424 247.867C23.1448 252.521 23.5704 255.097 23.6096 255.31L25.2896 255.013C25.018 252.85 24.988 250.664 25.2 248.494C27.9328 249.295 36.848 251.423 42.56 246.994C49.3696 241.713 51.4192 232.086 51.4192 232.086C49.362 233.203 47.1744 234.061 44.9064 234.64C41.3168 235.525 35.7336 235.76 30.1896 239.243C28.3386 240.378 26.8141 241.973 25.7656 243.874C26.7288 238.251 28.3024 232.749 30.4584 227.466C33.516 227.802 43.5904 228.508 48.8824 223.994C55.1656 218.63 55.7704 213.629 55.7704 213.629C54.0139 214.283 52.1931 214.748 50.3384 215.018C46.844 215.578 39.1944 218.316 35.448 220.248C34.3151 220.87 33.3085 221.698 32.48 222.69C34.3697 218.488 36.4993 214.399 38.8584 210.442C40.3424 211.249 43.6968 212.901 46.8216 213.242C50.9824 213.679 56 212.313 58.856 208.97C61.712 205.626 63.6552 202.849 63.6552 202.849C63.6552 202.849 62.9384 202.983 60.1496 203.213C57.3608 203.442 53.116 203.532 47.2696 204.725C44.8065 205.244 42.4887 206.301 40.4824 207.822C42.6608 204.344 44.8112 201.23 46.8552 198.302C49.2128 194.88 51.4248 191.688 53.4184 188.328Z" fill="#92E3A9"/>
</svg>
