<svg width="263" height="256" viewBox="0 0 263 256" fill="none" xmlns="http://www.w3.org/2000/svg">
<path d="M18.8195 97.095C18.8195 97.095 8.91725 140.771 37.5358 179.048C66.1543 217.326 115.68 232.476 155.54 245.794C195.399 259.111 232.51 244.283 246.257 210.81C260.004 177.337 231.672 159.065 225.164 115.181C218.655 71.2975 223.538 58.6959 194.311 25.1298C165.084 -8.43624 105.527 -8.04244 65.5099 25.9676C25.4926 59.9776 18.8195 97.095 18.8195 97.095Z" fill="#92E3A9"/>
<path opacity="0.7" d="M18.8195 97.095C18.8195 97.095 8.91725 140.771 37.5358 179.048C66.1543 217.326 115.68 232.476 155.54 245.794C195.399 259.111 232.51 244.283 246.257 210.81C260.004 177.337 231.672 159.065 225.164 115.181C218.655 71.2975 223.538 58.6959 194.311 25.1298C165.084 -8.43624 105.527 -8.04244 65.5099 25.9676C25.4926 59.9776 18.8195 97.095 18.8195 97.095Z" fill="white"/>
<path d="M65.56 36.772H14.008V100.496H65.56V36.772Z" stroke="#263238" stroke-linecap="round" stroke-linejoin="round"/>
<path d="M57.4549 46.796H22.1203V90.472H57.4549V46.796Z" stroke="#263238" stroke-linecap="round" stroke-linejoin="round"/>
<path d="M139.308 76.868H87.756V140.592H139.308V76.868Z" stroke="#263238" stroke-linecap="round" stroke-linejoin="round"/>
<path d="M131.203 86.892H95.8683V130.568H131.203V86.892Z" stroke="#263238" stroke-linecap="round" stroke-linejoin="round"/>
<path d="M203.719 56.8844H163.108V107.656H203.719V56.8844Z" stroke="#263238" stroke-linecap="round" stroke-linejoin="round"/>
<path d="M254.484 56.8844H213.872V107.656H254.484V56.8844Z" stroke="#263238" stroke-linecap="round" stroke-linejoin="round"/>
<path d="M203.719 115.962H163.108V166.733H203.719V115.962Z" stroke="#263238" stroke-linecap="round" stroke-linejoin="round"/>
<path d="M254.484 115.962H213.872V166.733H254.484V115.962Z" stroke="#263238" stroke-linecap="round" stroke-linejoin="round"/>
<path d="M203.719 175.039H163.108V225.803H203.719V175.039Z" stroke="#263238" stroke-linecap="round" stroke-linejoin="round"/>
<path d="M254.484 175.039H213.872V225.803H254.484V175.039Z" stroke="#263238" stroke-linecap="round" stroke-linejoin="round"/>
<path d="M209.254 4.27277C197.258 4.27277 185.754 9.03803 177.272 17.5202C168.79 26.0025 164.024 37.5068 164.024 49.5025H254.484C254.484 37.5068 249.718 26.0025 241.236 17.5202C232.754 9.03803 221.25 4.27277 209.254 4.27277Z" stroke="#263238" stroke-linecap="round" stroke-linejoin="round"/>
<path d="M57.5265 133.325C57.5265 133.325 57.3475 129.873 52.2567 125.298C47.1659 120.723 43.9225 118.138 43.9225 118.138C43.9225 118.138 41.9177 126.208 46.6648 130.804C50.1437 134.031 53.8872 136.96 57.8558 139.561L57.5265 133.325Z" fill="#92E3A9"/>
<path d="M51.6481 155.256C51.6481 155.256 51.462 151.805 46.3784 147.222C41.2948 142.64 38.037 140.062 38.037 140.062C38.037 140.062 36.0393 148.132 40.7793 152.728C44.2542 155.949 47.9929 158.874 51.956 161.471L51.6481 155.256Z" fill="#92E3A9"/>
<path d="M57.5336 139.224C57.5336 139.224 57.7198 135.773 62.8106 131.198C67.9013 126.623 71.152 124.038 71.152 124.038C71.152 124.038 73.1496 132.107 68.4025 136.704C64.9189 139.926 61.1733 142.853 57.2043 145.454L57.5336 139.224Z" fill="#92E3A9"/>
<path d="M50.3951 165.129C50.3951 165.129 50.9393 161.721 56.4883 157.704C62.0373 153.688 65.56 151.447 65.56 151.447C65.56 151.447 66.6913 159.681 61.4931 163.755C57.6897 166.593 53.6567 169.11 49.4357 171.28L50.3951 165.129Z" fill="#92E3A9"/>
<path d="M53.4453 192.81C53.4453 192.81 53.2663 189.359 57.8487 184.268C62.4311 179.177 65.3881 176.256 65.3881 176.256C65.3881 176.256 68.2522 184.075 63.9562 189.144C60.8354 192.718 57.42 196.023 53.746 199.025L53.4453 192.81Z" fill="#92E3A9"/>
<path d="M53.7245 199.59C53.7245 199.59 54.0324 196.146 49.6504 190.891C45.2685 185.636 42.4117 182.6 42.4117 182.6C42.4117 182.6 39.2899 190.304 43.3282 195.531C46.3179 199.217 49.6084 202.649 53.166 205.791L53.7245 199.59Z" fill="#92E3A9"/>
<path d="M50.0156 219.925C50.0156 219.925 49.8295 216.474 54.4119 211.383C58.9943 206.292 61.98 203.371 61.98 203.371C61.98 203.371 64.844 211.19 60.548 216.259C57.425 219.83 54.0098 223.135 50.3378 226.14L50.0156 219.925Z" fill="#92E3A9"/>
<path d="M54.1971 237.968C54.1971 237.968 53.1446 234.674 56.2878 228.596C59.4311 222.517 61.5576 218.937 61.5576 218.937C61.5576 218.937 66.276 225.775 63.4621 231.753C61.3468 236.009 58.88 240.08 56.0873 243.925L54.1971 237.968Z" fill="#92E3A9"/>
<path d="M57.9202 132.422C57.8615 136.03 57.6082 139.632 57.1613 143.213C55.7293 153.179 51.3259 159.802 49.8796 168.817C48.4332 177.831 54.5264 189.029 53.66 200.564C52.7937 212.099 48.648 218.693 50.345 226.269C52.0419 233.844 60.5981 255.625 60.5981 255.625" stroke="#263238" stroke-width="0.5" stroke-linecap="round" stroke-linejoin="round"/>
<path d="M57.6052 141.523L62.6029 137.248" stroke="#263238" stroke-width="0.5" stroke-linecap="round" stroke-linejoin="round"/>
<path d="M57.6052 136.905L55.2209 133.146" stroke="#263238" stroke-width="0.5" stroke-linecap="round" stroke-linejoin="round"/>
<path d="M50.1517 168.394C50.1517 168.394 54.3403 164.893 58.6506 161.385" stroke="#263238" stroke-width="0.5" stroke-linecap="round" stroke-linejoin="round"/>
<path d="M51.956 161.471C51.956 161.471 47.9535 154.54 43.5859 150.015" stroke="#263238" stroke-width="0.5" stroke-linecap="round" stroke-linejoin="round"/>
<path d="M53.8749 197.714C56.1223 192.995 59.0431 188.628 62.5456 184.748" stroke="#263238" stroke-width="0.5" stroke-linecap="round" stroke-linejoin="round"/>
<path d="M53.2806 202.605C51.7975 199.56 50.0611 196.645 48.0896 193.891C45.3473 190.268 44.9607 189.803 44.9607 189.803" stroke="#263238" stroke-width="0.5" stroke-linecap="round" stroke-linejoin="round"/>
<path d="M50.345 226.269C51.3076 223.468 52.4804 220.744 53.8534 218.12C55.2395 215.683 56.8249 213.365 58.5933 211.19" stroke="#263238" stroke-width="0.5" stroke-linecap="round" stroke-linejoin="round"/>
<path d="M56.0873 243.889C55.6889 241.286 55.9929 238.624 56.968 236.178C58.6005 232.598 60.4191 227.858 61.1709 225.996" stroke="#263238" stroke-width="0.5" stroke-linecap="round" stroke-linejoin="round"/>
<path d="M28.328 181.11C28.328 181.11 27.8411 178.962 30.1609 175.282C32.4808 171.602 34.0202 169.44 34.0202 169.44C34.0202 169.44 36.6407 174.029 34.5428 177.666C32.9626 180.251 31.1687 182.699 29.18 184.984L28.328 181.11Z" fill="#92E3A9"/>
<path d="M35.7099 193.519C35.7099 193.519 35.223 191.371 37.5429 187.683C39.8627 183.996 41.4021 181.841 41.4021 181.841C41.4021 181.841 44.0227 186.43 41.9176 190.075C40.3483 192.653 38.5664 195.096 36.5906 197.378L35.7099 193.519Z" fill="#92E3A9"/>
<path d="M29.3232 184.726C29.3232 184.726 28.6072 182.643 24.6979 180.724C20.7885 178.805 18.3398 177.781 18.3398 177.781C18.3398 177.781 18.5259 183.072 22.2277 185.056C24.9195 186.427 27.7218 187.569 30.6049 188.471L29.3232 184.726Z" fill="#92E3A9"/>
<path d="M38.1873 199.347C38.1873 199.347 37.2637 197.349 33.1753 195.853C29.0869 194.356 26.5523 193.597 26.5523 193.597C26.5523 193.597 27.2683 198.839 31.1777 200.428C33.9984 201.504 36.9033 202.345 39.8628 202.941L38.1873 199.347Z" fill="#92E3A9"/>
<path d="M41.13 216.825C41.13 216.825 40.6432 214.677 36.9558 212.357C33.2684 210.037 30.9414 208.777 30.9414 208.777C30.9414 208.777 30.569 214.054 34.0416 216.424C36.5743 218.074 39.2399 219.511 42.0107 220.72L41.13 216.825Z" fill="#92E3A9"/>
<path d="M42.1396 221.02C42.1396 221.02 41.352 218.965 43.1206 214.992C44.8891 211.018 46.1134 208.655 46.1134 208.655C46.1134 208.655 49.3641 212.829 47.796 216.731C46.6064 219.508 45.1886 222.18 43.5573 224.722L42.1396 221.02Z" fill="#92E3A9"/>
<path d="M49.092 238.168C49.092 238.168 49.228 235.97 52.493 233.085C55.7579 230.199 57.8415 228.567 57.8415 228.567C57.8415 228.567 59.0659 233.715 56.0229 236.608C53.7943 238.642 51.3992 240.486 48.8629 242.121L49.092 238.168Z" fill="#92E3A9"/>
<path d="M47.9392 232.827C47.9392 232.827 47.4523 230.679 43.7649 228.359C40.0775 226.039 37.7577 224.779 37.7577 224.779C37.7577 224.779 37.3782 230.056 40.8508 232.426C43.3816 234.08 46.0474 235.517 48.8199 236.722L47.9392 232.827Z" fill="#92E3A9"/>
<path d="M48.512 244.598C48.512 244.598 48.5836 242.4 45.6051 239.221C42.6265 236.042 40.7005 234.209 40.7005 234.209C40.7005 234.209 38.9964 239.221 41.7602 242.386C43.7914 244.62 46.0068 246.68 48.3831 248.543L48.512 244.598Z" fill="#92E3A9"/>
<path d="M27.9055 180.624C28.5645 182.813 29.3438 184.964 30.2397 187.068C32.8244 192.932 36.6837 196.218 39.1467 201.488C41.6098 206.758 39.8126 214.669 42.3401 221.579C44.8676 228.488 48.5478 231.81 48.8413 236.744C49.1349 241.677 47.9034 255.474 47.9034 255.474" stroke="#263238" stroke-width="0.5" stroke-linecap="round" stroke-linejoin="round"/>
<path d="M29.6741 186.144L25.8721 184.397" stroke="#263238" stroke-width="0.5" stroke-linecap="round" stroke-linejoin="round"/>
<path d="M28.8721 183.316L29.6812 180.602" stroke="#263238" stroke-width="0.5" stroke-linecap="round" stroke-linejoin="round"/>
<path d="M38.9033 201.302C38.9033 201.302 35.7314 199.87 32.4593 198.488" stroke="#263238" stroke-width="0.5" stroke-linecap="round" stroke-linejoin="round"/>
<path d="M36.5906 197.378C37.3444 194.46 38.3952 191.626 39.7267 188.922" stroke="#263238" stroke-width="0.5" stroke-linecap="round" stroke-linejoin="round"/>
<path d="M41.7172 219.896C39.5223 217.393 36.9754 215.223 34.1562 213.452" stroke="#263238" stroke-width="0.5" stroke-linecap="round" stroke-linejoin="round"/>
<path d="M42.9272 222.789C43.3117 220.668 43.8697 218.582 44.5955 216.552C45.648 213.86 45.8056 213.502 45.8056 213.502" stroke="#263238" stroke-width="0.5" stroke-linecap="round" stroke-linejoin="round"/>
<path d="M48.87 240.517C49.9912 238.962 51.2492 237.509 52.629 236.178C53.5143 235.453 54.3381 234.655 55.092 233.794" stroke="#263238" stroke-width="0.5" stroke-linecap="round" stroke-linejoin="round"/>
<path d="M48.8414 236.772C47.7597 235.224 46.563 233.759 45.2614 232.39C43.9897 231.139 42.6176 229.995 41.1587 228.968" stroke="#263238" stroke-width="0.5" stroke-linecap="round" stroke-linejoin="round"/>
<path d="M48.376 248.558C48.1641 246.894 47.5115 245.317 46.4858 243.99C44.8604 242.064 42.9058 239.493 42.1396 238.484" stroke="#263238" stroke-width="0.5" stroke-linecap="round" stroke-linejoin="round"/>
<path d="M124.58 91.0305C122.684 90.6424 120.937 89.7237 119.542 88.3813C118.148 87.0389 117.164 85.3281 116.704 83.448C115.136 76.9181 119.317 75.0852 115.136 72.214C110.954 69.3428 109.408 64.6316 112.787 59.6697C116.167 54.7078 137.611 35.0966 158.261 37.1873C178.91 39.278 187.273 74.5625 188.841 85.0161C190.409 95.4697 185.182 104.097 187.008 109.36C188.834 114.623 203.218 134.42 199.294 143.599C195.371 152.778 188.554 167.385 192.235 174.437C195.915 181.49 183.643 196.132 171.85 200.836C162.872 204.416 146.239 205.805 137.611 189.86C128.983 173.915 129.019 142.554 127.945 125.305C126.871 108.057 127.68 101.52 127.68 96.8158C127.68 92.1116 124.58 91.0305 124.58 91.0305Z" fill="#263238" stroke="#263238" stroke-linecap="round" stroke-linejoin="round"/>
<path d="M151.781 50.4906C151.781 50.4906 159.821 77.0971 182.404 90.7083" stroke="#595959" stroke-linecap="round" stroke-linejoin="round"/>
<path d="M152.704 44.3043C152.704 44.3043 166.008 61.0086 174.055 73.0732C182.103 85.1378 185.848 92.5699 185.848 92.5699" stroke="#595959" stroke-linecap="round" stroke-linejoin="round"/>
<path d="M163.845 43.0656C163.845 43.0656 187.051 72.4574 187.051 90.4004" stroke="#595959" stroke-linecap="round" stroke-linejoin="round"/>
<path d="M143.733 47.3974C143.733 47.3974 116.818 58.252 115.888 62.2473C114.957 66.2426 119.604 68.7414 119.604 68.7414" stroke="#595959" stroke-linecap="round" stroke-linejoin="round"/>
<path d="M144.972 43.3735C144.972 43.3735 122.382 48.944 116.196 57.2926" stroke="#595959" stroke-linecap="round" stroke-linejoin="round"/>
<path d="M169.101 88.8538C169.101 88.8538 178.409 94.7322 179.934 101.541C181.459 108.351 173.748 112.997 177.149 119.484C180.55 125.971 191.998 127.84 191.998 138.05" stroke="#595959" stroke-linecap="round" stroke-linejoin="round"/>
<path d="M136.602 117.429C136.602 117.429 133.465 119.255 124.057 121.346C114.649 123.437 108.642 121.088 104.983 126.05C101.324 131.012 91.1284 152.449 86.1594 160.554C81.1903 168.659 69.6914 180.674 67.8656 186.688C66.0398 192.702 67.6078 198.71 73.88 197.664C80.1521 196.619 88.515 185.643 94.2645 179.106C100.014 172.569 102.627 169.697 102.627 169.697C102.627 169.697 103.938 180.437 104.46 185.643C104.983 190.848 93.2191 255.424 93.2191 255.424H171.886C171.886 255.424 159.342 189.552 159.864 187.469C160.387 185.385 176.59 156.895 176.59 156.895C176.59 156.895 189.399 181.719 191.49 186.165C193.581 190.612 196.717 194.757 202.731 195.309C208.746 195.86 207.693 187.733 206.39 182.507C205.087 177.28 195.407 157.941 192.292 150.616C189.177 143.291 188.376 139.876 182.884 132.838C177.392 125.799 162.499 122.098 159.363 120.816C156.227 119.534 151 117.422 151 117.422C151 117.422 141.828 113.771 136.602 117.429Z" fill="#92E3A9"/>
<mask id="mask0_179_5770" style="mask-type:luminance" maskUnits="userSpaceOnUse" x="67" y="115" width="141" height="141">
<path d="M136.602 117.429C136.602 117.429 133.465 119.255 124.057 121.346C114.649 123.437 108.642 121.088 104.983 126.05C101.324 131.012 91.1284 152.449 86.1594 160.554C81.1903 168.659 69.6914 180.674 67.8656 186.688C66.0398 192.702 67.6078 198.71 73.88 197.664C80.1521 196.619 88.515 185.643 94.2645 179.106C100.014 172.569 102.627 169.697 102.627 169.697C102.627 169.697 103.938 180.437 104.46 185.643C104.983 190.848 93.2191 255.424 93.2191 255.424H171.886C171.886 255.424 159.342 189.552 159.864 187.469C160.387 185.385 176.59 156.895 176.59 156.895C176.59 156.895 189.399 181.719 191.49 186.165C193.581 190.612 196.717 194.757 202.731 195.309C208.746 195.86 207.693 187.733 206.39 182.507C205.087 177.28 195.407 157.941 192.292 150.616C189.177 143.291 188.376 139.876 182.884 132.838C177.392 125.799 162.499 122.098 159.363 120.816C156.227 119.534 151 117.422 151 117.422C151 117.422 141.828 113.771 136.602 117.429Z" fill="white"/>
</mask>
<g mask="url(#mask0_179_5770)">
<g opacity="0.2">
<path d="M158.475 152.291L160.308 147.623L160.108 147.552L158.275 152.213L158.475 152.291Z" fill="black"/>
<path d="M161.64 148.153L161.44 148.074L159.607 152.735L159.807 152.814L161.64 148.153Z" fill="black"/>
<path d="M193.817 168.387L193.652 168.523L195.185 170.399H195.464L193.817 168.387Z" fill="black"/>
<path d="M194.762 167.621L197.039 170.399H197.311L194.927 167.485L194.762 167.621Z" fill="black"/>
<path d="M189.343 170.07L189.142 170.142L189.235 170.4H189.465L189.343 170.07Z" fill="black"/>
<path d="M190.488 169.654L190.76 170.399H190.989L190.695 169.583L190.488 169.654Z" fill="black"/>
<path d="M183.242 167.958L183.034 167.907L182.776 168.924L182.927 169.211L183.242 167.958Z" fill="black"/>
<path d="M184.631 168.316L184.423 168.258L183.879 170.399H184.101L184.631 168.316Z" fill="black"/>
<path d="M167.948 167.585L167.74 167.521L166.924 170.399H167.146L167.948 167.585Z" fill="black"/>
<path d="M168.635 170.399L169.323 167.972L169.115 167.915L168.413 170.399H168.635Z" fill="black"/>
<path d="M160.58 168.129L161.261 170.399H161.483L160.788 168.072L160.58 168.129Z" fill="black"/>
<path d="M162.156 167.657L161.955 167.721L162.757 170.399H162.979L162.156 167.657Z" fill="black"/>
<path d="M168.013 156.988L170.504 152.642L170.318 152.535L167.826 156.881L168.013 156.988Z" fill="black"/>
<path d="M171.565 153.254L169.073 157.603L169.259 157.709L171.751 153.361L171.565 153.254Z" fill="black"/>
<path d="M196.946 162.108L197.726 162.437L197.583 162.151L197.032 161.914L196.946 162.108Z" fill="black"/>
<path d="M180.943 142.217L183.435 137.871L183.249 137.764L180.757 142.117L180.943 142.217Z" fill="black"/>
<path d="M179.705 141.508L182.189 137.162L182.003 137.055L179.511 141.401L179.705 141.508Z" fill="black"/>
<path d="M170.548 137.258L170.382 137.395L173.556 141.274L173.722 141.138L170.548 137.258Z" fill="black"/>
<path d="M171.659 136.344L171.493 136.48L174.667 140.359L174.833 140.223L171.659 136.344Z" fill="black"/>
<path d="M164.998 138.563L164.796 138.636L166.498 143.35L166.7 143.277L164.998 138.563Z" fill="black"/>
<path d="M166.346 138.067L166.144 138.14L167.845 142.854L168.047 142.781L166.346 138.067Z" fill="black"/>
<path d="M180.005 160.969L181.452 165.774L181.652 165.709L180.213 160.912L180.005 160.969Z" fill="black"/>
<path d="M187.323 162.931L192.285 162.23L192.256 162.022L187.294 162.716L187.323 162.931Z" fill="black"/>
<path d="M192.457 163.44L187.495 164.134L187.524 164.349L192.485 163.647L192.457 163.44Z" fill="black"/>
<path d="M191.146 158.241L191.361 158.284L192.478 153.401L192.271 153.351L191.146 158.241Z" fill="black"/>
<path d="M192.757 158.607L193.803 154.038L193.652 153.716L192.543 158.556L192.757 158.607Z" fill="black"/>
<path d="M176.075 155.456L176.261 155.571L178.939 151.339L178.76 151.225L176.075 155.456Z" fill="black"/>
<path d="M180.149 152.105L179.97 151.991L177.285 156.222L177.471 156.337L180.149 152.105Z" fill="black"/>
<path d="M175.409 147.029L175.488 147.222L180.084 145.225L179.998 145.024L175.409 147.029Z" fill="black"/>
<path d="M175.982 148.339L176.06 148.54L180.657 146.535L180.571 146.334L175.982 148.339Z" fill="black"/>
<path d="M171.64 144.303L170.276 149.126L170.483 149.185L171.847 144.362L171.64 144.303Z" fill="black"/>
<path d="M170.255 143.915L168.891 148.738L169.098 148.796L170.462 143.973L170.255 143.915Z" fill="black"/>
<path d="M187.108 141.945L188.547 146.742L188.755 146.685L187.309 141.881L187.108 141.945Z" fill="black"/>
<path d="M185.734 142.353L187.18 147.158L187.38 147.093L185.941 142.296L185.734 142.353Z" fill="black"/>
<path d="M174.764 133.06L174.893 133.232L178.896 130.21L178.767 130.038L174.764 133.06Z" fill="black"/>
<path d="M175.631 134.205L175.76 134.377L179.762 131.356L179.633 131.184L175.631 134.205Z" fill="black"/>
<path d="M170.705 125.477L172.094 130.289L172.301 130.231L170.912 125.413L170.705 125.477Z" fill="black"/>
<path d="M169.33 125.871L170.719 130.683L170.927 130.625L169.538 125.814L169.33 125.871Z" fill="black"/>
<path d="M164.541 125.583L164.247 130.586L164.461 130.599L164.756 125.596L164.541 125.583Z" fill="black"/>
<path d="M165.971 125.662L165.677 130.666L165.891 130.678L166.186 125.675L165.971 125.662Z" fill="black"/>
<path d="M170.726 163.769L170.898 163.898L173.941 159.917L173.769 159.788L170.726 163.769Z" fill="black"/>
<path d="M172.029 164.771L172.437 164.249L173.189 162.91L171.857 164.642L172.029 164.771Z" fill="black"/>
<path d="M168.199 163.089L168.349 162.938L164.884 159.323L164.726 159.473L168.199 163.089Z" fill="black"/>
<path d="M163.695 160.461L167.16 164.077L167.318 163.934L163.845 160.318L163.695 160.461Z" fill="black"/>
<path d="M182.717 154.046L182.633 154.244L187.247 156.201L187.331 156.003L182.717 154.046Z" fill="black"/>
<path d="M183.185 152.914L187.803 154.876L187.882 154.676L183.27 152.721L183.185 152.914Z" fill="black"/>
<path d="M159.578 125.37L159.678 125.177L157.208 123.852V124.095L159.578 125.37Z" fill="black"/>
<path d="M157.208 122.47L160.251 124.103L160.351 123.916L157.208 122.219V122.47Z" fill="black"/>
<path d="M157.208 131.391V131.678L159.105 130.031L158.969 129.873L157.208 131.391Z" fill="black"/>
<path d="M158.175 128.95L158.031 128.785L157.208 129.501V129.78L158.175 128.95Z" fill="black"/>
<path d="M157.208 137.485V137.714L161.726 135.945L161.64 135.752L157.208 137.485Z" fill="black"/>
<path d="M157.208 136.181L161.203 134.613L161.125 134.413L157.208 135.945V136.181Z" fill="black"/>
<path d="M159.872 145.046L159.922 144.838L157.208 144.222V144.444L159.872 145.046Z" fill="black"/>
<path d="M157.208 142.754V142.976L160.187 143.649L160.237 143.442L157.208 142.754Z" fill="black"/>
<path d="M159.864 160.475L159.922 160.268L157.208 159.58V159.802L159.864 160.475Z" fill="black"/>
<path d="M157.208 158.32L160.215 159.086L160.273 158.879L157.208 158.098V158.32Z" fill="black"/>
<path d="M160.566 164.807L160.502 164.607L157.208 165.695V165.917L160.566 164.807Z" fill="black"/>
<path d="M160.122 163.454L160.051 163.246L157.208 164.184V164.413L160.122 163.454Z" fill="black"/>
<path d="M160.108 199.104L158.275 203.765L158.475 203.843L160.308 199.175L160.108 199.104Z" fill="black"/>
<path d="M161.44 199.626L159.607 204.287L159.807 204.366L161.64 199.705L161.44 199.626Z" fill="black"/>
<path d="M206.727 184.698L206.87 184.863L206.827 184.619L206.727 184.698Z" fill="black"/>
<path d="M205.932 183.774L206.562 183.237C206.562 183.158 206.526 183.072 206.505 183.001L205.789 183.616L205.932 183.774Z" fill="black"/>
<path d="M160.58 219.681L161.261 221.951H161.483L160.788 219.624L160.58 219.681Z" fill="black"/>
<path d="M161.955 219.273L162.757 221.951H162.979L162.156 219.209L161.955 219.273Z" fill="black"/>
<path d="M192.013 181.025L188.841 177.151L188.676 177.287L191.848 181.161L192.013 181.025Z" fill="black"/>
<path d="M187.566 178.189L190.738 182.07L190.91 181.934L187.731 178.053L187.566 178.189Z" fill="black"/>
<path d="M202.008 188.679L200.774 193.537L200.982 193.59L202.216 188.732L202.008 188.679Z" fill="black"/>
<path d="M203.381 189.003L202.147 193.86L202.355 193.913L203.59 189.056L203.381 189.003Z" fill="black"/>
<path d="M196.001 191.836L194.769 191.321C194.891 191.449 195.006 191.578 195.127 191.7L195.915 192.037L196.001 191.836Z" fill="black"/>
<path d="M164.461 178.54L164.705 178.103L164.762 177.129H164.547L164.461 178.54Z" fill="black"/>
<path d="M163.803 211.913L163.695 212.013L163.853 212.178L163.803 211.913Z" fill="black"/>
<path d="M200.182 184.11L200.018 183.974L196.86 187.869L197.032 188.006L200.182 184.11Z" fill="black"/>
<path d="M199.065 183.208L198.901 183.072L195.75 186.967L195.915 187.103L199.065 183.208Z" fill="black"/>
<path d="M199.781 175.69L199.574 175.669L199.008 180.645L199.223 180.674L199.781 175.69Z" fill="black"/>
<path d="M198.149 175.504L197.583 180.488L197.798 180.509L198.364 175.533L198.149 175.504Z" fill="black"/>
<path d="M159.578 176.922L159.678 176.729L157.208 175.404V175.647L159.578 176.922Z" fill="black"/>
<path d="M160.351 175.468L157.208 173.779V174.022L160.251 175.655L160.351 175.468Z" fill="black"/>
<path d="M157.208 183.23L159.105 181.583L158.969 181.425L157.208 182.943V183.23Z" fill="black"/>
<path d="M158.175 180.502L158.031 180.337L157.208 181.053V181.332L158.175 180.502Z" fill="black"/>
<path d="M157.208 189.037V189.28L159.879 188.235C159.879 188.156 159.879 188.084 159.879 188.013L157.208 189.037Z" fill="black"/>
<path d="M157.208 187.733L160.251 186.538L160.387 186.251L157.208 187.497V187.733Z" fill="black"/>
<path d="M159.872 196.598L159.922 196.39L157.208 195.774V195.996L159.872 196.598Z" fill="black"/>
<path d="M157.208 194.528L160.187 195.201L160.237 194.994L157.208 194.306V194.528Z" fill="black"/>
<path d="M159.864 212.027L159.922 211.82L157.208 211.132V211.354L159.864 212.027Z" fill="black"/>
<path d="M157.208 209.872L160.215 210.638L160.273 210.431L157.208 209.65V209.872Z" fill="black"/>
<path d="M160.566 216.359L160.502 216.159L157.208 217.247V217.469L160.566 216.359Z" fill="black"/>
<path d="M160.122 215.006L160.051 214.798L157.208 215.736V215.965L160.122 215.006Z" fill="black"/>
<path d="M201.478 172.991L201.664 173.098L202.216 172.139L202.108 171.903L201.478 172.991Z" fill="black"/>
<path d="M202.724 173.708L202.911 173.815V173.758L202.803 173.514L202.724 173.708Z" fill="black"/>
<path d="M196.996 172.268L195.464 170.399H195.185L196.824 172.404L196.996 172.268Z" fill="black"/>
<path d="M197.934 171.495L198.099 171.359L197.311 170.399H197.039L197.934 171.495Z" fill="black"/>
<path d="M189.235 170.399L190.846 174.86L191.046 174.781L189.464 170.399H189.235Z" fill="black"/>
<path d="M192.192 174.373L192.392 174.294L190.989 170.399H190.76L192.192 174.373Z" fill="black"/>
<path d="M183.879 170.399L183.765 170.85L183.915 171.144L184.101 170.428L183.879 170.399Z" fill="black"/>
<path d="M166.581 172.404L167.146 170.399H166.924L166.373 172.347L166.581 172.404Z" fill="black"/>
<path d="M167.833 172.461L168.285 171.645L168.643 170.399H168.413L167.833 172.461Z" fill="black"/>
<path d="M162.027 172.934L162.227 172.869L161.483 170.399H161.261L162.027 172.934Z" fill="black"/>
<path d="M163.602 172.461L162.979 170.399H162.757L163.394 172.518L163.602 172.461Z" fill="black"/>
<path d="M160.108 250.656L158.275 255.317L158.475 255.395L160.308 250.727L160.108 250.656Z" fill="black"/>
<path d="M161.44 251.178L159.771 255.424H160L161.64 251.257L161.44 251.178Z" fill="black"/>
<path d="M164.995 241.67L164.793 241.743L166.495 246.457L166.697 246.384L164.995 241.67Z" fill="black"/>
<path d="M166.348 241.173L166.146 241.245L167.847 245.96L168.049 245.887L166.348 241.173Z" fill="black"/>
<path d="M170.962 250.527C170.962 250.376 170.898 250.219 170.869 250.054L170.261 252.202L170.468 252.259L170.962 250.527Z" fill="black"/>
<path d="M170.361 247.369L170.297 247.011H170.246L168.879 251.837L169.086 251.894L170.361 247.369Z" fill="black"/>
<path d="M164.553 228.703L164.262 233.706L164.476 233.719L164.768 228.715L164.553 228.703Z" fill="black"/>
<path d="M165.989 228.789L165.698 233.792L165.913 233.805L166.204 228.801L165.989 228.789Z" fill="black"/>
<path d="M159.578 228.474L159.678 228.281L157.208 226.956V227.199L159.578 228.474Z" fill="black"/>
<path d="M160.351 227.02L157.208 225.331V225.574L160.251 227.207L160.351 227.02Z" fill="black"/>
<path d="M157.208 234.782L159.105 233.135L158.969 232.977L157.208 234.495V234.782Z" fill="black"/>
<path d="M158.175 232.054L158.031 231.889L157.208 232.605V232.884L158.175 232.054Z" fill="black"/>
<path d="M161.64 238.856L157.208 240.589V240.818L161.726 239.049L161.64 238.856Z" fill="black"/>
<path d="M161.203 237.717L161.125 237.517L157.208 239.049V239.285L161.203 237.717Z" fill="black"/>
<path d="M159.872 248.15L159.922 247.942L157.208 247.326V247.548L159.872 248.15Z" fill="black"/>
<path d="M160.187 246.753L160.237 246.546L157.208 245.858V246.08L160.187 246.753Z" fill="black"/>
<path d="M162.027 224.486L162.227 224.421L161.483 221.951H161.261L162.027 224.486Z" fill="black"/>
<path d="M163.394 224.07L163.602 224.013L162.979 221.951H162.757L163.394 224.07Z" fill="black"/>
<path d="M151.416 118.84H151.666L152.196 117.916L151.996 117.838L151.416 118.84Z" fill="black"/>
<path d="M153.313 118.84L153.535 118.453L153.334 118.375L153.07 118.84H153.313Z" fill="black"/>
<path d="M142.1 116.971L143.633 118.847H143.912L142.265 116.835L142.1 116.971Z" fill="black"/>
<path d="M143.21 116.069L145.487 118.847H145.759L143.375 115.933L143.21 116.069Z" fill="black"/>
<path d="M137.791 118.518L137.59 118.59L137.683 118.848H137.913L137.791 118.518Z" fill="black"/>
<path d="M139.143 118.031L138.936 118.102L139.208 118.847H139.437L139.143 118.031Z" fill="black"/>
<path d="M108.556 147.552L106.723 152.213L106.923 152.291L108.756 147.623L108.556 147.552Z" fill="black"/>
<path d="M109.888 148.074L108.055 152.735L108.255 152.814L110.088 148.153L109.888 148.074Z" fill="black"/>
<path d="M157.208 123.852L155.261 122.799L155.16 122.993L157.208 124.095V123.852Z" fill="black"/>
<path d="M155.941 121.539L155.841 121.733L157.208 122.47V122.219L155.941 121.539Z" fill="black"/>
<path d="M155.175 133.146L155.318 133.31L157.208 131.678V131.391L155.175 133.146Z" fill="black"/>
<path d="M154.38 132.222L157.208 129.78V129.501L154.244 132.064L154.38 132.222Z" fill="black"/>
<path d="M156.979 137.578L157.058 137.779L157.209 137.714V137.485L156.979 137.578Z" fill="black"/>
<path d="M156.456 136.246L156.535 136.439L157.208 136.181V135.945L156.456 136.246Z" fill="black"/>
<path d="M154.981 143.943L157.208 144.444V144.222L155.031 143.735L154.981 143.943Z" fill="black"/>
<path d="M155.346 142.339L155.296 142.547L157.208 142.976V142.754L155.346 142.339Z" fill="black"/>
<path d="M155.01 159.244L157.208 159.802V159.58L155.06 159.036L155.01 159.244Z" fill="black"/>
<path d="M155.418 157.647L155.361 157.855L157.208 158.32V158.098L155.418 157.647Z" fill="black"/>
<path d="M157.208 165.917V165.695L155.74 166.175L155.812 166.382L157.208 165.917Z" fill="black"/>
<path d="M157.208 164.413V164.184L155.296 164.814L155.361 165.022L157.208 164.413Z" fill="black"/>
<path d="M127.738 121.382L126.377 120.802L126.033 120.888L127.659 121.604L127.738 121.382Z" fill="black"/>
<path d="M127.179 122.692L124.014 121.353L123.649 121.425L127.1 122.857L127.179 122.692Z" fill="black"/>
<path d="M151.416 170.399H151.666L152.604 168.752L152.418 168.645L151.416 170.399Z" fill="black"/>
<path d="M153.313 170.399L153.85 169.461L153.664 169.354L153.07 170.399H153.313Z" fill="black"/>
<path d="M142.1 168.523L143.633 170.399H143.912L142.265 168.387L142.1 168.523Z" fill="black"/>
<path d="M143.21 167.621L145.487 170.399H145.759L143.375 167.485L143.21 167.621Z" fill="black"/>
<path d="M137.791 170.07L137.59 170.142L137.683 170.4H137.913L137.791 170.07Z" fill="black"/>
<path d="M138.936 169.654L139.208 170.399H139.437L139.143 169.583L138.936 169.654Z" fill="black"/>
<path d="M131.69 167.965L131.482 167.907L130.852 170.399H131.074L131.69 167.965Z" fill="black"/>
<path d="M133.079 168.316L132.871 168.258L132.327 170.399H132.549L133.079 168.316Z" fill="black"/>
<path d="M116.396 167.585L116.188 167.521L115.372 170.399H115.594L116.396 167.585Z" fill="black"/>
<path d="M117.771 167.972L117.563 167.915L116.861 170.399H117.091L117.771 167.972Z" fill="black"/>
<path d="M109.028 168.129L109.709 170.399H109.931L109.236 168.072L109.028 168.129Z" fill="black"/>
<path d="M110.403 167.721L111.205 170.399H111.427L110.604 167.657L110.403 167.721Z" fill="black"/>
<path d="M116.461 156.988L118.952 152.642L118.766 152.535L116.274 156.881L116.461 156.988Z" fill="black"/>
<path d="M117.706 157.697L120.198 153.351L120.012 153.244L117.52 157.597L117.706 157.697Z" fill="black"/>
<path d="M137.292 125.609L137.126 125.745L140.3 129.624L140.466 129.488L137.292 125.609Z" fill="black"/>
<path d="M134.875 126.439L134.709 126.574L137.867 130.433L138.032 130.298L134.875 126.439Z" fill="black"/>
<path d="M131.703 128.182L131.501 128.255L133.203 132.969L133.405 132.896L131.703 128.182Z" fill="black"/>
<path d="M133.051 127.686L132.849 127.759L134.55 132.474L134.752 132.401L133.051 127.686Z" fill="black"/>
<path d="M145.953 160.79L150.571 162.752L150.649 162.552L146.038 160.597L145.953 160.79Z" fill="black"/>
<path d="M145.482 161.926L145.398 162.124L150.012 164.081L150.096 163.884L145.482 161.926Z" fill="black"/>
<path d="M150.653 149.776L149.289 154.599L149.496 154.657L150.86 149.835L150.653 149.776Z" fill="black"/>
<path d="M152.023 150.151L150.655 154.973L150.862 155.031L152.23 150.209L152.023 150.151Z" fill="black"/>
<path d="M143.196 145.991L144.635 150.795L144.843 150.731L143.396 145.933L143.196 145.991Z" fill="black"/>
<path d="M146.21 150.315L144.771 145.518L144.563 145.575L146.01 150.38L146.21 150.315Z" fill="black"/>
<path d="M131.691 137.756L129.2 142.105L129.386 142.211L131.878 137.863L131.691 137.756Z" fill="black"/>
<path d="M130.453 137.044L127.962 141.393L128.148 141.5L130.639 137.151L130.453 137.044Z" fill="black"/>
<path d="M118.993 137.261L118.827 137.397L122.001 141.276L122.167 141.14L118.993 137.261Z" fill="black"/>
<path d="M120.104 136.34L119.938 136.476L123.112 140.355L123.278 140.219L120.104 136.34Z" fill="black"/>
<path d="M113.445 138.569L113.242 138.642L114.944 143.356L115.146 143.283L113.445 138.569Z" fill="black"/>
<path d="M114.797 138.071L114.595 138.144L116.296 142.859L116.498 142.786L114.797 138.071Z" fill="black"/>
<path d="M150.445 137.1L149.207 141.957L149.415 142.01L150.653 137.153L150.445 137.1Z" fill="black"/>
<path d="M151.829 137.452L150.591 142.309L150.8 142.362L152.038 137.505L151.829 137.452Z" fill="black"/>
<path d="M139.273 139.651L139.189 139.848L143.803 141.805L143.887 141.607L139.273 139.651Z" fill="black"/>
<path d="M139.839 138.333L139.755 138.531L144.369 140.488L144.453 140.291L139.839 138.333Z" fill="black"/>
<path d="M128.733 166.125L127.286 161.327L127.086 161.385L128.525 166.189L128.733 166.125Z" fill="black"/>
<path d="M130.1 165.709L128.661 160.912L128.453 160.969L129.9 165.774L130.1 165.709Z" fill="black"/>
<path d="M135.771 162.931L140.733 162.23L140.704 162.022L135.742 162.716L135.771 162.931Z" fill="black"/>
<path d="M140.933 163.647L140.905 163.44L135.943 164.134L135.972 164.349L140.933 163.647Z" fill="black"/>
<path d="M140.719 153.351L139.594 158.241L139.809 158.284L140.926 153.401L140.719 153.351Z" fill="black"/>
<path d="M141.205 158.607L142.322 153.723L142.115 153.673L140.991 158.556L141.205 158.607Z" fill="black"/>
<path d="M127.387 151.339L127.208 151.225L124.523 155.456L124.702 155.571L127.387 151.339Z" fill="black"/>
<path d="M128.597 152.105L128.418 151.991L125.733 156.222L125.912 156.337L128.597 152.105Z" fill="black"/>
<path d="M128.443 145.037L123.849 147.041L123.935 147.238L128.529 145.234L128.443 145.037Z" fill="black"/>
<path d="M129.024 146.325L124.43 148.329L124.516 148.526L129.11 146.522L129.024 146.325Z" fill="black"/>
<path d="M120.079 144.306L118.716 149.129L118.922 149.187L120.286 144.364L120.079 144.306Z" fill="black"/>
<path d="M118.702 143.917L117.338 148.74L117.544 148.799L118.908 143.976L118.702 143.917Z" fill="black"/>
<path d="M135.556 141.945L136.995 146.742L137.203 146.685L135.757 141.881L135.556 141.945Z" fill="black"/>
<path d="M134.182 142.353L135.628 147.158L135.828 147.093L134.389 142.296L134.182 142.353Z" fill="black"/>
<path d="M127.218 130.021L123.217 133.039L123.346 133.211L127.347 130.192L127.218 130.021Z" fill="black"/>
<path d="M128.08 131.185L124.077 134.202L124.207 134.374L128.209 131.357L128.08 131.185Z" fill="black"/>
<path d="M119.642 124.917L119.436 124.977L120.84 129.789L121.046 129.729L119.642 124.917Z" fill="black"/>
<path d="M117.984 125.808L117.778 125.867L119.169 130.682L119.376 130.623L117.984 125.808Z" fill="black"/>
<path d="M112.996 125.583L112.703 130.587L112.917 130.599L113.211 125.596L112.996 125.583Z" fill="black"/>
<path d="M114.426 125.67L114.133 130.673L114.347 130.686L114.641 125.682L114.426 125.67Z" fill="black"/>
<path d="M119.174 163.769L119.346 163.898L122.389 159.917L122.217 159.788L119.174 163.769Z" fill="black"/>
<path d="M123.527 160.79L123.356 160.661L120.313 164.642L120.477 164.771L123.527 160.79Z" fill="black"/>
<path d="M116.647 163.089L116.797 162.938L113.332 159.323L113.174 159.473L116.647 163.089Z" fill="black"/>
<path d="M112.143 160.461L115.616 164.077L115.766 163.934L112.293 160.318L112.143 160.461Z" fill="black"/>
<path d="M145.308 136.317L145.48 136.454L148.63 132.558L148.466 132.422L145.308 136.317Z" fill="black"/>
<path d="M144.363 135.551L147.513 131.656L147.349 131.52L144.198 135.415L144.363 135.551Z" fill="black"/>
<path d="M147.456 129.093L147.671 129.122L148.229 124.138L148.022 124.117L147.456 129.093Z" fill="black"/>
<path d="M146.597 123.952L146.031 128.936L146.246 128.957L146.812 123.981L146.597 123.952Z" fill="black"/>
<path d="M131.157 154.047L131.073 154.244L135.687 156.202L135.771 156.004L131.157 154.047Z" fill="black"/>
<path d="M131.633 152.914L136.251 154.876L136.33 154.676L131.718 152.721L131.633 152.914Z" fill="black"/>
<path d="M106.451 124.518L108.026 125.37L108.126 125.177L106.644 124.382L106.451 124.518Z" fill="black"/>
<path d="M108.699 124.124L108.806 123.938L108.09 123.566L107.847 123.68L108.699 124.124Z" fill="black"/>
<path d="M107.561 130.031L107.417 129.873L105.656 131.391V131.678L107.561 130.031Z" fill="black"/>
<path d="M106.623 128.95L106.479 128.785L105.656 129.501V129.78L106.623 128.95Z" fill="black"/>
<path d="M110.088 135.752L105.656 137.485V137.714L110.174 135.945L110.088 135.752Z" fill="black"/>
<path d="M105.656 135.945V136.181L109.651 134.613L109.573 134.413L105.656 135.945Z" fill="black"/>
<path d="M108.32 145.046L108.37 144.838L105.656 144.222V144.444L108.32 145.046Z" fill="black"/>
<path d="M105.656 142.976L108.635 143.649L108.685 143.442L105.656 142.754V142.976Z" fill="black"/>
<path d="M108.37 160.268L105.656 159.58V159.802L108.312 160.475L108.37 160.268Z" fill="black"/>
<path d="M108.721 158.879L105.656 158.098V158.32L108.67 159.086L108.721 158.879Z" fill="black"/>
<path d="M105.656 165.695V165.917L109.014 164.807L108.95 164.607L105.656 165.695Z" fill="black"/>
<path d="M108.57 163.454L108.499 163.246L105.656 164.184V164.413L108.57 163.454Z" fill="black"/>
<path d="M149.926 121.439L150.112 121.546L151.666 118.847H151.416L149.926 121.439Z" fill="black"/>
<path d="M151.172 122.155L151.358 122.262L153.313 118.847H153.07L151.172 122.155Z" fill="black"/>
<path d="M145.272 120.852L145.444 120.716L143.912 118.847H143.633L145.272 120.852Z" fill="black"/>
<path d="M146.382 119.943L146.547 119.807L145.759 118.847H145.487L146.382 119.943Z" fill="black"/>
<path d="M139.494 123.229L137.912 118.847H137.683L139.294 123.301L139.494 123.229Z" fill="black"/>
<path d="M140.84 122.742L139.437 118.847H139.208L140.64 122.821L140.84 122.742Z" fill="black"/>
<path d="M130.251 121.21L130.458 121.267L130.881 119.585L130.644 119.656L130.251 121.21Z" fill="black"/>
<path d="M131.633 121.568L131.847 121.618L132.492 119.076L132.248 119.162L131.633 121.568Z" fill="black"/>
<path d="M108.556 199.104L106.723 203.765L106.923 203.843L108.756 199.175L108.556 199.104Z" fill="black"/>
<path d="M109.888 199.626L108.055 204.287L108.255 204.366L110.088 199.705L109.888 199.626Z" fill="black"/>
<path d="M155.16 174.545L157.208 175.647V175.404L155.261 174.351L155.16 174.545Z" fill="black"/>
<path d="M155.941 173.091L155.841 173.285L157.208 174.022V173.779L155.941 173.091Z" fill="black"/>
<path d="M155.175 184.698L155.318 184.862L157.208 183.23V182.943L155.175 184.698Z" fill="black"/>
<path d="M157.208 181.332V181.053L154.244 183.616L154.38 183.774L157.208 181.332Z" fill="black"/>
<path d="M156.979 189.13L157.058 189.331L157.209 189.266V189.037L156.979 189.13Z" fill="black"/>
<path d="M156.456 187.798L156.535 187.991L157.208 187.733V187.497L156.456 187.798Z" fill="black"/>
<path d="M157.208 195.774L155.031 195.287L154.981 195.495L157.208 195.996V195.774Z" fill="black"/>
<path d="M155.346 193.891L155.296 194.099L157.208 194.528V194.306L155.346 193.891Z" fill="black"/>
<path d="M157.208 211.132L155.06 210.588L155.01 210.796L157.208 211.354V211.132Z" fill="black"/>
<path d="M155.418 209.199L155.361 209.407L157.208 209.872V209.65L155.418 209.199Z" fill="black"/>
<path d="M157.208 217.469V217.247L155.74 217.727L155.812 217.934L157.208 217.469Z" fill="black"/>
<path d="M157.208 215.965V215.736L155.296 216.366L155.361 216.574L157.208 215.965Z" fill="black"/>
<path d="M127.737 172.934L123.126 170.979L123.041 171.172L127.659 173.134L127.737 172.934Z" fill="black"/>
<path d="M122.57 172.309L122.486 172.507L127.1 174.465L127.184 174.267L122.57 172.309Z" fill="black"/>
<path d="M152.604 220.304L152.418 220.197L151.416 221.951H151.666L152.604 220.304Z" fill="black"/>
<path d="M153.85 221.013L153.664 220.906L153.07 221.951H153.313L153.85 221.013Z" fill="black"/>
<path d="M142.1 220.075L143.633 221.951H143.912L142.265 219.939L142.1 220.075Z" fill="black"/>
<path d="M143.21 219.173L145.487 221.951H145.759L143.375 219.037L143.21 219.173Z" fill="black"/>
<path d="M137.791 221.622L137.59 221.694L137.683 221.952H137.913L137.791 221.622Z" fill="black"/>
<path d="M138.936 221.206L139.208 221.951H139.437L139.143 221.135L138.936 221.206Z" fill="black"/>
<path d="M131.69 219.517L131.482 219.459L130.852 221.951H131.074L131.69 219.517Z" fill="black"/>
<path d="M133.079 219.868L132.871 219.81L132.327 221.951H132.549L133.079 219.868Z" fill="black"/>
<path d="M116.396 219.137L116.188 219.073L115.372 221.951H115.594L116.396 219.137Z" fill="black"/>
<path d="M117.771 219.524L117.563 219.467L116.861 221.951H117.091L117.771 219.524Z" fill="black"/>
<path d="M109.028 219.681L109.709 221.951H109.931L109.236 219.624L109.028 219.681Z" fill="black"/>
<path d="M110.403 219.273L111.205 221.951H111.427L110.604 219.209L110.403 219.273Z" fill="black"/>
<path d="M118.766 204.087L116.274 208.433L116.461 208.54L118.952 204.194L118.766 204.087Z" fill="black"/>
<path d="M120.198 204.903L120.012 204.796L117.52 209.149L117.706 209.249L120.198 204.903Z" fill="black"/>
<path d="M140.461 181.025L137.289 177.151L137.124 177.287L140.296 181.161L140.461 181.025Z" fill="black"/>
<path d="M139.358 181.934L136.179 178.053L136.014 178.189L139.186 182.07L139.358 181.934Z" fill="black"/>
<path d="M131.702 179.735L131.5 179.808L133.202 184.522L133.404 184.449L131.702 179.735Z" fill="black"/>
<path d="M133.056 179.243L132.854 179.316L134.555 184.03L134.757 183.958L133.056 179.243Z" fill="black"/>
<path d="M150.649 214.104L146.038 212.149L145.953 212.342L150.571 214.304L150.649 214.104Z" fill="black"/>
<path d="M145.483 213.479L145.399 213.677L150.013 215.634L150.097 215.437L145.483 213.479Z" fill="black"/>
<path d="M150.656 201.337L149.292 206.16L149.498 206.218L150.862 201.395L150.656 201.337Z" fill="black"/>
<path d="M152.028 201.705L150.66 206.526L150.866 206.585L152.234 201.763L152.028 201.705Z" fill="black"/>
<path d="M144.843 202.283L143.396 197.485L143.196 197.543L144.635 202.347L144.843 202.283Z" fill="black"/>
<path d="M146.21 201.867L144.771 197.07L144.563 197.127L146.01 201.932L146.21 201.867Z" fill="black"/>
<path d="M131.697 189.316L129.205 193.669L129.391 193.769L131.883 189.423L131.697 189.316Z" fill="black"/>
<path d="M130.637 188.714L130.451 188.607L127.967 192.953L128.146 193.06L130.637 188.714Z" fill="black"/>
<path d="M122.174 192.674L118.995 188.793L118.83 188.929L122.009 192.81L122.174 192.674Z" fill="black"/>
<path d="M123.277 191.765L120.105 187.891L119.94 188.027L123.112 191.901L123.277 191.765Z" fill="black"/>
<path d="M113.443 190.115L113.241 190.188L114.943 194.902L115.145 194.829L113.443 190.115Z" fill="black"/>
<path d="M114.801 189.621L114.599 189.694L116.3 194.408L116.502 194.335L114.801 189.621Z" fill="black"/>
<path d="M150.444 188.655L149.206 193.512L149.414 193.565L150.652 188.708L150.444 188.655Z" fill="black"/>
<path d="M151.836 189L150.598 193.856L150.806 193.909L152.044 189.053L151.836 189Z" fill="black"/>
<path d="M143.883 193.154L139.272 191.199L139.186 191.399L143.805 193.354L143.883 193.154Z" fill="black"/>
<path d="M144.449 191.836L139.831 189.881L139.752 190.075L144.363 192.037L144.449 191.836Z" fill="black"/>
<path d="M128.733 217.677L127.286 212.879L127.086 212.937L128.525 217.741L128.733 217.677Z" fill="black"/>
<path d="M130.1 217.261L128.661 212.464L128.453 212.521L129.9 217.326L130.1 217.261Z" fill="black"/>
<path d="M135.771 214.483L140.733 213.782L140.704 213.574L135.742 214.268L135.771 214.483Z" fill="black"/>
<path d="M140.933 215.199L140.905 214.992L135.943 215.686L135.972 215.901L140.933 215.199Z" fill="black"/>
<path d="M140.719 204.903L139.594 209.793L139.809 209.836L140.926 204.953L140.719 204.903Z" fill="black"/>
<path d="M142.115 205.225L140.991 210.108L141.205 210.159L142.322 205.275L142.115 205.225Z" fill="black"/>
<path d="M127.387 202.891L127.208 202.777L124.523 207.008L124.702 207.123L127.387 202.891Z" fill="black"/>
<path d="M128.597 203.657L128.418 203.543L125.733 207.774L125.912 207.889L128.597 203.657Z" fill="black"/>
<path d="M128.443 196.588L123.848 198.591L123.934 198.788L128.529 196.785L128.443 196.588Z" fill="black"/>
<path d="M129.023 197.884L124.429 199.889L124.515 200.086L129.109 198.081L129.023 197.884Z" fill="black"/>
<path d="M120.081 195.855L118.713 200.677L118.92 200.735L120.288 195.914L120.081 195.855Z" fill="black"/>
<path d="M118.683 195.429L117.314 200.251L117.521 200.309L118.89 195.488L118.683 195.429Z" fill="black"/>
<path d="M137.203 198.237L135.757 193.433L135.556 193.497L136.995 198.294L137.203 198.237Z" fill="black"/>
<path d="M135.828 198.645L134.389 193.848L134.182 193.905L135.628 198.71L135.828 198.645Z" fill="black"/>
<path d="M127.215 181.59L123.212 184.612L123.341 184.784L127.344 181.762L127.215 181.59Z" fill="black"/>
<path d="M128.08 182.74L124.078 185.757L124.207 185.929L128.209 182.912L128.08 182.74Z" fill="black"/>
<path d="M120.749 181.776L119.36 176.965L119.153 177.029L120.542 181.841L120.749 181.776Z" fill="black"/>
<path d="M117.778 177.423L119.167 182.242L119.375 182.177L117.986 177.366L117.778 177.423Z" fill="black"/>
<path d="M113.001 177.148L112.709 182.152L112.924 182.164L113.215 177.16L113.001 177.148Z" fill="black"/>
<path d="M114.43 177.234L114.139 182.238L114.353 182.25L114.644 177.247L114.43 177.234Z" fill="black"/>
<path d="M122.389 211.469L122.217 211.34L119.174 215.321L119.346 215.45L122.389 211.469Z" fill="black"/>
<path d="M123.527 212.342L123.356 212.213L120.313 216.194L120.477 216.323L123.527 212.342Z" fill="black"/>
<path d="M113.174 211.025L116.647 214.641L116.797 214.49L113.332 210.875L113.174 211.025Z" fill="black"/>
<path d="M115.766 215.486L112.293 211.87L112.143 212.013L115.616 215.629L115.766 215.486Z" fill="black"/>
<path d="M148.63 184.11L148.466 183.974L145.308 187.869L145.48 188.006L148.63 184.11Z" fill="black"/>
<path d="M147.349 183.072L144.198 186.967L144.363 187.103L147.513 183.208L147.349 183.072Z" fill="black"/>
<path d="M148.229 175.69L148.022 175.669L147.456 180.645L147.671 180.674L148.229 175.69Z" fill="black"/>
<path d="M146.597 175.504L146.031 180.488L146.246 180.509L146.812 175.533L146.597 175.504Z" fill="black"/>
<path d="M131.158 205.607L131.074 205.804L135.688 207.762L135.772 207.564L131.158 205.607Z" fill="black"/>
<path d="M131.633 204.466L136.251 206.428L136.33 206.228L131.718 204.273L131.633 204.466Z" fill="black"/>
<path d="M108.026 176.922L108.126 176.729L105.656 175.404V175.647L108.026 176.922Z" fill="black"/>
<path d="M108.699 175.655L108.806 175.468L105.656 173.779V174.022L108.699 175.655Z" fill="black"/>
<path d="M107.561 181.583L107.417 181.425L105.656 182.943V183.23L107.561 181.583Z" fill="black"/>
<path d="M106.623 180.502L106.479 180.337L105.656 181.053V181.332L106.623 180.502Z" fill="black"/>
<path d="M110.088 187.304L105.656 189.037V189.266L110.174 187.497L110.088 187.304Z" fill="black"/>
<path d="M109.651 186.165L109.573 185.965L105.656 187.497V187.733L109.651 186.165Z" fill="black"/>
<path d="M108.32 196.598L108.37 196.39L105.656 195.774V195.996L108.32 196.598Z" fill="black"/>
<path d="M105.656 194.528L108.635 195.201L108.685 194.994L105.656 194.306V194.528Z" fill="black"/>
<path d="M108.312 212.027L108.37 211.82L105.656 211.132V211.354L108.312 212.027Z" fill="black"/>
<path d="M105.656 209.872L108.67 210.638L108.721 210.431L105.656 209.65V209.872Z" fill="black"/>
<path d="M109.014 216.359L108.95 216.159L105.656 217.247V217.469L109.014 216.359Z" fill="black"/>
<path d="M108.57 215.006L108.499 214.798L105.656 215.736V215.965L108.57 215.006Z" fill="black"/>
<path d="M149.926 172.991L150.112 173.098L151.666 170.399H151.416L149.926 172.991Z" fill="black"/>
<path d="M151.172 173.707L151.358 173.807L153.313 170.399H153.07L151.172 173.707Z" fill="black"/>
<path d="M145.272 172.404L145.444 172.268L143.912 170.399H143.633L145.272 172.404Z" fill="black"/>
<path d="M146.382 171.495L146.547 171.359L145.759 170.399H145.487L146.382 171.495Z" fill="black"/>
<path d="M139.494 174.781L137.912 170.399H137.683L139.294 174.86L139.494 174.781Z" fill="black"/>
<path d="M140.64 174.373L140.84 174.294L139.437 170.399H139.208L140.64 174.373Z" fill="black"/>
<path d="M130.852 170.399L130.251 172.762L130.458 172.819L131.074 170.399H130.852Z" fill="black"/>
<path d="M131.84 173.17L132.549 170.399H132.327L131.633 173.12L131.84 173.17Z" fill="black"/>
<path d="M115.028 172.404L115.594 170.399H115.372L114.821 172.347L115.028 172.404Z" fill="black"/>
<path d="M116.861 170.399L116.203 172.733L116.41 172.798L117.091 170.399H116.861Z" fill="black"/>
<path d="M110.475 172.934L110.675 172.869L109.931 170.399H109.709L110.475 172.934Z" fill="black"/>
<path d="M111.842 172.518L112.05 172.461L111.427 170.399H111.205L111.842 172.518Z" fill="black"/>
<path d="M108.556 250.656L106.723 255.317L106.923 255.395L108.756 250.727L108.556 250.656Z" fill="black"/>
<path d="M109.888 251.178L108.219 255.424H108.448L110.088 251.257L109.888 251.178Z" fill="black"/>
<path d="M155.16 226.097L157.208 227.199V226.956L155.261 225.903L155.16 226.097Z" fill="black"/>
<path d="M155.941 224.643L155.841 224.837L157.208 225.574V225.331L155.941 224.643Z" fill="black"/>
<path d="M155.175 236.25L155.318 236.414L157.208 234.782V234.495L155.175 236.25Z" fill="black"/>
<path d="M157.208 232.884V232.605L154.244 235.168L154.38 235.326L157.208 232.884Z" fill="black"/>
<path d="M156.979 240.682L157.058 240.883L157.209 240.818V240.589L156.979 240.682Z" fill="black"/>
<path d="M157.208 239.049L156.456 239.35L156.535 239.543L157.208 239.285V239.049Z" fill="black"/>
<path d="M157.208 247.326L155.031 246.839L154.981 247.047L157.208 247.548V247.326Z" fill="black"/>
<path d="M157.208 245.858L155.346 245.443L155.296 245.651L157.208 246.08V245.858Z" fill="black"/>
<path d="M127.737 224.486L123.126 222.531L123.041 222.724L127.659 224.686L127.737 224.486Z" fill="black"/>
<path d="M122.564 223.862L122.48 224.06L127.094 226.017L127.178 225.82L122.564 223.862Z" fill="black"/>
<path d="M140.461 232.577L137.289 228.703L137.124 228.839L140.296 232.713L140.461 232.577Z" fill="black"/>
<path d="M139.358 233.486L136.179 229.605L136.014 229.741L139.186 233.622L139.358 233.486Z" fill="black"/>
<path d="M131.701 231.289L131.499 231.362L133.201 236.076L133.403 236.003L131.701 231.289Z" fill="black"/>
<path d="M133.061 230.792L132.858 230.865L134.56 235.58L134.762 235.507L133.061 230.792Z" fill="black"/>
<path d="M150.65 252.868L149.919 255.424H150.148L150.857 252.925L150.65 252.868Z" fill="black"/>
<path d="M152.024 253.255L151.408 255.424H151.63L152.232 253.312L152.024 253.255Z" fill="black"/>
<path d="M144.843 253.835L143.396 249.037L143.196 249.095L144.635 253.899L144.843 253.835Z" fill="black"/>
<path d="M146.21 253.419L144.771 248.622L144.563 248.679L146.01 253.484L146.21 253.419Z" fill="black"/>
<path d="M131.883 240.975L131.697 240.868L129.205 245.221L129.391 245.321L131.883 240.975Z" fill="black"/>
<path d="M130.451 240.159L127.967 244.505L128.146 244.612L130.637 240.266L130.451 240.159Z" fill="black"/>
<path d="M122.174 244.226L118.995 240.345L118.83 240.481L122.009 244.362L122.174 244.226Z" fill="black"/>
<path d="M123.277 243.317L120.105 239.443L119.94 239.579L123.112 243.453L123.277 243.317Z" fill="black"/>
<path d="M113.442 241.669L113.24 241.742L114.942 246.456L115.144 246.383L113.442 241.669Z" fill="black"/>
<path d="M114.799 241.177L114.597 241.25L116.298 245.965L116.5 245.892L114.799 241.177Z" fill="black"/>
<path d="M150.458 240.224L149.22 245.081L149.428 245.134L150.666 240.277L150.458 240.224Z" fill="black"/>
<path d="M151.835 240.547L150.597 245.404L150.806 245.457L152.044 240.6L151.835 240.547Z" fill="black"/>
<path d="M143.883 244.706L139.272 242.751L139.186 242.951L143.805 244.906L143.883 244.706Z" fill="black"/>
<path d="M144.449 243.388L139.831 241.433L139.752 241.627L144.363 243.589L144.449 243.388Z" fill="black"/>
<path d="M127.208 254.329L126.506 255.424H126.764L127.387 254.443L127.208 254.329Z" fill="black"/>
<path d="M128.418 255.095L128.203 255.424H128.461L128.597 255.209L128.418 255.095Z" fill="black"/>
<path d="M128.442 248.139L123.848 250.142L123.934 250.339L128.528 248.336L128.442 248.139Z" fill="black"/>
<path d="M129.017 249.435L124.423 251.44L124.509 251.637L129.103 249.632L129.017 249.435Z" fill="black"/>
<path d="M120.085 247.416L118.717 252.238L118.924 252.296L120.292 247.475L120.085 247.416Z" fill="black"/>
<path d="M118.685 246.977L117.316 251.799L117.523 251.858L118.892 247.036L118.685 246.977Z" fill="black"/>
<path d="M137.203 249.789L135.757 244.985L135.556 245.049L136.995 249.846L137.203 249.789Z" fill="black"/>
<path d="M135.828 250.197L134.389 245.4L134.182 245.457L135.628 250.262L135.828 250.197Z" fill="black"/>
<path d="M127.344 233.314L127.215 233.142L123.212 236.164L123.341 236.336L127.344 233.314Z" fill="black"/>
<path d="M128.074 234.295L124.071 237.312L124.201 237.484L128.203 234.467L128.074 234.295Z" fill="black"/>
<path d="M120.749 233.328L119.36 228.517L119.153 228.581L120.542 233.393L120.749 233.328Z" fill="black"/>
<path d="M117.778 228.975L119.167 233.794L119.375 233.729L117.986 228.918L117.778 228.975Z" fill="black"/>
<path d="M113 228.702L112.708 233.705L112.923 233.718L113.214 228.714L113 228.702Z" fill="black"/>
<path d="M114.436 228.788L114.145 233.791L114.359 233.804L114.65 228.8L114.436 228.788Z" fill="black"/>
<path d="M148.466 235.526L145.308 239.421L145.48 239.558L148.63 235.662L148.466 235.526Z" fill="black"/>
<path d="M144.363 238.655L147.513 234.76L147.349 234.624L144.198 238.519L144.363 238.655Z" fill="black"/>
<path d="M148.229 227.242L148.022 227.221L147.456 232.197L147.671 232.226L148.229 227.242Z" fill="black"/>
<path d="M146.597 227.056L146.031 232.04L146.246 232.061L146.812 227.085L146.597 227.056Z" fill="black"/>
<path d="M108.026 228.474L108.126 228.281L105.656 226.956V227.199L108.026 228.474Z" fill="black"/>
<path d="M108.806 227.02L105.656 225.331V225.574L108.699 227.207L108.806 227.02Z" fill="black"/>
<path d="M105.656 234.782L107.561 233.135L107.417 232.977L105.656 234.495V234.782Z" fill="black"/>
<path d="M106.623 232.054L106.479 231.889L105.656 232.605V232.884L106.623 232.054Z" fill="black"/>
<path d="M110.088 238.856L105.656 240.589V240.818L110.174 239.049L110.088 238.856Z" fill="black"/>
<path d="M109.651 237.717L109.573 237.517L105.656 239.049V239.285L109.651 237.717Z" fill="black"/>
<path d="M108.32 248.15L108.37 247.942L105.656 247.326V247.548L108.32 248.15Z" fill="black"/>
<path d="M108.635 246.753L108.685 246.546L105.656 245.858V246.08L108.635 246.753Z" fill="black"/>
<path d="M150.112 224.65L151.666 221.951H151.416L149.926 224.543L150.112 224.65Z" fill="black"/>
<path d="M153.07 221.951L151.172 225.259L151.358 225.359L153.313 221.951H153.07Z" fill="black"/>
<path d="M145.272 223.956L145.444 223.82L143.912 221.951H143.633L145.272 223.956Z" fill="black"/>
<path d="M146.382 223.047L146.547 222.911L145.759 221.951H145.487L146.382 223.047Z" fill="black"/>
<path d="M139.494 226.333L137.912 221.951H137.683L139.294 226.412L139.494 226.333Z" fill="black"/>
<path d="M140.64 225.925L140.84 225.846L139.437 221.951H139.208L140.64 225.925Z" fill="black"/>
<path d="M130.458 224.371L131.074 221.951H130.852L130.251 224.314L130.458 224.371Z" fill="black"/>
<path d="M132.549 221.951H132.327L131.633 224.672L131.84 224.722L132.549 221.951Z" fill="black"/>
<path d="M115.028 223.956L115.594 221.951H115.372L114.821 223.899L115.028 223.956Z" fill="black"/>
<path d="M116.861 221.951L116.203 224.285L116.41 224.35L117.091 221.951H116.861Z" fill="black"/>
<path d="M110.475 224.486L110.675 224.421L109.931 221.951H109.709L110.475 224.486Z" fill="black"/>
<path d="M111.842 224.07L112.05 224.013L111.427 221.951H111.205L111.842 224.07Z" fill="black"/>
<path d="M105.656 131.391L103.623 133.146L103.766 133.31L105.656 131.678V131.391Z" fill="black"/>
<path d="M102.828 132.222L105.656 129.78V129.501L102.685 132.064L102.828 132.222Z" fill="black"/>
<path d="M105.427 137.578L105.506 137.779L105.657 137.714V137.485L105.427 137.578Z" fill="black"/>
<path d="M104.904 136.246L104.983 136.439L105.656 136.181V135.945L104.904 136.246Z" fill="black"/>
<path d="M103.429 143.943L105.656 144.444V144.222L103.479 143.735L103.429 143.943Z" fill="black"/>
<path d="M103.794 142.339L103.744 142.547L105.656 142.976V142.754L103.794 142.339Z" fill="black"/>
<path d="M103.508 159.036L103.458 159.244L105.656 159.802V159.58L103.508 159.036Z" fill="black"/>
<path d="M103.866 157.647L103.809 157.855L105.656 158.32V158.098L103.866 157.647Z" fill="black"/>
<path d="M104.188 166.175L104.26 166.382L105.656 165.917V165.695L104.188 166.175Z" fill="black"/>
<path d="M105.656 164.413V164.184L103.744 164.814L103.809 165.022L105.656 164.413Z" fill="black"/>
<path d="M99.8636 170.399H100.114L101.052 168.752L100.866 168.645L99.8636 170.399Z" fill="black"/>
<path d="M101.518 170.399H101.761L102.298 169.461L102.112 169.354L101.518 170.399Z" fill="black"/>
<path d="M90.5485 168.523L92.0807 170.399H92.3599L90.7131 168.387L90.5485 168.523Z" fill="black"/>
<path d="M91.6583 167.621L93.9351 170.399H94.2072L91.8229 167.485L91.6583 167.621Z" fill="black"/>
<path d="M86.2387 170.07L86.0377 170.142L86.131 170.4H86.3607L86.2387 170.07Z" fill="black"/>
<path d="M87.3837 169.654L87.6558 170.399H87.8849L87.5914 169.583L87.3837 169.654Z" fill="black"/>
<path d="M79.5221 170.399L79.7727 169.39L79.4433 169.812L79.3001 170.399H79.5221Z" fill="black"/>
<path d="M81.3192 168.258L80.7751 170.399H80.997L81.5269 168.316L81.3192 168.258Z" fill="black"/>
<path d="M94.4005 160.79L99.0187 162.752L99.0975 162.552L94.4864 160.597L94.4005 160.79Z" fill="black"/>
<path d="M93.9295 161.92L93.8456 162.118L98.4595 164.075L98.5434 163.877L93.9295 161.92Z" fill="black"/>
<path d="M99.0997 149.781L97.7316 154.602L97.9383 154.661L99.3063 149.839L99.0997 149.781Z" fill="black"/>
<path d="M100.477 150.148L99.1086 154.97L99.3153 155.028L100.683 150.207L100.477 150.148Z" fill="black"/>
<path d="M93.0831 150.795L93.2907 150.731L92.6678 148.661C92.6177 148.754 92.5747 148.847 92.5246 148.933L93.0831 150.795Z" fill="black"/>
<path d="M94.4578 150.38L94.6583 150.315L93.613 146.843L93.4769 147.115L94.4578 150.38Z" fill="black"/>
<path d="M98.897 137.107L97.6591 141.964L97.8672 142.017L99.1052 137.16L98.897 137.107Z" fill="black"/>
<path d="M100.282 137.459L99.0438 142.315L99.252 142.368L100.49 137.512L100.282 137.459Z" fill="black"/>
<path d="M89.188 162.23V162.022L84.8419 162.63L84.6772 162.867L89.188 162.23Z" fill="black"/>
<path d="M89.3463 163.442L84.3837 164.143L84.4137 164.356L89.3764 163.654L89.3463 163.442Z" fill="black"/>
<path d="M88.0425 158.241L88.2573 158.284L88.7871 155.965L88.4076 156.681L88.0425 158.241Z" fill="black"/>
<path d="M89.4387 158.556L89.6535 158.607L90.7704 153.723L90.5628 153.673L89.4387 158.556Z" fill="black"/>
<path d="M105.656 175.404L103.709 174.351L103.608 174.545L105.656 175.647V175.404Z" fill="black"/>
<path d="M105.656 173.779L104.389 173.091L104.289 173.285L105.656 174.022V173.779Z" fill="black"/>
<path d="M105.656 182.943L104.296 184.118C104.296 184.204 104.296 184.289 104.296 184.375L105.627 183.23L105.656 182.943Z" fill="black"/>
<path d="M105.656 181.053L104.109 182.385C104.109 182.471 104.109 182.557 104.109 182.643L105.656 181.332V181.053Z" fill="black"/>
<path d="M105.427 189.13L105.506 189.331L105.657 189.266V189.037L105.427 189.13Z" fill="black"/>
<path d="M105.656 187.497L104.904 187.798L104.983 187.991L105.656 187.733V187.497Z" fill="black"/>
<path d="M105.656 195.774L103.479 195.287L103.429 195.495L105.656 195.996V195.774Z" fill="black"/>
<path d="M103.794 193.891L103.744 194.099L105.656 194.528V194.306L103.794 193.891Z" fill="black"/>
<path d="M105.656 211.132L103.508 210.588L103.458 210.796L105.656 211.354V211.132Z" fill="black"/>
<path d="M103.866 209.199L103.809 209.407L105.656 209.872V209.65L103.866 209.199Z" fill="black"/>
<path d="M105.656 217.469V217.247L104.188 217.727L104.26 217.934L105.656 217.469Z" fill="black"/>
<path d="M105.656 215.965V215.736L103.744 216.366L103.809 216.574L105.656 215.965Z" fill="black"/>
<path d="M99.8636 221.951H100.114L101.052 220.304L100.866 220.197L99.8636 221.951Z" fill="black"/>
<path d="M102.298 221.013L102.112 220.906L101.518 221.951H101.761L102.298 221.013Z" fill="black"/>
<path d="M85.5723 177.287L88.7442 181.161L88.9088 181.025L85.7369 177.151L85.5723 177.287Z" fill="black"/>
<path d="M87.8062 181.934L84.6272 178.053L84.4625 178.189L87.6415 182.07L87.8062 181.934Z" fill="black"/>
<path d="M80.1487 179.734L79.9467 179.807L81.6485 184.521L81.8506 184.448L80.1487 179.734Z" fill="black"/>
<path d="M81.5065 179.24L81.3044 179.313L83.0055 184.028L83.2075 183.955L81.5065 179.24Z" fill="black"/>
<path d="M80.3312 189.423L80.145 189.316L77.6533 193.669L77.8395 193.769L80.3312 189.423Z" fill="black"/>
<path d="M79.0853 188.714L78.8991 188.607L76.4146 192.953L76.5936 193.06L79.0853 188.714Z" fill="black"/>
<path d="M70.6222 192.674L67.4431 188.793L67.3501 188.872C67.3466 188.912 67.3466 188.953 67.3501 188.994L70.4718 192.81L70.6222 192.674Z" fill="black"/>
<path d="M71.7248 191.765L68.5529 187.891L68.3882 188.027L71.5601 191.901L71.7248 191.765Z" fill="black"/>
<path d="M76.3931 196.798L75.3478 197.256C75.7041 197.122 76.053 196.969 76.3931 196.798Z" fill="black"/>
<path d="M68.4885 195.939L68.6608 196.14L68.7254 195.896L68.5172 195.839L68.4885 195.939Z" fill="black"/>
<path d="M75.7917 181.762L75.6628 181.59L71.6604 184.612L71.7893 184.784L75.7917 181.762Z" fill="black"/>
<path d="M76.5185 182.756L72.5131 185.769L72.6422 185.94L76.6476 182.927L76.5185 182.756Z" fill="black"/>
<path d="M96.3481 176.75C96.4268 176.65 96.5056 176.564 96.5915 176.471L96.6774 175.69H96.4698L96.3481 176.75Z" fill="black"/>
<path d="M94.916 178.34L95.2382 175.533H95.0234L94.6726 178.647L94.916 178.34Z" fill="black"/>
<path d="M98.3743 172.991L98.5605 173.098L100.114 170.399H99.8636L98.3743 172.991Z" fill="black"/>
<path d="M100.644 171.888L101.36 171.122L101.775 170.406H101.532L100.644 171.888Z" fill="black"/>
<path d="M93.7275 172.404L93.8922 172.268L92.3599 170.399H92.0807L93.7275 172.404Z" fill="black"/>
<path d="M94.8301 171.495L94.9948 171.359L94.2072 170.399H93.9351L94.8301 171.495Z" fill="black"/>
<path d="M87.9422 174.781L86.3599 170.399H86.1307L87.7417 174.86L87.9422 174.781Z" fill="black"/>
<path d="M89.0878 174.373L89.2883 174.294L87.8849 170.399H87.6558L89.0878 174.373Z" fill="black"/>
<path d="M78.6987 172.762L78.9063 172.819L79.5221 170.399H79.3001L78.6987 172.762Z" fill="black"/>
<path d="M80.0806 173.12L80.2882 173.17L80.997 170.399H80.7751L80.0806 173.12Z" fill="black"/>
<path d="M103.608 226.097L105.656 227.199V226.956L103.709 225.903L103.608 226.097Z" fill="black"/>
<path d="M104.389 224.643L104.289 224.837L105.656 225.574V225.331L104.389 224.643Z" fill="black"/>
<path d="M103.623 236.25L103.766 236.414L105.656 234.782V234.495L103.623 236.25Z" fill="black"/>
<path d="M105.656 232.884V232.605L102.685 235.168L102.828 235.326L105.656 232.884Z" fill="black"/>
<path d="M105.427 240.682L105.506 240.883L105.657 240.818V240.589L105.427 240.682Z" fill="black"/>
<path d="M105.656 239.049L104.904 239.35L104.983 239.543L105.656 239.285V239.049Z" fill="black"/>
<path d="M105.656 247.326L103.479 246.839L103.429 247.047L105.656 247.548V247.326Z" fill="black"/>
<path d="M105.656 245.858L103.794 245.443L103.744 245.651L105.656 246.08V245.858Z" fill="black"/>
<path d="M99.0975 252.868L98.3672 255.424H98.5963L99.3051 252.925L99.0975 252.868Z" fill="black"/>
<path d="M100.472 253.255L99.8564 255.424H100.086L100.68 253.312L100.472 253.255Z" fill="black"/>
<path d="M94.4578 253.484L94.6583 253.419L93.9853 251.178C93.9853 251.343 93.928 251.493 93.8994 251.644L94.4578 253.484Z" fill="black"/>
<path d="M98.9029 240.233L97.6692 245.091L97.8774 245.144L99.1111 240.286L98.9029 240.233Z" fill="black"/>
<path d="M100.288 240.554L99.0497 245.411L99.2579 245.464L100.496 240.607L100.288 240.554Z" fill="black"/>
<path d="M97.064 235.662L96.8994 235.526L96.7204 235.748C96.7204 235.892 96.6702 236.042 96.6416 236.185L97.064 235.662Z" fill="black"/>
<path d="M98.8111 223.784L98.7037 224.4L100.136 221.951H99.8851L98.8111 223.784Z" fill="black"/>
<path d="M101.518 221.951L99.6202 225.259L99.8063 225.359L101.761 221.951H101.518Z" fill="black"/>
</g>
<path opacity="0.2" d="M174.571 148.382C174.571 148.382 161.296 168.516 155.325 176.7C149.354 184.884 141.828 185.106 143.604 190.411C145.38 195.717 155.325 256.584 155.325 256.584H173.468L161.504 187.762L178.76 154.354C178.76 154.354 187.753 189.259 195.421 193.154C203.089 197.049 207.077 193.734 207.521 186.208C207.965 178.683 194.469 153.91 191.59 146.828C188.712 139.747 183.628 133.332 179.647 129.351C175.667 125.37 157.981 119.828 157.981 119.828L151.788 125.556C151.788 125.556 172.803 134.406 174.349 137.062C175.896 139.718 174.571 148.382 174.571 148.382Z" fill="black"/>
<path opacity="0.2" d="M110.009 143.306C110.009 143.306 111.864 135.573 110.009 137.119C108.155 138.666 84.3264 179.507 84.3264 179.507L83.4028 173.936C83.4028 173.936 72.8848 173.628 71.6461 178.891C70.4074 184.153 68.2379 201.166 72.5697 202.089C76.9015 203.013 102.892 172.39 102.892 172.39C102.892 172.39 102.176 163.941 103.458 159.244C104.74 154.547 110.009 143.306 110.009 143.306Z" fill="black"/>
<path d="M102.627 169.697C102.627 169.697 101.84 161.599 104.718 154.54C107.596 147.48 109.945 144.609 111.513 139.382" stroke="#263238" stroke-linecap="round" stroke-linejoin="round"/>
</g>
<path d="M136.602 117.429C136.602 117.429 133.465 119.255 124.057 121.346C114.649 123.437 108.642 121.088 104.983 126.05C101.324 131.012 91.1284 152.449 86.1594 160.554C81.1903 168.659 69.6914 180.674 67.8656 186.688C66.0398 192.702 67.6078 198.71 73.88 197.664C80.1521 196.619 88.515 185.643 94.2645 179.106C100.014 172.569 102.627 169.697 102.627 169.697C102.627 169.697 103.938 180.437 104.46 185.643C104.983 190.848 93.2191 255.424 93.2191 255.424H171.886C171.886 255.424 159.342 189.552 159.864 187.469C160.387 185.385 176.59 156.895 176.59 156.895C176.59 156.895 189.399 181.719 191.49 186.165C193.581 190.612 196.717 194.757 202.731 195.309C208.746 195.86 207.693 187.733 206.39 182.507C205.087 177.28 195.407 157.941 192.292 150.616C189.177 143.291 188.376 139.876 182.884 132.838C177.392 125.799 162.499 122.098 159.363 120.816C156.227 119.534 151 117.422 151 117.422C151 117.422 141.828 113.771 136.602 117.429Z" stroke="#263238" stroke-linecap="round" stroke-linejoin="round"/>
<path d="M136.602 117.429C134.949 118.255 133.22 118.92 131.439 119.413C131.547 123.558 131.79 131.298 132.155 135.201C132.678 140.685 132.936 145.654 132.936 145.654L159.356 120.823C156.22 119.52 150.993 117.429 150.993 117.429C150.993 117.429 141.828 113.771 136.602 117.429Z" fill="white" stroke="#263238" stroke-linecap="round" stroke-linejoin="round"/>
<path d="M136.602 107.756L135.556 122.134C135.556 122.134 136.079 135.201 137.389 135.201C138.699 135.201 152.812 119.255 152.812 119.255L155.676 98.0831L136.602 107.756Z" fill="white"/>
<mask id="mask1_179_5770" style="mask-type:luminance" maskUnits="userSpaceOnUse" x="135" y="98" width="21" height="38">
<path d="M136.602 107.756L135.556 122.134C135.556 122.134 136.079 135.201 137.389 135.201C138.699 135.201 152.812 119.255 152.812 119.255L155.676 98.0831L136.602 107.756Z" fill="white"/>
</mask>
<g mask="url(#mask1_179_5770)">
<path opacity="0.2" d="M136.394 110.649L145.752 118.84L140.74 132.286C145.315 127.683 152.783 119.255 152.783 119.255L155.647 98.0831L136.566 107.756L136.394 110.649Z" fill="black"/>
</g>
<path d="M136.602 107.756L135.556 122.134C135.556 122.134 136.079 135.201 137.389 135.201C138.699 135.201 152.812 119.255 152.812 119.255L155.676 98.0831L136.602 107.756Z" stroke="#263238" stroke-linecap="round" stroke-linejoin="round"/>
<path d="M145.072 50.1755C145.072 50.1755 123.055 64.9609 123.055 66.529C123.055 68.097 121.48 91.0663 122.124 92.62C122.768 94.1737 129.041 110.241 135.964 110.241C142.888 110.241 155.783 101.427 156.413 99.2287C157.043 97.0306 158.611 92.935 158.611 92.935C158.611 92.935 164.275 92.935 165.535 91.0448C166.379 89.6782 167.016 88.1943 167.425 86.6414C167.425 86.6414 148.53 71.856 145.072 50.1755Z" fill="white"/>
<mask id="mask2_179_5770" style="mask-type:luminance" maskUnits="userSpaceOnUse" x="121" y="50" width="47" height="61">
<path d="M145.072 50.1755C145.072 50.1755 123.055 64.9609 123.055 66.529C123.055 68.097 121.48 91.0663 122.124 92.62C122.768 94.1737 129.041 110.241 135.964 110.241C142.888 110.241 155.783 101.427 156.413 99.2287C157.043 97.0306 158.611 92.935 158.611 92.935C158.611 92.935 164.275 92.935 165.535 91.0448C166.379 89.6782 167.016 88.1943 167.425 86.6414C167.425 86.6414 148.53 71.856 145.072 50.1755Z" fill="white"/>
</mask>
<g mask="url(#mask2_179_5770)">
<path opacity="0.2" d="M147.399 58.968C148.151 63.1566 149.332 68.0182 151.158 71.8059C155.182 80.1616 156.728 82.9468 156.728 82.9468C156.728 82.9468 155.182 93.1856 151.48 99.064C148.43 103.904 139.931 108.315 135.807 110.248H135.964C142.888 110.248 155.783 101.434 156.413 99.2358C157.043 97.0377 158.611 92.9422 158.611 92.9422C158.611 92.9422 164.275 92.9422 165.535 91.052C166.379 89.6853 167.016 88.2015 167.425 86.6486C167.425 86.6486 153.535 75.7868 147.399 58.968Z" fill="black"/>
</g>
<path d="M145.072 50.1755C145.072 50.1755 123.055 64.9609 123.055 66.529C123.055 68.097 121.48 91.0663 122.124 92.62C122.768 94.1737 129.041 110.241 135.964 110.241C142.888 110.241 155.783 101.427 156.413 99.2287C157.043 97.0306 158.611 92.935 158.611 92.935C158.611 92.935 164.275 92.935 165.535 91.0448C166.379 89.6782 167.016 88.1943 167.425 86.6414C167.425 86.6414 148.53 71.856 145.072 50.1755Z" stroke="#263238" stroke-linecap="round" stroke-linejoin="round"/>
<path d="M136.895 75.3429C136.895 75.3429 134.375 82.5745 134.031 83.8347C133.687 85.0948 136.236 86.9779 139.043 85.4099" stroke="#263238" stroke-linecap="round" stroke-linejoin="round"/>
<path d="M127.852 67.0731C128.804 65.8383 130.148 64.9643 131.662 64.5947C133.177 64.2251 134.773 64.3821 136.186 65.0397" stroke="#263238" stroke-width="2" stroke-linecap="round" stroke-linejoin="round"/>
<path d="M144.492 66.4645C145.919 65.8539 147.515 65.7638 149.002 66.2101C150.488 66.6563 151.771 67.6105 152.626 68.9061" stroke="#263238" stroke-width="2" stroke-linecap="round" stroke-linejoin="round"/>
<path d="M145.917 72.3644C145.917 72.3644 148.781 69.5004 149.984 73.3811" stroke="#263238" stroke-linecap="round" stroke-linejoin="round"/>
<path d="M129.033 71.5481C129.033 71.5481 132.492 68.2975 134.117 71.5481" stroke="#263238" stroke-linecap="round" stroke-linejoin="round"/>
<path d="M131.275 78.7654C131.947 78.7654 132.492 77.8101 132.492 76.6317C132.492 75.4533 131.947 74.498 131.275 74.498C130.602 74.498 130.057 75.4533 130.057 76.6317C130.057 77.8101 130.602 78.7654 131.275 78.7654Z" fill="#263238"/>
<path d="M148.151 78.6652C148.151 79.8466 147.606 80.8132 146.933 80.8132C146.26 80.8132 145.709 79.8537 145.709 78.6652C145.709 77.4766 146.253 76.5172 146.933 76.5172C147.614 76.5172 148.151 77.4909 148.151 78.6652Z" fill="#263238"/>
<path d="M138.392 93.7155C138.392 95.1475 137.425 96.3575 136.244 96.3575C135.062 96.3575 134.096 95.1761 134.096 93.7155C134.096 92.2548 135.062 91.0734 136.244 91.0734C137.425 91.0734 138.392 92.2548 138.392 93.7155Z" fill="#263238"/>
<path d="M127.609 78.8728C127.609 78.8728 130.659 78.8728 132.291 79.6819" stroke="#263238" stroke-linecap="round" stroke-linejoin="round"/>
<path d="M145.301 81.1067C145.301 81.1067 149.167 80.2976 150.793 81.1067" stroke="#263238" stroke-linecap="round" stroke-linejoin="round"/>
<path d="M175.602 125.978C175.602 125.978 177.457 125.671 177.149 119.484C177.007 115.581 177.637 111.688 179.003 108.028C179.003 108.028 177.456 105.551 176.218 108.336C174.979 111.121 174.979 114.816 174.392 116.699C173.805 118.582 171.915 122.577 171.915 122.577L175.602 125.978Z" fill="white" stroke="#263238" stroke-linecap="round" stroke-linejoin="round"/>
<path d="M175.022 135.458C175.022 135.458 177.113 125.27 175.81 120.823C174.507 116.377 171.628 101.212 171.628 101.212C171.628 101.212 170.06 99.9017 169.273 102.257C168.485 104.613 170.318 115.582 170.318 115.582L165.614 101.978C165.614 101.978 164.311 100.675 163.265 101.72C163.1 102.584 163.1 103.471 163.265 104.334C163.523 105.902 166.659 116.355 166.659 116.355L160.129 104.856C160.129 104.856 159.342 103.811 158.819 105.379C158.296 106.947 164.311 121.317 164.311 121.317L157.251 111.952C157.251 111.952 155.425 111.694 156.471 114.308C157.516 116.921 161.697 124.239 161.697 124.239C161.697 124.239 159.607 132.115 161.432 135.995C163.258 139.876 169.015 145.668 169.015 145.668C169.015 145.668 185.483 179.908 186.521 185.392C187.559 190.877 196.452 200.815 205.345 197.679C214.237 194.543 208.481 181.476 203.77 173.37C200.225 167.263 194.862 161.979 190.166 156.759C186.965 153.179 183.199 150.151 180.142 146.449C178.115 144 174.306 138.952 175.022 135.458Z" fill="white"/>
<mask id="mask3_179_5770" style="mask-type:luminance" maskUnits="userSpaceOnUse" x="156" y="100" width="54" height="99">
<path d="M175.022 135.458C175.022 135.458 177.113 125.27 175.81 120.823C174.507 116.377 171.628 101.212 171.628 101.212C171.628 101.212 170.06 99.9017 169.273 102.257C168.485 104.613 170.318 115.582 170.318 115.582L165.614 101.978C165.614 101.978 164.311 100.675 163.265 101.72C163.1 102.584 163.1 103.471 163.265 104.334C163.523 105.902 166.659 116.355 166.659 116.355L160.129 104.856C160.129 104.856 159.342 103.811 158.819 105.379C158.296 106.947 164.311 121.317 164.311 121.317L157.251 111.952C157.251 111.952 155.425 111.694 156.471 114.308C157.516 116.921 161.697 124.239 161.697 124.239C161.697 124.239 159.607 132.115 161.432 135.995C163.258 139.876 169.015 145.668 169.015 145.668C169.015 145.668 185.483 179.908 186.521 185.392C187.559 190.877 196.452 200.815 205.345 197.679C214.237 194.543 208.481 181.476 203.77 173.37C200.225 167.263 194.862 161.979 190.166 156.759C186.965 153.179 183.199 150.151 180.142 146.449C178.115 144 174.306 138.952 175.022 135.458Z" fill="white"/>
</mask>
<g mask="url(#mask3_179_5770)">
<path opacity="0.2" d="M165.084 122.577L163.43 119.198C163.953 120.501 164.311 121.346 164.311 121.346L157.251 111.952C157.002 111.929 156.752 111.984 156.535 112.11L164.468 126.616C164.468 126.616 165.148 135.924 166.358 138.072C167.39 139.89 190.08 183.18 199.395 197.972C201.37 198.435 203.436 198.325 205.352 197.657C214.237 194.521 208.488 181.454 203.777 173.349C200.232 167.242 194.87 161.957 190.173 156.738C186.972 153.158 183.206 150.129 180.149 146.427C178.13 143.993 174.32 138.945 175.036 135.451C175.036 135.451 177.127 125.262 175.824 120.816C174.521 116.37 171.628 101.212 171.628 101.212C171.349 100.994 171.008 100.869 170.654 100.854L170.339 101.212C170.339 101.212 173.433 114.816 172.817 116.685C172.201 118.554 170.318 115.582 170.318 115.582L165.614 101.978C165.332 101.711 164.994 101.508 164.626 101.384L163.265 101.72L169.101 117.909L166.659 116.355L160.129 104.856C160.129 104.856 159.342 103.811 158.819 105.379L165.979 121.31L165.084 122.577Z" fill="black"/>
</g>
<path d="M175.022 135.458C175.022 135.458 177.113 125.27 175.81 120.823C174.507 116.377 171.628 101.212 171.628 101.212C171.628 101.212 170.06 99.9017 169.273 102.257C168.485 104.613 170.318 115.582 170.318 115.582L165.614 101.978C165.614 101.978 164.311 100.675 163.265 101.72C163.1 102.584 163.1 103.471 163.265 104.334C163.523 105.902 166.659 116.355 166.659 116.355L160.129 104.856C160.129 104.856 159.342 103.811 158.819 105.379C158.296 106.947 164.311 121.317 164.311 121.317L157.251 111.952C157.251 111.952 155.425 111.694 156.471 114.308C157.516 116.921 161.697 124.239 161.697 124.239C161.697 124.239 159.607 132.115 161.432 135.995C163.258 139.876 169.015 145.668 169.015 145.668C169.015 145.668 185.483 179.908 186.521 185.392C187.559 190.877 196.452 200.815 205.345 197.679C214.237 194.543 208.481 181.476 203.77 173.37C200.225 167.263 194.862 161.979 190.166 156.759C186.965 153.179 183.199 150.151 180.142 146.449C178.115 144 174.306 138.952 175.022 135.458Z" stroke="#263238" stroke-linecap="round" stroke-linejoin="round"/>
<path d="M203.748 173.356C201.228 169.017 197.791 165.086 194.325 161.306L179.905 169.067C183.213 176.413 186.084 183.187 186.5 185.378C187.545 190.87 196.43 200.8 205.323 197.664C214.216 194.528 208.481 181.461 203.748 173.356Z" fill="#92E3A9"/>
<mask id="mask4_179_5770" style="mask-type:luminance" maskUnits="userSpaceOnUse" x="179" y="161" width="31" height="38">
<path d="M203.748 173.356C201.228 169.017 197.791 165.086 194.325 161.306L179.905 169.067C183.213 176.413 186.084 183.187 186.5 185.378C187.545 190.87 196.43 200.8 205.323 197.664C214.216 194.528 208.481 181.461 203.748 173.356Z" fill="white"/>
</mask>
<g mask="url(#mask4_179_5770)">
<g opacity="0.2">
<path d="M208.76 189.037V189.28L209.877 188.843V188.621L208.76 189.037Z" fill="black"/>
<path d="M209.655 187.383L209.612 187.168L208.76 187.497V187.733L209.655 187.383Z" fill="black"/>
<path d="M208.76 194.528L209.089 194.6C209.125 194.535 209.168 194.471 209.197 194.407L208.76 194.292V194.528Z" fill="black"/>
<path d="M193.652 168.523L195.185 170.399H195.464L193.817 168.387L193.652 168.523Z" fill="black"/>
<path d="M194.762 167.621L197.039 170.399H197.311L194.927 167.485L194.762 167.621Z" fill="black"/>
<path d="M189.343 170.07L189.142 170.142L189.235 170.4H189.465L189.343 170.07Z" fill="black"/>
<path d="M190.488 169.654L190.76 170.399H190.989L190.695 169.583L190.488 169.654Z" fill="black"/>
<path d="M182.404 170.399H182.626L183.242 167.965L183.034 167.907L182.404 170.399Z" fill="black"/>
<path d="M184.423 168.258L183.879 170.399H184.101L184.631 168.316L184.423 168.258Z" fill="black"/>
<path d="M192.457 163.44L189.657 163.833L189.113 164.127L192.485 163.647L192.457 163.44Z" fill="black"/>
<path d="M206.87 184.862L208.552 183.43C208.552 183.359 208.495 183.287 208.474 183.215L206.727 184.719L206.87 184.862Z" fill="black"/>
<path d="M208.044 181.977L207.958 181.762L205.81 183.616L205.946 183.774L208.044 181.977Z" fill="black"/>
<path d="M208.531 189.13L208.61 189.331L208.761 189.266V189.037L208.531 189.13Z" fill="black"/>
<path d="M208.76 187.497L208.008 187.798L208.087 187.991L208.76 187.733V187.497Z" fill="black"/>
<path d="M208.352 195.681L206.583 195.287L206.533 195.495L208.187 195.867C208.245 195.81 208.295 195.724 208.352 195.681Z" fill="black"/>
<path d="M206.898 193.891L206.848 194.099L208.76 194.528V194.306L206.898 193.891Z" fill="black"/>
<path d="M192.013 181.025L188.841 177.151L188.676 177.287L191.848 181.161L192.013 181.025Z" fill="black"/>
<path d="M190.91 181.934L187.731 178.053L187.566 178.189L190.738 182.07L190.91 181.934Z" fill="black"/>
<path d="M184.416 179.32L184.659 179.993C185.311 181.612 185.827 182.986 186.163 184.017L186.321 183.96L184.609 179.256L184.416 179.32Z" fill="black"/>
<path d="M202.013 188.677L200.775 193.534L200.983 193.587L202.221 188.73L202.013 188.677Z" fill="black"/>
<path d="M203.384 189L202.146 193.857L202.354 193.91L203.592 189.053L203.384 189Z" fill="black"/>
<path d="M195.435 193.154L190.824 191.199L190.738 191.399L195.356 193.354L195.435 193.154Z" fill="black"/>
<path d="M196.001 191.836L191.383 189.881L191.304 190.075L195.915 192.037L196.001 191.836Z" fill="black"/>
<path d="M200.182 184.11L200.018 183.974L196.86 187.869L197.032 188.006L200.182 184.11Z" fill="black"/>
<path d="M198.901 183.072L195.75 186.967L195.915 187.103L199.065 183.208L198.901 183.072Z" fill="black"/>
<path d="M199.781 175.69L199.574 175.669L199.008 180.645L199.223 180.674L199.781 175.69Z" fill="black"/>
<path d="M198.149 175.504L197.583 180.488L197.798 180.509L198.364 175.533L198.149 175.504Z" fill="black"/>
<path d="M202.602 171.473L202.466 171.273L201.478 172.991L201.664 173.098L202.602 171.473Z" fill="black"/>
<path d="M202.724 173.707L202.91 173.814L203.462 172.848L203.333 172.64L202.724 173.707Z" fill="black"/>
<path d="M196.824 172.404L196.996 172.268L195.464 170.399H195.185L196.824 172.404Z" fill="black"/>
<path d="M197.934 171.495L198.099 171.359L197.311 170.399H197.039L197.934 171.495Z" fill="black"/>
<path d="M191.046 174.781L189.464 170.399H189.235L190.846 174.86L191.046 174.781Z" fill="black"/>
<path d="M192.192 174.373L192.392 174.294L190.989 170.399H190.76L192.192 174.373Z" fill="black"/>
<path d="M181.803 172.762L182.01 172.819L182.626 170.399H182.404L181.803 172.762Z" fill="black"/>
<path d="M183.185 173.12L183.392 173.17L184.101 170.399H183.879L183.185 173.12Z" fill="black"/>
</g>
<path opacity="0.2" d="M165.084 122.577L163.43 119.198C163.953 120.501 164.311 121.346 164.311 121.346L157.251 111.952C157.002 111.929 156.752 111.984 156.535 112.11L164.468 126.616C164.468 126.616 165.148 135.924 166.358 138.072C167.39 139.89 190.08 183.18 199.395 197.972C201.37 198.435 203.436 198.325 205.352 197.657C214.237 194.521 208.488 181.454 203.777 173.349C200.232 167.242 194.87 161.957 190.173 156.738C186.972 153.158 183.206 150.129 180.149 146.427C178.13 143.993 174.32 138.945 175.036 135.451C175.036 135.451 177.127 125.262 175.824 120.816C174.521 116.37 171.628 101.212 171.628 101.212C171.349 100.994 171.008 100.869 170.654 100.854L170.339 101.212C170.339 101.212 173.433 114.816 172.817 116.685C172.201 118.554 170.318 115.582 170.318 115.582L165.614 101.978C165.332 101.711 164.994 101.508 164.626 101.384L163.265 101.72L169.101 117.909L166.659 116.355L160.129 104.856C160.129 104.856 159.342 103.811 158.819 105.379L165.979 121.31L165.084 122.577Z" fill="black"/>
</g>
<path d="M203.748 173.356C201.228 169.017 197.791 165.086 194.325 161.306L179.905 169.067C183.213 176.413 186.084 183.187 186.5 185.378C187.545 190.87 196.43 200.8 205.323 197.664C214.216 194.528 208.481 181.461 203.748 173.356Z" stroke="#263238" stroke-linecap="round" stroke-linejoin="round"/>
<path d="M71.4813 116.892L79.0853 149.112C79.2327 149.76 79.6081 150.334 80.143 150.728C80.678 151.122 81.3368 151.311 81.9994 151.26L93.8921 150.373C94.2929 150.343 94.6825 150.226 95.0341 150.032C95.3857 149.837 95.6911 149.569 95.9292 149.245C96.1672 148.921 96.3324 148.55 96.4134 148.156C96.4943 147.762 96.4891 147.356 96.3981 146.964L88.8014 114.587C88.6517 113.932 88.2695 113.353 87.7258 112.958C87.1821 112.563 86.5136 112.379 85.8443 112.439L73.9372 113.506C73.5426 113.542 73.1603 113.662 72.8159 113.858C72.4715 114.053 72.1729 114.321 71.9403 114.641C71.7077 114.962 71.5464 115.329 71.4673 115.717C71.3881 116.106 71.3929 116.506 71.4813 116.892Z" fill="#263238" stroke="#263238" stroke-linecap="round" stroke-linejoin="round"/>
<path d="M85.0782 184.118L81.7201 161.356C82.6894 160.21 83.5634 158.986 84.3335 157.697C85.3789 155.871 79.8872 148.554 77.5387 144.093C75.1902 139.633 74.152 132.587 71.288 133.89C68.424 135.193 68.6746 139.618 69.1973 144.086C69.72 148.554 74.9253 160.289 74.9253 160.289C74.9253 160.289 67.8655 175.97 65.517 184.332C63.1686 192.695 67.8655 200.278 71.5243 199.755C75.183 199.232 82.3574 192.294 82.3574 192.294" fill="white"/>
<mask id="mask5_179_5770" style="mask-type:luminance" maskUnits="userSpaceOnUse" x="64" y="133" width="22" height="67">
<path d="M85.0782 184.118L81.7201 161.356C82.6894 160.21 83.5634 158.986 84.3335 157.697C85.3789 155.871 79.8872 148.554 77.5387 144.093C75.1902 139.633 74.152 132.587 71.288 133.89C68.424 135.193 68.6746 139.618 69.1973 144.086C69.72 148.554 74.9253 160.289 74.9253 160.289C74.9253 160.289 67.8655 175.97 65.517 184.332C63.1686 192.695 67.8655 200.278 71.5243 199.755C75.183 199.232 82.3574 192.294 82.3574 192.294" fill="white"/>
</mask>
<g mask="url(#mask5_179_5770)">
<path opacity="0.2" d="M85.0782 184.118L81.7202 161.356C82.6894 160.21 83.5634 158.986 84.3335 157.697C84.8705 156.759 83.6748 154.361 82.071 151.654C82.2357 152.635 82.5292 155.234 81.5483 156.945C80.4471 158.694 79.2042 160.348 77.8323 161.893L71.646 178.912C71.646 178.912 70.1711 195.581 71.5243 199.777C75.1831 199.254 82.3574 192.316 82.3574 192.316L85.0782 184.118Z" fill="black"/>
</g>
<path d="M85.0782 184.118L81.7201 161.356C82.6894 160.21 83.5634 158.986 84.3335 157.697C85.3789 155.871 79.8872 148.554 77.5387 144.093C75.1902 139.633 74.152 132.587 71.288 133.89C68.424 135.193 68.6746 139.618 69.1973 144.086C69.72 148.554 74.9253 160.289 74.9253 160.289C74.9253 160.289 67.8655 175.97 65.517 184.332C63.1686 192.695 67.8655 200.278 71.5243 199.755C75.183 199.232 82.3574 192.294 82.3574 192.294" stroke="#263238" stroke-linecap="round" stroke-linejoin="round"/>
<path d="M85.0782 184.118L83.7822 175.339C81.8419 177.237 79.4862 178.919 77.016 179.371C75.4068 179.683 73.7424 179.536 72.212 178.949C70.6817 178.362 69.3469 177.357 68.3596 176.048C67.214 179.048 66.2116 181.984 65.4956 184.332C63.14 192.695 67.8441 200.278 71.5028 199.755C74.1664 199.376 79.4218 194.886 82.3359 192.294" fill="#92E3A9"/>
<mask id="mask6_179_5770" style="mask-type:luminance" maskUnits="userSpaceOnUse" x="64" y="175" width="22" height="25">
<path d="M85.0782 184.118L83.7822 175.339C81.8419 177.237 79.4862 178.919 77.016 179.371C75.4068 179.683 73.7424 179.536 72.212 178.949C70.6817 178.362 69.3469 177.357 68.3596 176.048C67.214 179.048 66.2116 181.984 65.4956 184.332C63.14 192.695 67.8441 200.278 71.5028 199.755C74.1664 199.376 79.4218 194.886 82.3359 192.294" fill="white"/>
</mask>
<g mask="url(#mask6_179_5770)">
<g opacity="0.2">
<path d="M80.1486 179.734L79.9466 179.807L81.6485 184.521L81.8505 184.448L80.1486 179.734Z" fill="black"/>
<path d="M81.5065 179.24L81.3044 179.313L83.0055 184.028L83.2075 183.955L81.5065 179.24Z" fill="black"/>
<path d="M80.3311 189.423L80.1449 189.316L77.6533 193.669L77.8394 193.769L80.3311 189.423Z" fill="black"/>
<path d="M79.0852 188.714L78.8991 188.607L76.4146 192.953L76.5936 193.06L79.0852 188.714Z" fill="black"/>
<path d="M70.6221 192.674L67.4431 188.793L67.2784 188.929L70.4574 192.81L70.6221 192.674Z" fill="black"/>
<path d="M71.7247 191.765L68.5529 187.891L68.3882 188.027L71.5601 191.901L71.7247 191.765Z" fill="black"/>
<path d="M72.2975 198.588L72.3835 198.788L76.9086 196.812L76.973 196.762L76.8943 196.583L72.2975 198.588Z" fill="black"/>
<path d="M68.5171 195.839L67.9156 197.987L68.0875 198.18L68.7247 195.924L68.5171 195.839Z" fill="black"/>
<path d="M66.8488 196.476L66.9992 196.726L67.35 195.509L67.1424 195.445L66.8488 196.476Z" fill="black"/>
<path d="M75.7917 181.762L75.6628 181.59L71.6603 184.612L71.7892 184.784L75.7917 181.762Z" fill="black"/>
<path d="M76.5185 182.756L72.5131 185.769L72.6422 185.94L76.6476 182.927L76.5185 182.756Z" fill="black"/>
<path d="M69.1973 181.783L67.8942 177.273C67.8512 177.387 67.8083 177.495 67.7725 177.609L68.9897 181.841L69.1973 181.783Z" fill="black"/>
<path d="M67.8226 182.177L67.0636 179.55C67.0207 179.671 66.9849 179.786 66.9419 179.9L67.6149 182.242L67.8226 182.177Z" fill="black"/>
</g>
<path opacity="0.2" d="M110.009 143.306C110.009 143.306 111.864 135.573 110.009 137.119C108.155 138.666 84.3264 179.507 84.3264 179.507L83.4027 173.936C83.4027 173.936 72.8847 173.628 71.646 178.891C70.4073 184.153 68.2379 201.166 72.5697 202.089C76.9015 203.013 102.892 172.39 102.892 172.39C102.892 172.39 102.176 163.941 103.458 159.244C104.74 154.547 110.009 143.306 110.009 143.306Z" fill="black"/>
</g>
<path d="M85.0782 184.118L83.7822 175.339C81.8419 177.237 79.4862 178.919 77.016 179.371C75.4068 179.683 73.7424 179.536 72.212 178.949C70.6817 178.362 69.3469 177.357 68.3596 176.048C67.214 179.048 66.2116 181.984 65.4956 184.332C63.14 192.695 67.8441 200.278 71.5028 199.755C74.1664 199.376 79.4218 194.886 82.3359 192.294" stroke="#263238" stroke-linecap="round" stroke-linejoin="round"/>
<path d="M68.6531 137.814C68.6531 137.814 70.4789 130.754 73.615 126.838C76.7511 122.921 80.9325 118.246 82.2428 119.255C85.0567 121.503 76.479 129.802 75.7057 131.8C74.4026 135.201 73.0923 139.382 73.0923 139.382" fill="white"/>
<path d="M68.6531 137.814C68.6531 137.814 70.4789 130.754 73.615 126.838C76.7511 122.921 80.9325 118.246 82.2428 119.255C85.0567 121.503 76.479 129.802 75.7057 131.8C74.4026 135.201 73.0923 139.382 73.0923 139.382" stroke="#263238" stroke-linecap="round" stroke-linejoin="round"/>
<path d="M72.8346 140.427C72.8346 140.427 78.3191 133.11 81.1975 129.974C84.0758 126.838 90.083 127.11 89.2954 128.928C88.5078 130.747 83.8109 132.845 82.2428 134.936C80.6748 137.026 75.448 144.609 75.448 144.609C75.448 144.609 80.1521 138.594 83.5459 136.769C86.9398 134.943 91.9088 134.155 91.9088 135.981C91.9088 137.807 91.1284 137.291 88.2501 139.64C85.3718 141.988 84.5913 141.995 82.5221 144.344C80.4528 146.692 78.8633 148.79 78.8633 148.79H87.756C90.1117 148.79 93.2478 149.578 93.2478 150.358C93.2478 151.139 93.5055 151.926 90.1117 152.191C86.7178 152.456 80.4385 153.237 80.4385 153.237" fill="white"/>
<path d="M72.8346 140.427C72.8346 140.427 78.3191 133.11 81.1975 129.974C84.0758 126.838 90.083 127.11 89.2954 128.928C88.5078 130.747 83.8109 132.845 82.2428 134.936C80.6748 137.026 75.448 144.609 75.448 144.609C75.448 144.609 80.1521 138.594 83.5459 136.769C86.9398 134.943 91.9088 134.155 91.9088 135.981C91.9088 137.807 91.1284 137.291 88.2501 139.64C85.3718 141.988 84.5913 141.995 82.5221 144.344C80.4528 146.692 78.8633 148.79 78.8633 148.79H87.756C90.1117 148.79 93.2478 149.578 93.2478 150.358C93.2478 151.139 93.5055 151.926 90.1117 152.191C86.7178 152.456 80.4385 153.237 80.4385 153.237" stroke="#263238" stroke-linecap="round" stroke-linejoin="round"/>
<path d="M256.166 255.424H262.345" stroke="#263238" stroke-linecap="round" stroke-linejoin="round"/>
<path d="M0.74054 255.424H248.305" stroke="#263238" stroke-linecap="round" stroke-linejoin="round"/>
<path d="M99.2908 62.9776C102.194 59.5623 103.689 55.1709 103.474 50.6938C103.258 46.2166 101.348 41.989 98.1308 38.8683C94.9133 35.7475 90.6294 33.9672 86.1478 33.8885C81.6662 33.8097 77.3224 35.4384 73.9973 38.4441C70.6722 41.4499 68.6147 45.6078 68.2421 50.0746C67.8695 54.5414 69.2097 58.9827 71.9909 62.4978C74.7721 66.013 78.786 68.3388 83.2187 69.0036C87.6515 69.6684 92.1711 68.6224 95.8611 66.0779L101.711 68.7915L99.2908 62.9776Z" fill="#263238" stroke="#263238" stroke-linecap="round" stroke-linejoin="round"/>
<path d="M83.1951 40.8961C83.1895 40.8032 83.1895 40.7099 83.1951 40.6169C83.1801 40.298 83.2449 39.9803 83.3837 39.6928C83.5225 39.4052 83.7308 39.1568 83.9899 38.9701C84.5379 38.5875 85.1902 38.3824 85.8586 38.3824C86.527 38.3824 87.1793 38.5875 87.7274 38.9701C87.9833 39.1588 88.1885 39.408 88.3247 39.6954C88.4609 39.9827 88.5238 40.2993 88.5078 40.6169C88.5169 40.7098 88.5169 40.8033 88.5078 40.8961L87.1546 55.388C87.132 55.7724 86.9719 56.1358 86.7035 56.4119C86.4705 56.641 86.1568 56.7694 85.83 56.7694C85.5032 56.7694 85.1895 56.641 84.9565 56.4119C84.6853 56.1376 84.5247 55.7731 84.5054 55.388L83.1951 40.8961ZM84.0901 63.98C83.6358 63.5191 83.3811 62.898 83.3811 62.2509C83.3811 61.6037 83.6358 60.9826 84.0901 60.5217C84.3244 60.2832 84.6059 60.0963 84.9166 59.973C85.2273 59.8497 85.5604 59.7927 85.8944 59.8057C86.2242 59.8011 86.5516 59.8621 86.8576 59.985C87.1637 60.1079 87.4423 60.2903 87.6773 60.5217C87.9122 60.7451 88.0974 61.0155 88.2208 61.3153C88.3442 61.6151 88.403 61.9375 88.3933 62.2616C88.3969 62.5848 88.3354 62.9055 88.2124 63.2044C88.0894 63.5034 87.9074 63.7744 87.6773 64.0015C87.1951 64.4619 86.554 64.7188 85.8873 64.7188C85.2205 64.7188 84.5795 64.4619 84.0973 64.0015L84.0901 63.98Z" fill="#92E3A9"/>
</svg>
