<svg width="17" height="17" viewBox="0 0 17 17" fill="none" xmlns="http://www.w3.org/2000/svg">
<path id="Vector" d="M17 11.3333V1.41667C17 1.04094 16.8507 0.680609 16.5851 0.414932C16.3194 0.149255 15.9591 0 15.5833 0H1.41667C1.04094 0 0.680609 0.149255 0.414932 0.414932C0.149255 0.680609 0 1.04094 0 1.41667V15.5833C0 15.9591 0.149255 16.3194 0.414932 16.5851C0.680609 16.8507 1.04094 17 1.41667 17H15.5833C15.9591 17 16.3194 16.8507 16.5851 16.5851C16.8507 16.3194 17 15.9591 17 15.5833V11.3333ZM15.5833 1.41667V9.62448L13.0422 7.08333C12.7755 6.82054 12.4161 6.67323 12.0417 6.67323C11.6672 6.67323 11.3079 6.82054 11.0411 7.08333L7.08333 11.0411L5.25052 9.20833C4.98381 8.94554 4.62442 8.79823 4.25 8.79823C3.87558 8.79823 3.51619 8.94554 3.24948 9.20833L1.41667 11.0411V1.41667H15.5833ZM15.5833 15.5833H1.41667V13.0422L4.25 10.2089L6.08281 12.0417C6.34952 12.3045 6.70891 12.4518 7.08333 12.4518C7.45776 12.4518 7.81715 12.3045 8.08385 12.0417L12.0417 8.08385L15.5833 11.6255V15.5833ZM5.26823 6.0651C5.16925 5.96647 5.09088 5.84914 5.03768 5.71993C4.98447 5.59073 4.9575 5.45223 4.95833 5.3125C4.95833 5.03071 5.07027 4.76046 5.26953 4.5612C5.46879 4.36194 5.73904 4.25 6.02083 4.25C6.30263 4.25 6.57288 4.36194 6.77213 4.5612C6.97139 4.76046 7.08333 5.03071 7.08333 5.3125C7.08333 5.59429 6.97139 5.86454 6.77213 6.0638C6.57288 6.26306 6.30263 6.375 6.02083 6.375C5.73934 6.37285 5.46962 6.26179 5.26823 6.0651Z" fill="#449EEE"/>
</svg>
