<svg width="27" height="27" viewBox="0 0 27 27" fill="none" xmlns="http://www.w3.org/2000/svg">
<g id="ei:plus">
<path id="Vector" d="M0.75 13.5C0.75 20.5498 6.45016 26.25 13.5 26.25C20.5498 26.25 26.25 20.5498 26.25 13.5C26.25 6.45016 20.5498 0.75 13.5 0.75C6.45016 0.75 0.75 6.45016 0.75 13.5ZM2.72059 13.5C2.72059 7.53513 7.53513 2.72059 13.5 2.72059C19.4649 2.72059 24.2794 7.53513 24.2794 13.5C24.2794 19.4649 19.4649 24.2794 13.5 24.2794C7.53513 24.2794 2.72059 19.4649 2.72059 13.5Z" fill="#AFBACA" stroke="#AFBACA" stroke-width="0.5"/>
<path id="Vector_2" d="M6 12.4166H5.75V12.6666V14.3333V14.5833H6H21H21.25V14.3333V12.6666V12.4166H21H6Z" fill="#AFBACA" stroke="#AFBACA" stroke-width="0.5"/>
<path id="Vector_3" d="M12.6665 5.75H12.4165V6V21V21.25H12.6665H14.3332H14.5832V21V6V5.75H14.3332H12.6665Z" fill="#AFBACA" stroke="#AFBACA" stroke-width="0.5"/>
</g>
</svg>
