<svg width="43" height="24" viewBox="0 0 43 24" fill="none" xmlns="http://www.w3.org/2000/svg">
<circle cx="11.6848" cy="11.6848" r="11.6848" fill="#1E88E5"/>
<g clip-path="url(#clip0_38_557)">
<path d="M17.6927 11.1979C17.6927 10.9138 17.5799 10.6414 17.379 10.4405C17.1781 10.2396 16.9057 10.1268 16.6216 10.1268H13.2369L13.751 7.67932C13.7618 7.62577 13.7671 7.56686 13.7671 7.50795C13.7671 7.28837 13.6761 7.08486 13.5315 6.94026L12.9638 6.37793L9.43984 9.90187C9.24169 10.1 9.12387 10.3678 9.12387 10.6624V16.0179C9.12387 16.302 9.23672 16.5744 9.43759 16.7753C9.63846 16.9761 9.9109 17.089 10.195 17.089H15.0149C15.4595 17.089 15.8397 16.8212 16.0004 16.4356L17.6177 12.66C17.6659 12.5368 17.6927 12.4083 17.6927 12.269V11.1979ZM5.91055 17.089H8.05276V10.6624H5.91055V17.089Z" fill="white"/>
</g>
<circle cx="31.3152" cy="11.6848" r="11.6848" fill="#FF3858"/>
<mask id="mask0_38_557" style="mask-type:luminance" maskUnits="userSpaceOnUse" x="26" y="8" width="11" height="9">
<path d="M28.876 8.14038C27.3084 8.14038 26.0376 9.41122 26.0376 10.9788C26.0376 13.8172 29.3921 16.3976 31.1984 16.9978C33.0046 16.3976 36.3591 13.8172 36.3591 10.9788C36.3591 9.41122 35.0883 8.14038 33.5207 8.14038C32.5608 8.14038 31.7119 8.61698 31.1984 9.34646C30.9366 8.97364 30.5889 8.66938 30.1847 8.45944C29.7804 8.2495 29.3315 8.14006 28.876 8.14038Z" fill="white"/>
</mask>
<g mask="url(#mask0_38_557)">
<path d="M25.0054 6.07605H37.3913V18.4619H25.0054V6.07605Z" fill="white"/>
</g>
<defs>
<clipPath id="clip0_38_557">
<rect width="12.8533" height="12.8533" fill="white" transform="translate(5.375 5.84241)"/>
</clipPath>
</defs>
</svg>
