<svg width="24" height="24" viewBox="0 0 24 24" fill="none" xmlns="http://www.w3.org/2000/svg">
<path fill-rule="evenodd" clip-rule="evenodd" d="M0.452795 8.24481C0.46781 8.03113 0.545831 7.82671 0.676997 7.65736C0.808163 7.48802 0.986587 7.36136 1.18972 7.29339L21.8726 0.399102C22.0636 0.335162 22.2686 0.325739 22.4647 0.371891C22.6608 0.418043 22.8401 0.517943 22.9825 0.660371C23.125 0.802799 23.2248 0.982116 23.271 1.17818C23.3172 1.37425 23.3077 1.5793 23.2438 1.7703L16.3495 22.4532C16.2818 22.6565 16.1553 22.8352 15.9859 22.9667C15.8166 23.0981 15.6121 23.1763 15.3983 23.1915C15.1845 23.2067 14.971 23.1581 14.7849 23.0519C14.5987 22.9457 14.4482 22.7866 14.3525 22.5949L10.4288 14.7461L14.5555 10.6195C14.7586 10.4163 14.8728 10.1408 14.8728 9.85348C14.8728 9.56616 14.7586 9.29061 14.5555 9.08744C14.3523 8.88428 14.0767 8.77014 13.7894 8.77014C13.5021 8.77014 13.2266 8.88428 13.0234 9.08744L8.89677 13.2141L1.04724 9.29121C0.855786 9.19526 0.697066 9.04472 0.591127 8.85862C0.485189 8.67251 0.43755 8.45841 0.452795 8.24481Z" fill="white"/>
</svg>
