<svg width="25" height="25" viewBox="0 0 25 25" fill="none" xmlns="http://www.w3.org/2000/svg">
<g id="ri:speak-line">
<path id="Vector" d="M17.6394 9.33855C17.3605 7.24363 16.2963 5.33285 14.6621 3.99283C13.0278 2.6528 10.9456 1.98358 8.8366 2.12057C6.72765 2.25756 4.74946 3.19052 3.30229 4.73071C1.85512 6.27089 1.04703 8.30328 1.0415 10.4167C1.0415 12.3875 1.72588 14.199 2.87067 15.626C3.71234 16.6771 4.1665 17.8385 4.1665 19.0688V22.9167H13.5415L13.5425 19.7917H15.6248C16.1774 19.7917 16.7073 19.5722 17.098 19.1815C17.4887 18.7908 17.7082 18.2609 17.7082 17.7083V14.6573L19.7498 13.7823C20.1061 13.6302 20.1373 13.2677 19.9832 13.025L17.6394 9.33751V9.33855ZM3.12484 10.4167C3.12324 8.82836 3.72641 7.29902 4.81179 6.13942C5.89717 4.97981 7.38332 4.27694 8.96827 4.17362C10.5532 4.0703 12.118 4.57428 13.3448 5.58317C14.5715 6.59205 15.3681 8.03014 15.5728 9.60522L15.6321 10.0656L17.2394 12.5917L15.6248 13.2833V17.7083H11.4603L11.4582 20.8333H6.24984V19.0688C6.24984 17.3615 5.63421 15.7438 4.49463 14.3229C3.60506 13.2156 3.12163 11.837 3.12484 10.4167ZM22.0353 18.8563L20.3009 17.7C21.3296 16.1611 21.8775 14.3511 21.8748 12.5C21.8781 10.6487 21.3306 8.83823 20.3019 7.29897L22.0353 6.14272C23.2928 8.02409 23.9621 10.2371 23.9582 12.5C23.9582 14.8521 23.2498 17.0375 22.0353 18.8563Z" fill="#AFBACA"/>
</g>
</svg>
