<svg width="24" height="17" viewBox="0 0 24 17" fill="none" xmlns="http://www.w3.org/2000/svg">
<path id="Vector" d="M15.6667 6L21.2314 3.155C21.4177 3.05979 21.6247 3.01485 21.8328 3.02443C22.0408 3.03402 22.243 3.09781 22.4202 3.20976C22.5974 3.32171 22.7436 3.4781 22.8451 3.66409C22.9466 3.85008 22.9999 4.05951 23 4.2725V12.7275C22.9999 12.9405 22.9466 13.1499 22.8451 13.3359C22.7436 13.5219 22.5974 13.6783 22.4202 13.7902C22.243 13.9022 22.0408 13.966 21.8328 13.9756C21.6247 13.9851 21.4177 13.9402 21.2314 13.845L15.6667 11V6ZM1 3.5C1 2.83696 1.25754 2.20107 1.71596 1.73223C2.17438 1.26339 2.79614 1 3.44444 1H13.2222C13.8705 1 14.4923 1.26339 14.9507 1.73223C15.4091 2.20107 15.6667 2.83696 15.6667 3.5V13.5C15.6667 14.163 15.4091 14.7989 14.9507 15.2678C14.4923 15.7366 13.8705 16 13.2222 16H3.44444C2.79614 16 2.17438 15.7366 1.71596 15.2678C1.25754 14.7989 1 14.163 1 13.5V3.5Z" stroke="#449EEE" stroke-width="1.5" stroke-linecap="round" stroke-linejoin="round"/>
</svg>
